<svg width="24" height="24" viewBox="0 0 24 24" fill="none" xmlns="http://www.w3.org/2000/svg">
<path d="M5 5C4.44772 5 4 5.44772 4 6C4 6.55228 4.44772 7 5 7V5ZM19 7C19.5523 7 20 6.55228 20 6C20 5.44772 19.5523 5 19 5V7ZM5 9C4.44772 9 4 9.44772 4 10C4 10.5523 4.44772 11 5 11V9ZM15 11C15.5523 11 16 10.5523 16 10C16 9.44772 15.5523 9 15 9V11ZM5 13C4.44772 13 4 13.4477 4 14C4 14.5523 4.44772 15 5 15V13ZM19 15C19.5523 15 20 14.5523 20 14C20 13.4477 19.5523 13 19 13V15ZM5 17C4.44772 17 4 17.4477 4 18C4 18.5523 4.44772 19 5 19V17ZM15 19C15.5523 19 16 18.5523 16 18C16 17.4477 15.5523 17 15 17V19ZM5 7H19V5H5V7ZM5 11H15V9H5V11ZM5 15H19V13H5V15ZM5 19H15V17H5V19Z" fill="white"/>
</svg>
