<svg width="24" height="24" viewBox="0 0 24 24" fill="none" xmlns="http://www.w3.org/2000/svg">
<path d="M5 19C4.44772 19 4 19.4477 4 20C4 20.5523 4.44772 21 5 21V19ZM19 21C19.5523 21 20 20.5523 20 20C20 19.4477 19.5523 19 19 19V21ZM13 4C13 3.44772 12.5523 3 12 3C11.4477 3 11 3.44772 11 4H13ZM12 16L11.2929 16.7071C11.6834 17.0976 12.3166 17.0976 12.7071 16.7071L12 16ZM15.7071 13.7071C16.0976 13.3166 16.0976 12.6834 15.7071 12.2929C15.3166 11.9024 14.6834 11.9024 14.2929 12.2929L15.7071 13.7071ZM9.70711 12.2929C9.31658 11.9024 8.68342 11.9024 8.29289 12.2929C7.90237 12.6834 7.90237 13.3166 8.29289 13.7071L9.70711 12.2929ZM5 21H19V19H5V21ZM11 4V16H13V4H11ZM12.7071 16.7071L15.7071 13.7071L14.2929 12.2929L11.2929 15.2929L12.7071 16.7071ZM12.7071 15.2929L9.70711 12.2929L8.29289 13.7071L11.2929 16.7071L12.7071 15.2929Z" fill="white"/>
</svg>
