<svg width="24" height="24" viewBox="0 0 24 24" fill="none" xmlns="http://www.w3.org/2000/svg">
<path d="M19 13C19.5523 13 20 12.5523 20 12C20 11.4477 19.5523 11 19 11V13ZM5 11C4.44772 11 4 11.4477 4 12C4 12.5523 4.44772 13 5 13V11ZM11 20C11 20.5523 11.4477 21 12 21C12.5523 21 13 20.5523 13 20H11ZM12 15L12.7071 14.2929C12.5196 14.1054 12.2652 14 12 14C11.7348 14 11.4804 14.1054 11.2929 14.2929L12 15ZM13.2929 17.7071C13.6834 18.0976 14.3166 18.0976 14.7071 17.7071C15.0976 17.3166 15.0976 16.6834 14.7071 16.2929L13.2929 17.7071ZM9.29289 16.2929C8.90237 16.6834 8.90237 17.3166 9.29289 17.7071C9.68342 18.0976 10.3166 18.0976 10.7071 17.7071L9.29289 16.2929ZM13 4C13 3.44772 12.5523 3 12 3C11.4477 3 11 3.44772 11 4H13ZM12 9L11.2929 9.70711C11.6834 10.0976 12.3166 10.0976 12.7071 9.70711L12 9ZM10.7071 6.29289C10.3166 5.90237 9.68342 5.90237 9.29289 6.29289C8.90237 6.68342 8.90237 7.31658 9.29289 7.70711L10.7071 6.29289ZM14.7071 7.70711C15.0976 7.31658 15.0976 6.68342 14.7071 6.29289C14.3166 5.90237 13.6834 5.90237 13.2929 6.29289L14.7071 7.70711ZM19 11H5V13H19V11ZM13 20V15H11L11 20H13ZM11.2929 15.7071L13.2929 17.7071L14.7071 16.2929L12.7071 14.2929L11.2929 15.7071ZM11.2929 14.2929L9.29289 16.2929L10.7071 17.7071L12.7071 15.7071L11.2929 14.2929ZM11 4V9H13V4H11ZM12.7071 8.29289L10.7071 6.29289L9.29289 7.70711L11.2929 9.70711L12.7071 8.29289ZM12.7071 9.70711L14.7071 7.70711L13.2929 6.29289L11.2929 8.29289L12.7071 9.70711Z" fill="white"/>
</svg>
