<svg width="20" height="20" viewBox="0 0 20 20" fill="none" xmlns="http://www.w3.org/2000/svg"><path d="M3.33366 9C2.78137 9 2.33366 9.44771 2.33366 10C2.33366 10.5523 2.78137 11 3.33366 11L3.33366 9ZM16.667 10L17.3741 10.7071C17.5616 10.5196 17.667 10.2652 17.667 10C17.667 9.73478 17.5616 9.48043 17.3741 9.29289L16.667 10ZM10.9599 14.2929C10.5694 14.6834 10.5694 15.3166 10.9599 15.7071C11.3504 16.0976 11.9836 16.0976 12.3741 15.7071L10.9599 14.2929ZM12.3741 4.29289C11.9836 3.90237 11.3504 3.90237 10.9599 4.29289C10.5694 4.68342 10.5694 5.31658 10.9599 5.70711L12.3741 4.29289ZM3.33366 11L16.667 11L16.667 9L3.33366 9L3.33366 11ZM15.9599 9.29289L10.9599 14.2929L12.3741 15.7071L17.3741 10.7071L15.9599 9.29289ZM17.3741 9.29289L12.3741 4.29289L10.9599 5.70711L15.9599 10.7071L17.3741 9.29289Z" fill="white"/></svg>
