<svg width="24" height="24" viewBox="0 0 24 24" fill="none" xmlns="http://www.w3.org/2000/svg">
<path fill-rule="evenodd" clip-rule="evenodd" d="M6.90904 5.82325C6.33296 6.7445 6 7.83337 6 9V11.7564C6 12.1579 5.70766 12.6054 5.09976 13.2452C4.41915 13.9616 4 14.9329 4 16C4 17.1046 4.89543 18 6 18H7H16C16.8342 18 17.5492 17.4892 17.8492 16.7634L16 14.9142V16H7H6C6 15.4658 6.20812 14.9823 6.54971 14.6228C7.10947 14.0336 8 13.05 8 11.7564V9C8 8.3901 8.1365 7.81208 8.38062 7.29483L6.90904 5.82325ZM16 12.0858V9C16 6.79086 14.2091 5 12 5C11.1288 5 10.3226 5.27854 9.66565 5.75143L8.23901 4.3248C9.26789 3.49606 10.576 3 12 3C15.3137 3 18 5.68629 18 9V14.0858L16 12.0858Z" fill="white"/>
<path d="M3 3L21 21" stroke="white" stroke-width="2" stroke-linecap="round" stroke-linejoin="round"/>
<path d="M13.7976 19.8767C13.6312 20.2179 13.3712 20.5046 13.048 20.7035C12.7247 20.9023 12.3516 21.0051 11.9721 20.9998C11.5926 20.9945 11.2224 20.8813 10.9049 20.6735C10.5873 20.4657 10.3354 20.1718 10.1786 19.8262" stroke="white" stroke-width="2" stroke-linecap="round" stroke-linejoin="round"/>
<path d="M12 3V4" stroke="white" stroke-width="2" stroke-linecap="round" stroke-linejoin="round"/>
</svg>
