<svg width="24" height="24" viewBox="0 0 24 24" fill="none" xmlns="http://www.w3.org/2000/svg">
<path fill-rule="evenodd" clip-rule="evenodd" d="M10.5001 1.71137C11.4283 1.17547 12.5719 1.17547 13.5001 1.71137L20.1604 5.55667C21.0886 6.09257 21.6604 7.08295 21.6604 8.15475V15.8453C21.6604 16.9171 21.0886 17.9075 20.1604 18.4434L13.5001 22.2887C12.5719 22.8246 11.4283 22.8246 10.5001 22.2887L3.83984 18.4434C2.91164 17.9075 2.33984 16.9171 2.33984 15.8453V8.15475C2.33984 7.6374 2.47307 7.13903 2.71529 6.70158C2.72411 6.68402 2.7335 6.66661 2.74346 6.64938C2.75411 6.63097 2.76524 6.61302 2.77685 6.59555C3.03413 6.17262 3.39629 5.81275 3.83984 5.55667L10.5001 1.71137ZM4.33984 15.8453V8.7272L11.0001 12.5771V20.268L4.83984 16.7114C4.53044 16.5327 4.33984 16.2026 4.33984 15.8453ZM19.1604 16.7114L13.0001 20.268V12.5774L19.6604 8.73203V15.8453C19.6604 16.2026 19.4698 16.5327 19.1604 16.7114ZM12.5001 3.44342L18.6603 7.00001L16.5922 8.19407C16.5673 8.17589 16.5415 8.15869 16.5146 8.14255L10.0643 4.27238L11.5001 3.44342C11.8095 3.26479 12.1907 3.26479 12.5001 3.44342ZM8.08326 5.41614L5.34408 6.9976L12.0003 10.8452L14.6153 9.33539L8.08326 5.41614Z" fill="white"/>
</svg>
