<svg width="20" height="20" viewBox="0 0 20 20" fill="none" xmlns="http://www.w3.org/2000/svg">
<path d="M7.5003 9.35183L10.6485 12.5M6.64603 17.479C5.507 18.6181 3.33366 18.3333 1.66699 18.3333C2.52124 16.6666 1.38221 14.4933 2.52124 13.3543C3.66027 12.2152 5.507 12.2152 6.64603 13.3543C7.78506 14.4933 7.78506 16.34 6.64603 17.479ZM9.93499 13.2705L17.5492 5.0471C18.2199 4.32279 18.1983 3.19797 17.5003 2.49998C16.8023 1.80199 15.6775 1.78036 14.9532 2.45101L6.72977 10.0653C6.30482 10.4587 6.09235 10.6555 5.96843 10.8653C5.67128 11.3684 5.65932 11.9904 5.93692 12.5046C6.05268 12.719 6.25744 12.9238 6.66695 13.3333C7.07646 13.7428 7.28121 13.9476 7.49564 14.0633C8.00983 14.3409 8.63183 14.329 9.13497 14.0318C9.34479 13.9079 9.54152 13.6954 9.93499 13.2705Z" stroke="#ECEDEE" stroke-width="1.66667" stroke-linecap="round" stroke-linejoin="round"/>
</svg>
