<svg width="24" height="24" viewBox="0 0 24 24" fill="none" xmlns="http://www.w3.org/2000/svg">
<path fill-rule="evenodd" clip-rule="evenodd" d="M8 5C8 3.34315 9.34315 2 11 2H19C20.6576 2 22 3.34507 22 5.00116V13.9988C22 15.6549 20.6576 17 19 17C18.4477 17 18 16.5523 18 16C18 15.4477 18.4477 15 19 15C19.5515 15 20 14.5519 20 13.9988V5.00116C20 4.44812 19.5515 4 19 4H11C10.4477 4 10 4.44772 10 5C10 5.55228 9.55228 6 9 6C8.44772 6 8 5.55228 8 5ZM6 9C5.44772 9 5 9.44772 5 10V19C5 19.5523 5.44772 20 6 20H14C14.5523 20 15 19.5523 15 19V10C15 9.44772 14.5523 9 14 9H6ZM3 10C3 8.34315 4.34315 7 6 7H14C15.6569 7 17 8.34315 17 10V19C17 20.6569 15.6569 22 14 22H6C4.34315 22 3 20.6569 3 19V10Z" fill="white"/>
</svg>
