<svg width="24" height="24" viewBox="0 0 24 24" fill="none" xmlns="http://www.w3.org/2000/svg">
<path d="M19 11C18.4477 11 18 11.4477 18 12C18 12.5523 18.4477 13 19 13V11ZM5 13C5.55228 13 6 12.5523 6 12C6 11.4477 5.55228 11 5 11V13ZM11 5C11 5.55228 11.4477 6 12 6C12.5523 6 13 5.55228 13 5H11ZM13.3229 10.5L12.6612 11.2497V11.2497L13.3229 10.5ZM16.53 8.70711C16.9205 8.31658 16.9205 7.68342 16.53 7.29289C16.1395 6.90237 15.5063 6.90237 15.1158 7.29289L16.53 8.70711ZM20 12C20 16.4183 16.4183 20 12 20V22C17.5228 22 22 17.5228 22 12H20ZM12 20C7.58172 20 4 16.4183 4 12H2C2 17.5228 6.47715 22 12 22V20ZM4 12C4 7.58172 7.58172 4 12 4V2C6.47715 2 2 6.47715 2 12H4ZM12 4C16.4183 4 20 7.58172 20 12H22C22 6.47715 17.5228 2 12 2V4ZM21 11H19V13H21V11ZM3 13H5V11H3V13ZM11 3V5H13V3H11ZM13 12C13 12.5523 12.5523 13 12 13V15C13.6569 15 15 13.6569 15 12H13ZM12 13C11.4477 13 11 12.5523 11 12H9C9 13.6569 10.3431 15 12 15V13ZM11 12C11 11.4477 11.4477 11 12 11V9C10.3431 9 9 10.3431 9 12H11ZM12 11C12.2543 11 12.4843 11.0936 12.6612 11.2497L13.9846 9.75026C13.4564 9.28402 12.7602 9 12 9V11ZM12.6612 11.2497C12.8704 11.4344 13 11.7015 13 12H15C15 11.1038 14.6058 10.2985 13.9846 9.75026L12.6612 11.2497ZM14.03 11.2071L16.53 8.70711L15.1158 7.29289L12.6158 9.79289L14.03 11.2071Z" fill="white"/>
</svg>
