<svg width="24" height="24" viewBox="0 0 24 24" fill="none" xmlns="http://www.w3.org/2000/svg">
<path d="M20 15C20 14.4477 19.5523 14 19 14C18.4477 14 18 14.4477 18 15H20ZM6 15C6 14.4477 5.55228 14 5 14C4.44772 14 4 14.4477 4 15H6ZM13 5C13 4.44772 12.5523 4 12 4C11.4477 4 11 4.44772 11 5H13ZM12 15L11.2929 15.7071C11.6834 16.0976 12.3166 16.0976 12.7071 15.7071L12 15ZM10.7071 12.2929C10.3166 11.9024 9.68342 11.9024 9.29289 12.2929C8.90237 12.6834 8.90237 13.3166 9.29289 13.7071L10.7071 12.2929ZM14.7071 13.7071C15.0976 13.3166 15.0976 12.6834 14.7071 12.2929C14.3166 11.9024 13.6834 11.9024 13.2929 12.2929L14.7071 13.7071ZM17 18H7V20H17V18ZM20 17V15H18V17H20ZM6 17V15H4V17H6ZM7 18C6.44772 18 6 17.5523 6 17H4C4 18.6569 5.34315 20 7 20V18ZM17 20C18.6569 20 20 18.6569 20 17H18C18 17.5523 17.5523 18 17 18V20ZM11 5V15H13V5H11ZM12.7071 14.2929L10.7071 12.2929L9.29289 13.7071L11.2929 15.7071L12.7071 14.2929ZM12.7071 15.7071L14.7071 13.7071L13.2929 12.2929L11.2929 14.2929L12.7071 15.7071Z" fill="white"/>
</svg>
