<svg width="24" height="24" viewBox="0 0 24 24" fill="none" xmlns="http://www.w3.org/2000/svg">
<circle cx="12" cy="12" r="9" stroke="white" stroke-width="2" stroke-linecap="round" stroke-linejoin="round"/>
<path d="M13.4251 11.023L12.8664 11.8524H12.8664L13.4251 11.023ZM12.0717 4.08265L11.2423 3.52395L11.2423 3.52395L12.0717 4.08265ZM18.2823 13.8805L17.4529 13.3218L18.2823 13.8805ZM17.8634 11.7323L18.4221 10.903L18.4221 10.903L17.8634 11.7323ZM17.1352 16.2168L16.1414 16.3273L17.1352 16.2168ZM13.9815 11.3484L13.533 12.2422L13.9815 11.3484ZM13.6439 3.81318C14.0664 3.45755 14.1207 2.82672 13.765 2.40417C13.4094 1.98162 12.7786 1.92738 12.356 2.28301L13.6439 3.81318ZM17.502 18.7348C17.9078 19.1094 18.5404 19.0841 18.915 18.6783C19.2896 18.2724 19.2643 17.6398 18.8585 17.2652L17.502 18.7348ZM12.8664 11.8524C13.0826 11.998 13.3053 12.1279 13.533 12.2422L14.43 10.4546C14.2782 10.3784 14.1291 10.2915 13.9838 10.1936L12.8664 11.8524ZM11.2423 3.52395C9.39093 6.27226 10.1181 10.001 12.8664 11.8524L13.9838 10.1936C12.1515 8.95938 11.6668 6.47354 12.901 4.64134L11.2423 3.52395ZM17.3047 12.5617C17.5555 12.7307 17.6219 13.071 17.4529 13.3218L19.1117 14.4392C19.8978 13.2723 19.589 11.689 18.4221 10.903L17.3047 12.5617ZM18.1291 16.1063C18.0923 15.7748 18.1663 15.6179 18.2854 15.4504C18.3671 15.3355 18.4653 15.2261 18.6194 15.0533C18.7601 14.8954 18.9445 14.6874 19.1117 14.4392L17.4529 13.3218C17.3699 13.4451 17.2689 13.5627 17.1265 13.7224C16.9974 13.8672 16.8148 14.0672 16.6554 14.2914C16.2922 14.8022 16.0429 15.442 16.1414 16.3273L18.1291 16.1063ZM13.533 12.2422C14.813 12.8844 15.7614 12.7732 16.4759 12.6226C17.1953 12.4709 17.1795 12.4774 17.3047 12.5617L18.4221 10.903C17.4544 10.2511 16.507 10.572 16.0632 10.6656C15.6146 10.7602 15.1685 10.8252 14.43 10.4546L13.533 12.2422ZM12.356 2.28301C11.9376 2.63515 11.5615 3.0501 11.2423 3.52395L12.901 4.64134C13.1154 4.32318 13.3663 4.04683 13.6439 3.81318L12.356 2.28301ZM16.1414 16.3273C16.2562 17.36 16.8775 18.1584 17.502 18.7348L18.8585 17.2652C18.3895 16.8323 18.167 16.4471 18.1291 16.1063L16.1414 16.3273Z" fill="white"/>
<path d="M6.80601 11.1259L6.00778 11.7283L6.80601 11.1259ZM9.35655 16.7874L10.1548 16.1851L9.35655 16.7874ZM7.79785 14.5504L8.79441 14.6333L7.79785 14.5504ZM8.6794 16.1526L9.22764 15.3163L8.6794 16.1526ZM4.23645 8.30839C3.69983 8.1778 3.15895 8.50695 3.02836 9.04357C2.89777 9.5802 3.22692 10.1211 3.76355 10.2517L4.23645 8.30839ZM8.33417 19.6946C7.92211 20.0623 7.88617 20.6945 8.2539 21.1065C8.62162 21.5186 9.25377 21.5545 9.66583 21.1868L8.33417 19.6946ZM6.00778 11.7283C6.6247 12.5458 6.88 13.521 6.80129 14.4675L8.79441 14.6333C8.9123 13.2157 8.52866 11.7486 7.60424 10.5236L6.00778 11.7283ZM8.13116 16.989C8.2902 17.0932 8.43523 17.2267 8.55832 17.3898L10.1548 16.1851C9.89122 15.8358 9.57627 15.5449 9.22764 15.3163L8.13116 16.989ZM6.80129 14.4675C6.71039 15.5605 7.39496 16.5064 8.13116 16.989L9.22764 15.3163C8.91314 15.1102 8.78118 14.7923 8.79441 14.6333L6.80129 14.4675ZM3.76355 10.2517C4.6294 10.4624 5.42882 10.9611 6.00778 11.7283L7.60424 10.5236C6.73718 9.37457 5.53436 8.62424 4.23645 8.30839L3.76355 10.2517ZM8.55832 17.3898C9.09824 18.1053 8.99084 19.1086 8.33417 19.6946L9.66583 21.1868C11.0927 19.9135 11.3269 17.7383 10.1548 16.1851L8.55832 17.3898Z" fill="white"/>
</svg>
