<svg width="24" height="24" viewBox="0 0 24 24" fill="none" xmlns="http://www.w3.org/2000/svg">
<path d="M12 4.99997C12.5523 4.99997 13 4.55226 13 3.99997C13 3.44769 12.5523 2.99997 12 2.99997V4.99997ZM21 12C21 11.4477 20.5523 11 20 11C19.4477 11 19 11.4477 19 12H21ZM8.41422 15.5858L7.43364 15.3897C7.36807 15.7176 7.47069 16.0565 7.70712 16.2929C7.94354 16.5294 8.28248 16.632 8.61034 16.5664L8.41422 15.5858ZM11.356 14.9975L11.5521 15.9781H11.5521L11.356 14.9975ZM9.00257 12.6441L9.98315 12.8402L9.00257 12.6441ZM16.6715 4.50001L17.3786 5.20711L17.3786 5.20711L16.6715 4.50001ZM9.54951 11.6221L8.8424 10.915L8.8424 10.915L9.54951 11.6221ZM19.5 7.32842L20.2071 8.03552V8.03552L19.5 7.32842ZM12.3779 14.4505L11.6708 13.7434H11.6708L12.3779 14.4505ZM18 19H6V21H18V19ZM5 18V5.99997H3V18H5ZM6 4.99997H12V2.99997H6V4.99997ZM19 12V18H21V12H19ZM8.61034 16.5664L11.5521 15.9781L11.1598 14.0169L8.21811 14.6053L8.61034 16.5664ZM8.02199 12.448L7.43364 15.3897L9.3948 15.7819L9.98315 12.8402L8.02199 12.448ZM9.98315 12.8402C10.0219 12.6466 10.117 12.4688 10.2566 12.3292L8.8424 10.915C8.42361 11.3338 8.13815 11.8672 8.02199 12.448L9.98315 12.8402ZM20.2071 3.79289C19.0355 2.62131 17.136 2.62132 15.9644 3.79291L17.3786 5.20711C17.7692 4.81658 18.4023 4.81658 18.7928 5.20711L20.2071 3.79289ZM18.7928 5.20711C19.1834 5.59763 19.1834 6.23079 18.7929 6.62132L20.2071 8.03552C21.3786 6.86394 21.3786 4.96446 20.2071 3.79289L18.7928 5.20711ZM11.5521 15.9781C12.1329 15.8619 12.6663 15.5764 13.0851 15.1576L11.6708 13.7434C11.5312 13.883 11.3534 13.9782 11.1598 14.0169L11.5521 15.9781ZM18.7929 6.62131L17.7071 7.70707L19.1213 9.12128L20.2071 8.03552L18.7929 6.62131ZM17.7071 7.70707L11.6708 13.7434L13.0851 15.1576L19.1213 9.12128L17.7071 7.70707ZM15.9644 3.79291L14.8787 4.87865L16.2929 6.29285L17.3786 5.20711L15.9644 3.79291ZM14.8787 4.87865L8.8424 10.915L10.2566 12.3292L16.2929 6.29285L14.8787 4.87865ZM19.1213 7.70707L16.2929 4.87864L14.8787 6.29285L17.7071 9.12128L19.1213 7.70707ZM6 19C5.44772 19 5 18.5523 5 18H3C3 19.6568 4.34315 21 6 21V19ZM18 21C19.6569 21 21 19.6568 21 18H19C19 18.5523 18.5523 19 18 19V21ZM5 5.99997C5 5.44769 5.44772 4.99997 6 4.99997V2.99997C4.34315 2.99997 3 4.34312 3 5.99997H5Z" fill="white"/>
</svg>
