<svg width="24" height="24" viewBox="0 0 24 24" fill="none" xmlns="http://www.w3.org/2000/svg">
<path d="M20 15C20 14.4477 19.5523 14 19 14C18.4477 14 18 14.4477 18 15H20ZM6 15C6 14.4477 5.55228 14 5 14C4.44772 14 4 14.4477 4 15H6ZM11 15C11 15.5523 11.4477 16 12 16C12.5523 16 13 15.5523 13 15H11ZM12 5L12.7071 4.29289C12.3166 3.90237 11.6834 3.90237 11.2929 4.29289L12 5ZM13.2929 7.70711C13.6834 8.09763 14.3166 8.09763 14.7071 7.70711C15.0976 7.31658 15.0976 6.68342 14.7071 6.29289L13.2929 7.70711ZM9.29289 6.29289C8.90237 6.68342 8.90237 7.31658 9.29289 7.70711C9.68342 8.09763 10.3166 8.09763 10.7071 7.70711L9.29289 6.29289ZM17 18H7V20H17V18ZM20 17V15H18V17H20ZM6 17V15H4V17H6ZM7 18C6.44772 18 6 17.5523 6 17H4C4 18.6569 5.34315 20 7 20V18ZM17 20C18.6569 20 20 18.6569 20 17H18C18 17.5523 17.5523 18 17 18V20ZM13 15L13 5L11 5L11 15H13ZM11.2929 5.70711L13.2929 7.70711L14.7071 6.29289L12.7071 4.29289L11.2929 5.70711ZM11.2929 4.29289L9.29289 6.29289L10.7071 7.70711L12.7071 5.70711L11.2929 4.29289Z" fill="white"/>
</svg>
