<svg width="24" height="24" viewBox="0 0 24 24" fill="none" xmlns="http://www.w3.org/2000/svg">
<path d="M4 4L20 20" stroke="white" stroke-width="2" stroke-linecap="round"/>
<path fill-rule="evenodd" clip-rule="evenodd" d="M6.22308 5.63732C4.19212 6.89322 2.60069 8.79137 1.73175 11.0474C1.49567 11.6604 1.49567 12.3396 1.73175 12.9526C3.31889 17.0733 7.31641 20 12 20C14.422 20 16.6606 19.2173 18.4773 17.8915L17.042 16.4562C15.6033 17.4309 13.8678 18 12 18C8.17084 18 4.89784 15.6083 3.5981 12.2337C3.54022 12.0835 3.54022 11.9165 3.5981 11.7663C4.36731 9.76914 5.82766 8.11625 7.6854 7.09964L6.22308 5.63732ZM9.47955 8.89379C8.5768 9.6272 7.99997 10.7462 7.99997 12C7.99997 14.2091 9.79083 16 12 16C13.2537 16 14.3728 15.4232 15.1062 14.5204L13.6766 13.0908C13.3197 13.6382 12.7021 14 12 14C10.8954 14 9.99997 13.1046 9.99997 12C9.99997 11.2979 10.3618 10.6802 10.9091 10.3234L9.47955 8.89379ZM15.9627 12.5485L11.4515 8.03729C11.6308 8.0127 11.8139 8 12 8C14.2091 8 16 9.79086 16 12C16 12.1861 15.9873 12.3692 15.9627 12.5485ZM18.5678 15.1536C19.3538 14.3151 19.9812 13.3259 20.4018 12.2337C20.4597 12.0835 20.4597 11.9165 20.4018 11.7663C19.1021 8.39172 15.8291 6 12 6C11.2082 6 10.4402 6.10226 9.70851 6.29433L8.11855 4.70437C9.32541 4.24913 10.6335 4 12 4C16.6835 4 20.681 6.92668 22.2682 11.0474C22.5043 11.6604 22.5043 12.3396 22.2682 12.9526C21.7464 14.3074 20.964 15.5331 19.9824 16.5682L18.5678 15.1536Z" fill="white"/>
</svg>
