<svg width="24" height="24" viewBox="0 0 24 24" fill="none" xmlns="http://www.w3.org/2000/svg">
<path fill-rule="evenodd" clip-rule="evenodd" d="M9.50797 21.9699V20.3079H11.169V18.6469H12.831V21.9699H11.169V23.6309H7.84597V21.9699H6.18397V20.3079H7.84597V21.9699H9.50797ZM6.18397 18.6469H4.52297V20.3079H6.18397V18.6469ZM14.492 16.9849H12.831V18.6469H14.492V16.9849ZM2.86097 16.9849V13.6619H1.19897V16.9849H2.86097V18.6469H4.52297V16.9849H2.86097ZM16.154 15.3229H14.492V16.9849H16.154V15.3229H17.816V13.6619H16.154V15.3229ZM6.18397 8.6769V10.3379H4.52297V11.9999H2.86097V13.6619H4.52297V11.9999H6.18397V10.3379H7.84597V8.6769H6.18397ZM19.477 11.9999H21.139V13.6619H17.816V10.3379H19.477V7.0149H17.816V5.3529H19.477V7.0149H21.139V8.6769H22.801V11.9999H21.139V10.3379H19.477V11.9999ZM17.816 8.6769H16.154V10.3379H17.816V8.6769ZM9.50797 7.0149H7.84597V8.6769H9.50797V7.0149ZM14.492 5.3529H12.831V2.0299H14.492V3.6919H16.154V5.3529H17.816V3.6919H16.154V2.0299H14.492V0.368896H12.831V2.0299H11.169V5.3529H12.831V7.0149H14.492V8.6769H16.154V7.0149H14.492V5.3529ZM11.169 5.3529H9.50797V7.0149H11.169V5.3529Z" fill="black" fill-opacity="0.75"/>
<path fill-rule="evenodd" clip-rule="evenodd" d="M6.18408 18.6469H7.84608V20.3079H9.50808V18.6469H7.84608V16.9849H6.18408V18.6469ZM6.18408 15.3229H4.52308V16.9849H6.18408V15.3229ZM12.8311 13.6619H9.50808V15.3229H12.8311V13.6619ZM4.52308 13.6619H2.86108V15.3229H4.52308V13.6619ZM9.50808 11.9999H7.84608V13.6619H9.50808V11.9999ZM16.1541 10.3379H12.8311V11.9999H16.1541V10.3379ZM12.8311 8.67689H11.1691V10.3379H12.8311V8.67689ZM11.1691 7.01489H9.50808V8.67689H11.1691V7.01489Z" fill="white" fill-opacity="0.8"/>
<path fill-rule="evenodd" clip-rule="evenodd" d="M9.50808 20.3079H7.84608V21.9699H9.50808V20.3079ZM11.1691 18.6469H9.50808V20.3079H11.1691V18.6469ZM4.52308 18.6469H6.18408V20.3079H7.84608V18.6469H6.18408V16.9849H4.52308V18.6469ZM14.4921 15.3229H11.1691V18.6469H12.8311V16.9849H14.4921V15.3229ZM4.52308 15.3229H2.86108V16.9849H4.52308V15.3229ZM17.8161 8.67692V10.3379H16.1541V11.9999H14.4921V15.3229H16.1541V13.6619H17.8161V10.3379H19.4771V8.67692H17.8161ZM21.1391 10.3379H19.4771V11.9999H21.1391V10.3379ZM17.8161 7.01492H16.1541V8.67692H17.8161V7.01492ZM16.1541 5.35292H14.4921V7.01492H16.1541V5.35292ZM14.4921 3.66992H12.8311V5.33092H14.4921V3.66992Z" fill="white" fill-opacity="0.6"/>
<path fill-rule="evenodd" clip-rule="evenodd" d="M11.1689 10.338H12.8309V12H14.4919V15.323H12.8309V13.662H9.50795V11.989L7.84595 12V13.662H9.50795V15.323H11.1689V18.647H7.84595V16.985H6.18395V15.323H4.52295V12H6.18395V10.338H7.84595V8.67703H11.1689V5.35303H12.8309V7.01503H14.4919V8.67703H16.1539V10.338H12.8309V8.67703H11.1689V10.338ZM17.8159 7.01503H19.4769V8.65503L17.8159 8.67703V7.01503ZM16.1539 5.35303H17.8159V6.99303L16.1539 7.01503V5.35303ZM14.4919 3.69203H16.1539V5.33103L14.4919 5.35303V3.69203ZM12.8309 2.03003H14.4919V3.67003L12.8309 3.69203V2.03003Z" fill="white"/>
</svg>
