<svg width="24" height="24" viewBox="0 0 24 24" fill="none" xmlns="http://www.w3.org/2000/svg">
<path d="M12 7L11.2929 7.70711C11.4804 7.89464 11.7348 8 12 8V7ZM10.2929 5.29289L11 4.58579L10.2929 5.29289ZM2 7V17H4V7H2ZM5 20H19V18H5V20ZM22 17V9H20V17H22ZM19 6H12V8H19V6ZM12.7071 6.29289L11 4.58579L9.58579 6L11.2929 7.70711L12.7071 6.29289ZM9.58579 4H5V6H9.58579V4ZM22 9C22 7.34315 20.6569 6 19 6V8C19.5523 8 20 8.44772 20 9H22ZM19 20C20.6569 20 22 18.6569 22 17H20C20 17.5523 19.5523 18 19 18V20ZM2 17C2 18.6569 3.34315 20 5 20V18C4.44772 18 4 17.5523 4 17H2ZM11 4.58579C10.6249 4.21071 10.1162 4 9.58579 4V6V6L11 4.58579ZM4 7C4 6.44772 4.44772 6 5 6V4C3.34315 4 2 5.34315 2 7H4Z" fill="white"/>
</svg>
