<svg width="24" height="24" viewBox="0 0 24 24" fill="none" xmlns="http://www.w3.org/2000/svg">
<path fill-rule="evenodd" clip-rule="evenodd" d="M10.6044 6.13313C9.09351 4.62229 6.64396 4.62229 5.13313 6.13313C3.62229 7.64396 3.62229 10.0935 5.13313 11.6044L12 18.4712L18.8669 11.6044C20.3777 10.0935 20.3777 7.64396 18.8669 6.13313C17.356 4.62229 14.9065 4.62229 13.3957 6.13313L12.7071 6.82167C12.3166 7.21219 11.6834 7.2122 11.2929 6.82167L10.6044 6.13313ZM12 4.70043C9.70666 2.42704 6.00462 2.43321 3.71891 4.71891C1.42703 7.0108 1.42703 10.7267 3.71891 13.0186L11.2929 20.5925C11.4804 20.7801 11.7348 20.8854 12 20.8854C12.2652 20.8854 12.5196 20.7801 12.7071 20.5925L20.2811 13.0186C22.573 10.7267 22.573 7.0108 20.2811 4.71891C17.9954 2.43321 14.2933 2.42705 12 4.70043Z" fill="white"/>
</svg>
