<svg width="24" height="24" viewBox="0 0 24 24" fill="none" xmlns="http://www.w3.org/2000/svg">
<path d="M4.42602 12.3115L12 19.8854L19.574 12.3115C21.4753 10.4101 21.4753 7.32738 19.574 5.42602C17.6726 3.52466 14.5899 3.52466 12.6885 5.42602L12 6.11456L11.3115 5.42602C9.4101 3.52466 6.32738 3.52466 4.42602 5.42602C2.52466 7.32738 2.52466 10.4101 4.42602 12.3115Z" stroke="white" stroke-width="2" stroke-linejoin="round"/>
<path d="M12.8944 6.44722C13.1414 5.95324 12.9412 5.35257 12.4472 5.10557C11.9532 4.85858 11.3526 5.0588 11.1056 5.55278L12.8944 6.44722ZM10 9.99995L9.10557 9.55273C8.96993 9.82403 8.96474 10.1422 9.09148 10.4178C9.21823 10.6934 9.46319 10.8965 9.75745 10.9701L10 9.99995ZM14 11L14.8321 11.5547C15.0124 11.2841 15.05 10.9427 14.9327 10.6394C14.8155 10.3361 14.558 10.1087 14.2425 10.0299L14 11ZM11.1679 13.4453C10.8616 13.9048 10.9858 14.5257 11.4453 14.8321C11.9048 15.1384 12.5257 15.0142 12.8321 14.5547L11.1679 13.4453ZM11.1056 5.55278L9.10557 9.55273L10.8944 10.4472L12.8944 6.44722L11.1056 5.55278ZM9.75745 10.9701L13.7575 11.9701L14.2425 10.0299L10.2425 9.02981L9.75745 10.9701ZM13.1679 10.4453L11.1679 13.4453L12.8321 14.5547L14.8321 11.5547L13.1679 10.4453Z" fill="white"/>
</svg>
