<svg width="24" height="24" viewBox="0 0 24 24" fill="none" xmlns="http://www.w3.org/2000/svg">
<path d="M19.2929 12.7071C19.6834 13.0976 20.3166 13.0976 20.7071 12.7071C21.0976 12.3166 21.0976 11.6834 20.7071 11.2929L19.2929 12.7071ZM3.29289 11.2929C2.90237 11.6834 2.90237 12.3166 3.29289 12.7071C3.68342 13.0976 4.31658 13.0976 4.70711 12.7071L3.29289 11.2929ZM18.5 6C18.5 5.44772 18.0523 5 17.5 5C16.9477 5 16.5 5.44772 16.5 6H18.5ZM13 15C13 14.4477 12.5523 14 12 14C11.4477 14 11 14.4477 11 15H13ZM12.7071 4.70711L12 5.41421L12.7071 4.70711ZM17.2222 10.2222V18H19.2222V10.2222H17.2222ZM6.77778 18V10.2222H4.77778V18H6.77778ZM6.48488 10.9293L12 5.41421L10.5858 4L5.07067 9.51512L6.48488 10.9293ZM17.5151 10.9293L19.2929 12.7071L20.7071 11.2929L18.9293 9.51512L17.5151 10.9293ZM5.07067 9.51512L3.29289 11.2929L4.70711 12.7071L6.48488 10.9293L5.07067 9.51512ZM12 5.41421L16.7929 10.2071L18.2071 8.79289L13.4142 4L12 5.41421ZM16.7929 10.2071L17.5151 10.9293L18.9293 9.51512L18.2071 8.79289L16.7929 10.2071ZM18.5 9.5V6H16.5V9.5H18.5ZM16.2222 19H12V21H16.2222V19ZM12 19H7.77778V21H12V19ZM13 20V15H11V20H13ZM12 5.41421V5.41421L13.4142 4C12.6332 3.21895 11.3668 3.21895 10.5858 4L12 5.41421ZM4.77778 18C4.77778 19.6569 6.12092 21 7.77778 21V19C7.22549 19 6.77778 18.5523 6.77778 18H4.77778ZM17.2222 18C17.2222 18.5523 16.7745 19 16.2222 19V21C17.8791 21 19.2222 19.6569 19.2222 18H17.2222Z" fill="white"/>
</svg>
