<svg width="24" height="24" viewBox="0 0 24 24" fill="none" xmlns="http://www.w3.org/2000/svg">
<path d="M14 12H19V10H14V12ZM19 12V19H21V12H19ZM19 19H14V21H19V19ZM14 19V12H12V19H14ZM5 5H9V3H5V5ZM9 5V12H11V5H9ZM9 12H5V14H9V12ZM5 12V5H3V12H5ZM5 12H3C3 13.1046 3.89543 14 5 14V12ZM9 12V14C10.1046 14 11 13.1046 11 12H9ZM9 5H11C11 3.89543 10.1046 3 9 3V5ZM5 3C3.89543 3 3 3.89543 3 5H5V3ZM5 17H9V15H5V17ZM9 17V19H11V17H9ZM9 19H5V21H9V19ZM5 19V17H3V19H5ZM5 19H3C3 20.1046 3.89543 21 5 21V19ZM9 19V21C10.1046 21 11 20.1046 11 19H9ZM9 17H11C11 15.8954 10.1046 15 9 15V17ZM5 15C3.89543 15 3 15.8954 3 17H5V15ZM14 5H19V3H14V5ZM19 5V7H21V5H19ZM19 7H14V9H19V7ZM14 7V5H12V7H14ZM14 7H12C12 8.10457 12.8954 9 14 9V7ZM19 7V9C20.1046 9 21 8.10457 21 7H19ZM19 5H21C21 3.89543 20.1046 3 19 3V5ZM14 3C12.8954 3 12 3.89543 12 5H14V3ZM14 19H12C12 20.1046 12.8954 21 14 21V19ZM19 19V21C20.1046 21 21 20.1046 21 19H19ZM19 12H21C21 10.8954 20.1046 10 19 10V12ZM14 10C12.8954 10 12 10.8954 12 12H14V10Z" fill="white"/>
</svg>
