<svg width="20" height="20" viewBox="0 0 20 20" fill="none" xmlns="http://www.w3.org/2000/svg"><path d="M8.25 16L8.85 15.55L8.25 16ZM7.73458 15.3871L8.21514 14.8113L7.73458 15.3871ZM7.04959 15.0446L7.2219 14.3146L7.04959 15.0446ZM2.6903 13.4567L1.99739 13.7437L2.6903 13.4567ZM4.04329 14.8097L3.75628 15.5026L4.04329 14.8097ZM12.9504 15.0446L12.7781 14.3146L12.9504 15.0446ZM11.75 16L11.15 15.55L11.75 16ZM12.2654 15.3871L11.7849 14.8113L12.2654 15.3871ZM10.151 18.0272L10.4229 18.7262L10.151 18.0272ZM9.46667 17.6222L8.86667 18.0722L9.46667 17.6222ZM9.84897 18.0272L9.57712 18.7262L9.84897 18.0272ZM17.3097 13.4567L18.0026 13.7437L17.3097 13.4567ZM15.9567 14.8097L16.2437 15.5026L15.9567 14.8097ZM16.135 2.77248L16.4755 2.10423L16.135 2.77248ZM17.2275 3.86502L17.8958 3.52453L17.2275 3.86502ZM3.86502 2.77248L3.52453 2.10423L3.86502 2.77248ZM2.77248 3.86502L2.10423 3.52453L2.77248 3.86502ZM9.25 11.6667C9.25 12.0809 9.58579 12.4167 10 12.4167C10.4142 12.4167 10.75 12.0809 10.75 11.6667H9.25ZM10.75 8.75C10.75 8.33579 10.4142 8 10 8C9.58579 8 9.25 8.33579 9.25 8.75H10.75ZM10 5.08333C9.58579 5.08333 9.25 5.41912 9.25 5.83333C9.25 6.24755 9.58579 6.58333 10 6.58333V5.08333ZM10.0083 6.58333C10.4225 6.58333 10.7583 6.24755 10.7583 5.83333C10.7583 5.41912 10.4225 5.08333 10.0083 5.08333V6.58333ZM6.5 3.25H13.5V1.75H6.5V3.25ZM16.75 6.5V11.25H18.25V6.5H16.75ZM11.15 15.55L9.93333 17.1722L11.1333 18.0722L12.35 16.45L11.15 15.55ZM3.25 11.25V6.5H1.75V11.25H3.25ZM10.0667 17.1722L8.85 15.55L7.65 16.45L8.86667 18.0722L10.0667 17.1722ZM8.85 15.55C8.6273 15.2531 8.44693 15.0047 8.21514 14.8113L7.25402 15.9629C7.3202 16.0181 7.38412 16.0955 7.65 16.45L8.85 15.55ZM6.25 15.75C6.69314 15.75 6.79337 15.7547 6.87727 15.7745L7.2219 14.3146C6.92807 14.2453 6.62116 14.25 6.25 14.25V15.75ZM8.21514 14.8113C7.9271 14.5709 7.58704 14.4008 7.2219 14.3146L6.87727 15.7745C7.01578 15.8072 7.14476 15.8717 7.25402 15.9629L8.21514 14.8113ZM1.75 11.25C1.75 11.8222 1.74959 12.2889 1.77553 12.6689C1.80192 13.0558 1.85808 13.4074 1.99739 13.7437L3.38321 13.1697C3.33222 13.0466 3.29323 12.8773 3.27205 12.5668C3.25041 12.2496 3.25 11.8427 3.25 11.25H1.75ZM6.25 14.25C5.65731 14.25 5.25036 14.2496 4.93316 14.228C4.62271 14.2068 4.4534 14.1678 4.3303 14.1168L3.75628 15.5026C4.09261 15.6419 4.44423 15.6981 4.83106 15.7245C5.21115 15.7504 5.67783 15.75 6.25 15.75V14.25ZM1.99739 13.7437C2.32725 14.5401 2.95994 15.1728 3.75628 15.5026L4.3303 14.1168C3.9015 13.9392 3.56083 13.5985 3.38321 13.1697L1.99739 13.7437ZM13.75 14.25C13.3788 14.25 13.0719 14.2453 12.7781 14.3146L13.1227 15.7745C13.2066 15.7547 13.3069 15.75 13.75 15.75V14.25ZM12.35 16.45C12.6159 16.0955 12.6798 16.0181 12.746 15.9629L11.7849 14.8113C11.5531 15.0047 11.3727 15.2531 11.15 15.55L12.35 16.45ZM12.7781 14.3146C12.413 14.4008 12.0729 14.5709 11.7849 14.8113L12.746 15.9629C12.8552 15.8717 12.9842 15.8072 13.1227 15.7745L12.7781 14.3146ZM9.93333 17.1722C9.88699 17.234 9.85152 17.2813 9.82055 17.3211C9.78945 17.3612 9.77033 17.3841 9.7583 17.3975C9.73002 17.4289 9.77399 17.3691 9.87918 17.3282L10.4229 18.7262C10.639 18.6422 10.7836 18.5005 10.8735 18.4006C10.9603 18.3041 11.0512 18.1817 11.1333 18.0722L9.93333 17.1722ZM8.86667 18.0722C8.94877 18.1817 9.03973 18.3041 9.12646 18.4006C9.21637 18.5005 9.36102 18.6422 9.57712 18.7262L10.1208 17.3282C10.226 17.3691 10.27 17.4289 10.2417 17.3975C10.2297 17.3841 10.2105 17.3612 10.1794 17.3211C10.1485 17.2813 10.113 17.234 10.0667 17.1722L8.86667 18.0722ZM9.87918 17.3282C9.95689 17.298 10.0431 17.298 10.1208 17.3282L9.57712 18.7262C9.84912 18.832 10.1509 18.832 10.4229 18.7262L9.87918 17.3282ZM16.75 11.25C16.75 11.8427 16.7496 12.2496 16.728 12.5668C16.7068 12.8773 16.6678 13.0466 16.6168 13.1697L18.0026 13.7437C18.1419 13.4074 18.1981 13.0558 18.2245 12.6689C18.2504 12.2889 18.25 11.8222 18.25 11.25H16.75ZM13.75 15.75C14.3222 15.75 14.7889 15.7504 15.1689 15.7245C15.5558 15.6981 15.9074 15.6419 16.2437 15.5026L15.6697 14.1168C15.5466 14.1678 15.3773 14.2068 15.0668 14.228C14.7496 14.2496 14.3427 14.25 13.75 14.25V15.75ZM16.6168 13.1697C16.4392 13.5985 16.0985 13.9392 15.6697 14.1168L16.2437 15.5026C17.0401 15.1728 17.6728 14.5401 18.0026 13.7437L16.6168 13.1697ZM13.5 3.25C14.2124 3.25 14.7017 3.25058 15.0809 3.28157C15.4514 3.31184 15.6504 3.36735 15.7945 3.44074L16.4755 2.10423C16.0847 1.90514 15.6663 1.8244 15.2031 1.78655C14.7486 1.74942 14.1877 1.75 13.5 1.75V3.25ZM18.25 6.5C18.25 5.81231 18.2506 5.25144 18.2134 4.79693C18.1756 4.33367 18.0949 3.91527 17.8958 3.52453L16.5593 4.20552C16.6327 4.34956 16.6882 4.54858 16.7184 4.91908C16.7494 5.29833 16.75 5.78756 16.75 6.5H18.25ZM15.7945 3.44074C16.1238 3.60852 16.3915 3.87623 16.5593 4.20552L17.8958 3.52453C17.5842 2.913 17.087 2.41582 16.4755 2.10423L15.7945 3.44074ZM6.5 1.75C5.81231 1.75 5.25144 1.74942 4.79693 1.78655C4.33367 1.8244 3.91527 1.90514 3.52453 2.10423L4.20552 3.44074C4.34956 3.36735 4.54858 3.31184 4.91908 3.28157C5.29833 3.25058 5.78756 3.25 6.5 3.25V1.75ZM3.25 6.5C3.25 5.78756 3.25058 5.29833 3.28157 4.91908C3.31184 4.54858 3.36735 4.34956 3.44074 4.20552L2.10423 3.52453C1.90514 3.91527 1.8244 4.33367 1.78655 4.79693C1.74942 5.25144 1.75 5.81231 1.75 6.5H3.25ZM3.52453 2.10423C2.913 2.41582 2.41582 2.913 2.10423 3.52453L3.44074 4.20552C3.60852 3.87623 3.87623 3.60852 4.20552 3.44074L3.52453 2.10423ZM10.75 11.6667V8.75H9.25V11.6667H10.75ZM10 6.58333H10.0083V5.08333H10V6.58333Z" fill="white"/></svg>