<svg width="24" height="24" viewBox="0 0 24 24" fill="none" xmlns="http://www.w3.org/2000/svg">
<path d="M6.95611 18.399L7.66321 17.6919L6.95611 18.399ZM5.41421 16.8571L4.7071 17.5642H4.70711L5.41421 16.8571ZM5.41421 14.0287L4.70711 13.3216H4.70711L5.41421 14.0287ZM18.399 6.95611L17.6919 7.66321L18.399 6.95611ZM16.8571 5.41421L17.5642 4.70711V4.7071L16.8571 5.41421ZM14.0287 5.41421L13.3216 4.70711V4.70711L14.0287 5.41421ZM9.07743 11.7797C9.46795 11.3891 9.46795 10.756 9.07743 10.3654C8.6869 9.97492 8.05374 9.97492 7.66321 10.3654L9.07743 11.7797ZM13.4477 16.15C13.8383 15.7595 13.8383 15.1263 13.4477 14.7358C13.0572 14.3452 12.4241 14.3452 12.0335 14.7358L13.4477 16.15ZM10.3654 7.66321C9.97492 8.05374 9.97492 8.6869 10.3654 9.07743C10.756 9.46795 11.3891 9.46795 11.7797 9.07743L10.3654 7.66321ZM14.7358 12.0335C14.3452 12.4241 14.3452 13.0572 14.7358 13.4477C15.1263 13.8383 15.7595 13.8383 16.15 13.4477L14.7358 12.0335ZM5.94173 7.35594C6.33225 7.74646 6.96541 7.74646 7.35594 7.35594C7.74646 6.96541 7.74646 6.33225 7.35594 5.94173L5.94173 7.35594ZM5.59006 4.17585C5.19954 3.78532 4.56637 3.78532 4.17585 4.17585C3.78532 4.56637 3.78532 5.19954 4.17585 5.59006L5.59006 4.17585ZM18.3921 19.8063C18.7826 20.1968 19.4158 20.1968 19.8063 19.8063C20.1968 19.4158 20.1968 18.7826 19.8063 18.3921L18.3921 19.8063ZM18.0404 16.6262C17.6499 16.2357 17.0167 16.2357 16.6262 16.6262C16.2357 17.0167 16.2357 17.6499 16.6262 18.0404L18.0404 16.6262ZM8.35119 5.87299C8.35119 6.42528 8.7989 6.87299 9.35119 6.87299C9.90347 6.87299 10.3512 6.42528 10.3512 5.87299H8.35119ZM10.3512 4C10.3512 3.44772 9.90347 3 9.35119 3C8.7989 3 8.35119 3.44772 8.35119 4H10.3512ZM13.6488 20C13.6488 20.5523 14.0965 21 14.6488 21C15.2011 21 15.6488 20.5523 15.6488 20H13.6488ZM15.6488 18.127C15.6488 17.5747 15.2011 17.127 14.6488 17.127C14.0965 17.127 13.6488 17.5747 13.6488 18.127H15.6488ZM5.87299 10.3512C6.42528 10.3512 6.87299 9.90347 6.87299 9.35119C6.87299 8.7989 6.42528 8.35119 5.87299 8.35119V10.3512ZM4 8.35119C3.44772 8.35119 3 8.7989 3 9.35119C3 9.90347 3.44772 10.3512 4 10.3512V8.35119ZM20 15.6488C20.5523 15.6488 21 15.2011 21 14.6488C21 14.0965 20.5523 13.6488 20 13.6488V15.6488ZM18.127 13.6488C17.5747 13.6488 17.127 14.0965 17.127 14.6488C17.127 15.2011 17.5747 15.6488 18.127 15.6488V13.6488ZM7.66321 17.6919L6.12132 16.15L4.70711 17.5642L6.249 19.1061L7.66321 17.6919ZM6.249 19.1061C7.42057 20.2777 9.32007 20.2777 10.4916 19.1061L9.07743 17.6919C8.6869 18.0824 8.05374 18.0824 7.66321 17.6919L6.249 19.1061ZM6.12132 16.15C5.7308 15.7595 5.73079 15.1263 6.12132 14.7358L4.70711 13.3216C3.53554 14.4931 3.53553 16.3926 4.7071 17.5642L6.12132 16.15ZM19.1061 6.249L17.5642 4.70711L16.15 6.12132L17.6919 7.66321L19.1061 6.249ZM17.6919 7.66321C18.0824 8.05374 18.0824 8.6869 17.6919 9.07743L19.1061 10.4916C20.2777 9.32007 20.2777 7.42057 19.1061 6.249L17.6919 7.66321ZM17.5642 4.7071C16.3926 3.53553 14.4931 3.53554 13.3216 4.70711L14.7358 6.12132C15.1263 5.73079 15.7595 5.7308 16.15 6.12132L17.5642 4.7071ZM6.12132 14.7358L9.07743 11.7797L7.66321 10.3654L4.70711 13.3216L6.12132 14.7358ZM12.0335 14.7358L9.07743 17.6919L10.4916 19.1061L13.4477 16.15L12.0335 14.7358ZM13.3216 4.70711L10.3654 7.66321L11.7797 9.07743L14.7358 6.12132L13.3216 4.70711ZM16.15 13.4477L19.1061 10.4916L17.6919 9.07743L14.7358 12.0335L16.15 13.4477ZM7.35594 5.94173L5.59006 4.17585L4.17585 5.59006L5.94173 7.35594L7.35594 5.94173ZM19.8063 18.3921L18.0404 16.6262L16.6262 18.0404L18.3921 19.8063L19.8063 18.3921ZM10.3512 5.87299V4H8.35119V5.87299H10.3512ZM15.6488 20V18.127H13.6488V20H15.6488ZM5.87299 8.35119H4V10.3512H5.87299V8.35119ZM20 13.6488H18.127V15.6488H20V13.6488Z" fill="white"/>
</svg>
