<svg xmlns="http://www.w3.org/2000/svg" width="135.949" height="136.001" viewBox="0 0 135.949 136.001">
  <path id="key" d="M42.486,136A42.5,42.5,0,0,1,30.948,52.6a41.752,41.752,0,0,1,21.993-.272l44.812-44.8A25.5,25.5,0,0,1,115.921,0h0a20.055,20.055,0,0,1,20.038,20.038,25.546,25.546,0,0,1-7.525,18.173l-3.808,3.808a11.413,11.413,0,0,1-8.013,3.315h-8.987V51A11.333,11.333,0,0,1,96.291,62.334H90.625v8.987A11.254,11.254,0,0,1,87.3,79.334L83.62,83.018A41.56,41.56,0,0,1,83.354,105a42.665,42.665,0,0,1-36.426,30.765,43.37,43.37,0,0,1-4.443.232Zm0-73.667a31.167,31.167,0,1,0,29.971,39.61,30.6,30.6,0,0,0-.567-18.7,5.667,5.667,0,0,1,1.349-5.865l6.052-6.058V62.334A11.333,11.333,0,0,1,90.625,51h5.667V45.334A11.333,11.333,0,0,1,107.625,34h8.987l3.808-3.808a14.274,14.274,0,0,0,4.2-10.155,8.71,8.71,0,0,0-8.7-8.7,14.28,14.28,0,0,0-10.16,4.21l-47.209,47.2a5.667,5.667,0,0,1-5.871,1.343,30.951,30.951,0,0,0-10.228-1.757ZM28.291,102a5.667,5.667,0,1,0,5.667-5.667A5.667,5.667,0,0,0,28.291,102Z" transform="translate(-0.009)" fill="#dfe3ec"/>
</svg>
