<svg width="24" height="24" viewBox="0 0 24 24" fill="none" xmlns="http://www.w3.org/2000/svg">
<path d="M8.75 5C8.75 4.44772 9.19772 4 9.75 4H14.25C14.8023 4 15.25 4.44772 15.25 5V10.5H8.75V5Z" fill="white"/>
<path d="M1.5 12.5C1.5 11.9477 1.94772 11.5 2.5 11.5H8V18H2.5C1.94772 18 1.5 17.5523 1.5 17V12.5Z" fill="white"/>
<rect x="8.75" y="11.5" width="6.5" height="6.5" fill="white"/>
<path d="M16 11.5H21.5C22.0523 11.5 22.5 11.9477 22.5 12.5V17C22.5 17.5523 22.0523 18 21.5 18H16V11.5Z" fill="white"/>
</svg>
