<svg width="18" height="19" viewBox="0 0 18 19" fill="none" xmlns="http://www.w3.org/2000/svg">
<path d="M9 9.16357L15.75 9.16357M9 2.41357L9 15.9136M5.85 2.41357H12.15C13.4101 2.41357 14.0402 2.41357 14.5215 2.65881C14.9448 2.87452 15.289 3.21873 15.5048 3.6421C15.75 4.1234 15.75 4.75346 15.75 6.01357V12.3136C15.75 13.5737 15.75 14.2038 15.5048 14.6851C15.289 15.1084 14.9448 15.4526 14.5215 15.6683C14.0402 15.9136 13.4101 15.9136 12.15 15.9136H5.85C4.58988 15.9136 3.95982 15.9136 3.47852 15.6683C3.05516 15.4526 2.71095 15.1084 2.49524 14.6851C2.25 14.2038 2.25 13.5737 2.25 12.3136V6.01357C2.25 4.75346 2.25 4.1234 2.49524 3.6421C2.71095 3.21873 3.05516 2.87452 3.47852 2.65881C3.95982 2.41357 4.58988 2.41357 5.85 2.41357Z" stroke="white" stroke-width="1.5" stroke-linecap="round" stroke-linejoin="round"/>
</svg>
