<svg width="24" height="24" viewBox="0 0 24 24" fill="none" xmlns="http://www.w3.org/2000/svg">
<circle cx="12" cy="10" r="3" stroke="white" stroke-width="2" stroke-linecap="round" stroke-linejoin="round"/>
<path d="M19 9.75H18H19ZM12 21L11.3736 21.7795C11.7395 22.0735 12.2605 22.0735 12.6264 21.7795L12 21ZM18 9.75C18 12.192 16.4526 14.77 14.7304 16.8459C13.8887 17.8603 13.0444 18.7087 12.4098 19.3037C12.0931 19.6005 11.8303 19.8328 11.6483 19.9895C11.5574 20.0678 11.4867 20.1271 11.4398 20.1661C11.4163 20.1856 11.3988 20.2 11.3876 20.2091C11.382 20.2137 11.378 20.2169 11.3757 20.2188C11.3745 20.2198 11.3737 20.2204 11.3734 20.2207C11.3732 20.2208 11.3731 20.2209 11.3732 20.2208C11.3732 20.2208 11.3733 20.2207 11.3733 20.2207C11.3734 20.2206 11.3736 20.2205 12 21C12.6264 21.7795 12.6266 21.7793 12.6268 21.7791C12.627 21.7791 12.6272 21.7788 12.6275 21.7787C12.6279 21.7783 12.6285 21.7778 12.6292 21.7773C12.6305 21.7762 12.6323 21.7748 12.6345 21.773C12.6388 21.7694 12.6449 21.7645 12.6526 21.7583C12.6679 21.7458 12.6896 21.7279 12.7174 21.7048C12.773 21.6586 12.8528 21.5916 12.9532 21.5051C13.1541 21.3322 13.4381 21.0811 13.7777 20.7627C14.4556 20.1272 15.3613 19.2178 16.2696 18.1229C18.0474 15.98 20 12.933 20 9.75H18ZM12 21C12.6264 20.2205 12.6266 20.2206 12.6267 20.2207C12.6267 20.2207 12.6268 20.2208 12.6268 20.2208C12.6269 20.2209 12.6268 20.2208 12.6266 20.2207C12.6263 20.2204 12.6255 20.2198 12.6243 20.2188C12.622 20.2169 12.618 20.2137 12.6124 20.2091C12.6012 20.2 12.5837 20.1856 12.5602 20.1661C12.5133 20.1271 12.4426 20.0678 12.3517 19.9895C12.1697 19.8328 11.9069 19.6005 11.5902 19.3037C10.9556 18.7087 10.1113 17.8603 9.26962 16.8459C7.54738 14.77 6 12.192 6 9.75H4C4 12.933 5.95262 15.98 7.73038 18.1229C8.63875 19.2178 9.54444 20.1272 10.2223 20.7627C10.5619 21.0811 10.8459 21.3322 11.0468 21.5051C11.1472 21.5916 11.227 21.6586 11.2826 21.7048C11.3104 21.7279 11.3321 21.7458 11.3474 21.7583C11.3551 21.7645 11.3612 21.7694 11.3655 21.773C11.3677 21.7748 11.3695 21.7762 11.3708 21.7773C11.3715 21.7778 11.3721 21.7783 11.3725 21.7787C11.3728 21.7788 11.373 21.7791 11.3732 21.7791C11.3734 21.7793 11.3736 21.7795 12 21ZM6 9.75C6 6.60833 8.6517 4 12 4V2C7.61631 2 4 5.43583 4 9.75H6ZM12 4C15.3483 4 18 6.60833 18 9.75H20C20 5.43583 16.3837 2 12 2V4Z" fill="white"/>
</svg>
