<svg width="128" height="128" viewBox="0 0 128 128" fill="none" xmlns="http://www.w3.org/2000/svg">
<path fill-rule="evenodd" clip-rule="evenodd" d="M69 86.2454C70.8289 84.7792 72 82.5264 72 80C72 75.5817 68.4183 72 64 72C59.5817 72 56 75.5817 56 80C56 82.5264 57.1711 84.7792 59 86.2454L59 96C59 98.7614 61.2386 101 64 101C66.7614 101 69 98.7614 69 96V86.2454Z" fill="#D9D9D9" fill-opacity="0.7"/>
<path fill-rule="evenodd" clip-rule="evenodd" d="M98 57H31V118H98V57ZM31 47C25.4772 47 21 51.4772 21 57V118C21 123.523 25.4772 128 31 128H98C103.523 128 108 123.523 108 118V57C108 51.4772 103.523 47 98 47H31Z" fill="#D9D9D9"/>
<path fill-rule="evenodd" clip-rule="evenodd" d="M64 10C58.1652 10 52.5695 12.3178 48.4437 16.4436C44.3179 20.5694 42 26.1652 42 32C42 34.7614 39.7614 37 37 37C34.2386 37 32 34.7614 32 32C32 23.5131 35.3714 15.3737 41.3726 9.37258C47.3738 3.37142 55.5131 0 64 0C72.4869 0 80.6263 3.37142 86.6274 9.37258C92.6286 15.3737 96 23.5131 96 32C96 34.7614 93.7614 37 91 37C88.2386 37 86 34.7614 86 32C86 26.1652 83.6822 20.5695 79.5564 16.4437C75.4306 12.3179 69.8348 10 64 10Z" fill="#D9D9D9"/>
<path fill-rule="evenodd" clip-rule="evenodd" d="M32 52L32 32L42 32L42 52H32Z" fill="#D9D9D9"/>
<path fill-rule="evenodd" clip-rule="evenodd" d="M86 54V32H96V54H86Z" fill="#D9D9D9"/>
</svg>