<svg width="24" height="24" viewBox="0 0 24 24" fill="none" xmlns="http://www.w3.org/2000/svg">
<path d="M16.9391 19.7858L16.5382 20.702L16.9391 19.7858ZM11.5992 17.8004L11.1984 16.8842L11.5992 17.8004ZM13.7889 5.57771L12.8944 6.02493L13.7889 5.57771ZM9.31672 5.1305L3.57603 16.6119L5.36488 17.5063L11.1056 6.02492L9.31672 5.1305ZM7.46176 20.702L12 18.7165L11.1984 16.8842L6.66013 18.8697L7.46176 20.702ZM12 18.7165L16.5382 20.702L17.3399 18.8697L12.8016 16.8842L12 18.7165ZM20.424 16.6119L14.6833 5.1305L12.8944 6.02493L18.6351 17.5063L20.424 16.6119ZM16.5382 20.702C19.1089 21.8266 21.6788 19.1215 20.424 16.6119L18.6351 17.5063C19.0534 18.3429 18.1968 19.2446 17.3399 18.8697L16.5382 20.702ZM12 18.7165V18.7165L12.8016 16.8842C12.2906 16.6606 11.7094 16.6606 11.1984 16.8842L12 18.7165ZM3.57603 16.6119C2.3212 19.1215 4.89112 21.8267 7.46176 20.702L6.66013 18.8697C5.80325 19.2446 4.9466 18.3429 5.36488 17.5063L3.57603 16.6119ZM11.1056 6.02492C11.4741 5.28788 12.5259 5.28787 12.8944 6.02493L14.6833 5.1305C13.5777 2.91936 10.4223 2.91935 9.31672 5.1305L11.1056 6.02492Z" fill="white"/>
</svg>
