<svg width="158" height="34" viewBox="0 0 158 34" fill="none" xmlns="http://www.w3.org/2000/svg">
<path d="M21.7671 15.2226C21.8017 15.2744 21.8274 15.3351 21.8532 15.3955C22.3289 16.3829 22.3027 17.8118 21.7671 18.7819L20.1069 21.6572C19.6144 20.9036 18.9833 20.2368 18.2227 19.6826C18.5599 18.9204 18.7415 18.037 18.7153 17.0065C18.8191 9.19477 7.37342 9.19477 7.47726 17.0065C7.45151 18.0199 7.62415 18.903 7.95296 19.6566C7.19192 20.2021 6.56087 20.8776 6.07672 21.6398C5.48029 20.6264 4.27013 18.5307 4.27013 18.4529C3.90712 17.5695 3.90712 16.3656 4.28744 15.4909C4.33049 15.3957 4.37397 15.3004 4.42589 15.2226L7.21809 10.364C7.22399 10.3579 7.23033 10.3475 7.23624 10.3388L7.24383 10.3293C7.81451 9.36794 9.18043 8.58859 10.2956 8.58859H15.8885C17.1594 8.58859 18.335 9.26413 18.966 10.364C18.9707 10.3731 19.7469 11.7191 20.4809 12.9917L21.7671 15.2226Z" fill="#5187F1"/>
<path d="M39.3071 8.93492V25.0691H36.636L29.1323 15.4129V25.0691H25.5276V8.93492H28.0606L35.6766 18.7125V8.93492H39.3071Z" fill="#5187F1"/>
<path d="M55.68 21.9602V25.0691H44.0701V8.93492H55.5415V12.0439H47.6748V15.3088H54.8585V18.3489H47.6748V21.9602H55.68Z" fill="#5187F1"/>
<path d="M153.727 16.4526V15.9158H145.264V18.9554L149.863 19.0247C149.776 19.3537 149.664 19.6569 149.517 19.9341C149.333 20.2811 149.114 20.5877 148.855 20.8522C148.728 20.9818 148.592 21.1012 148.446 21.2101C148.303 21.3175 148.15 21.4148 147.987 21.5017C147.638 21.6882 147.252 21.8269 146.831 21.9165C146.599 21.966 146.355 22.0007 146.101 22.0201C145.939 22.0324 145.772 22.0385 145.601 22.0385C144.676 22.0385 143.855 21.822 143.138 21.389C142.428 20.956 141.858 20.3585 141.452 19.5965C141.045 18.8342 140.838 17.9595 140.838 16.9637C140.838 15.9589 141.045 15.0756 141.461 14.3222C141.876 13.5687 142.463 12.9798 143.206 12.5641C143.95 12.1485 144.797 11.9406 145.739 11.9406C146.604 11.9406 147.391 12.1138 148.099 12.4601C148.808 12.798 149.413 13.309 149.915 13.9757L152.379 11.5076C151.635 10.6242 150.693 9.92268 149.552 9.41164C148.41 8.90081 147.148 8.64963 145.766 8.64963C144.564 8.64963 143.449 8.86614 142.403 9.29049C141.365 9.71484 140.44 10.3037 139.654 11.0572C138.858 11.8192 138.245 12.694 137.803 13.69C137.363 14.6946 137.147 15.7858 137.147 16.9721C137.147 18.15 137.363 19.2413 137.795 20.246C138.227 21.2505 138.824 22.1339 139.584 22.8959C140.345 23.6581 141.236 24.2556 142.264 24.6887C143.293 25.1217 144.4 25.3382 145.584 25.3382C147.183 25.3382 148.592 25.0003 149.82 24.325C151.038 23.6495 151.998 22.6447 152.69 21.3197C153.381 19.9948 153.727 18.3752 153.727 16.4526Z" fill="#1878F1"/>
<path fill-rule="evenodd" clip-rule="evenodd" d="M90.0166 11.0486C90.7945 11.8021 91.3909 12.6853 91.8058 13.6987C92.2208 14.7119 92.4284 15.8118 92.4457 17.0068C92.4457 18.1847 92.2296 19.2759 91.8058 20.2891C91.3825 21.3025 90.786 22.1857 90.025 22.9392C89.2644 23.6928 88.3742 24.2816 87.3539 24.706C86.3337 25.1303 85.2274 25.3469 84.0257 25.3469C82.8071 25.3469 81.683 25.1303 80.6459 24.706C79.6084 24.2816 78.7093 23.6839 77.9314 22.9219C77.1534 22.1599 76.5481 21.2765 76.1248 20.2631C75.6925 19.2499 75.4849 18.15 75.4849 16.981C75.4849 15.7944 75.701 14.6946 76.1248 13.69C76.557 12.6853 77.1446 11.8021 77.9052 11.0486C78.6662 10.295 79.5565 9.70617 80.594 9.29049C81.6311 8.8748 82.7551 8.66696 83.9738 8.66696C85.167 8.66696 86.2822 8.8748 87.3109 9.29049C88.3395 9.70617 89.2386 10.295 90.0166 11.0486ZM86.481 21.415C87.1982 20.982 87.7516 20.3931 88.158 19.6309C88.5557 18.8689 88.7629 17.9855 88.7718 16.9895C88.7718 16.2448 88.6506 15.5606 88.4261 14.9457C88.1927 14.3222 87.8638 13.7938 87.4405 13.3435C87.0082 12.8931 86.4983 12.5555 85.9104 12.3129C85.3224 12.0791 84.674 11.9579 83.9738 11.9579C83.0143 11.9579 82.176 12.1658 81.4496 12.5815C80.7236 12.9972 80.1702 13.586 79.7726 14.3396C79.375 15.1016 79.1761 15.9763 79.1761 16.981C79.1761 17.743 79.2973 18.4359 79.5218 19.0594C79.7553 19.6829 80.0837 20.22 80.5075 20.6701C80.9308 21.1205 81.4323 21.467 82.0203 21.7009C82.6083 21.9347 83.2566 22.0559 83.9738 22.0559C84.9336 22.0559 85.7635 21.8394 86.481 21.415Z" fill="#1878F1"/>
<path d="M70.6438 24.7147C71.6463 24.3077 72.5285 23.7448 73.2891 23.0086L70.8426 20.575C70.4188 21.0427 69.9005 21.4063 69.2952 21.6575C68.6899 21.9087 67.9727 22.0385 67.1513 22.0385C66.4511 22.0385 65.8116 21.9174 65.232 21.6835C64.6529 21.4497 64.1515 21.1034 63.7281 20.653C63.669 20.59 63.6116 20.5253 63.5559 20.4589C63.4237 20.3012 63.3026 20.1339 63.1924 19.9576C63.0173 19.6779 62.87 19.3751 62.7513 19.0507C62.5179 18.4359 62.4052 17.743 62.4052 16.981C62.4052 16.2535 62.5179 15.5693 62.7513 14.9457C62.9759 14.3135 63.3043 13.7852 63.7281 13.3435C63.9421 13.1204 64.1759 12.9238 64.4296 12.7536C64.6778 12.587 64.9454 12.4459 65.232 12.3303C65.8116 12.0964 66.4511 11.9753 67.1513 11.9753C67.9381 11.9753 68.6384 12.1051 69.2348 12.365C69.8397 12.6248 70.35 12.9798 70.7561 13.4388L73.168 10.9966C72.4246 10.2866 71.5513 9.71484 70.5573 9.30782C69.5632 8.90081 68.4218 8.69297 67.1513 8.69297C65.9323 8.69297 64.8171 8.90081 63.7973 9.31649C62.7771 9.73217 61.8869 10.321 61.1174 11.0659C60.3479 11.8108 59.7515 12.6942 59.3281 13.7074C58.8959 14.7292 58.6882 15.8118 58.6882 16.9897C58.6882 18.1674 58.9043 19.2586 59.3281 20.2718C59.7515 21.2765 60.3479 22.1686 61.1174 22.9306C61.878 23.6928 62.7771 24.2816 63.8057 24.6973C64.8344 25.113 65.9496 25.3209 67.1513 25.3209C68.4738 25.3209 69.6409 25.1217 70.6438 24.7147Z" fill="#1878F1"/>
<path d="M109.908 8.93549V25.0697H107.237L99.7329 15.4134V25.0697H96.1282V8.93549H98.6612L106.277 18.7131V8.93549H109.908Z" fill="#1878F1"/>
<path d="M118.275 15.6299V12.0444H125.874V8.93549H114.671V25.0697H118.275V18.7651H125.511V15.6299H118.275Z" fill="#1878F1"/>
<path d="M133.447 8.93549H129.842V25.0697H133.447V8.93549Z" fill="#1878F1"/>
<path d="M15.7681 17.8959C15.7136 18.1069 15.6372 18.3014 15.5427 18.4792C14.5659 20.3411 11.6007 20.3325 10.6412 18.4532C10.5826 18.3401 10.5306 18.22 10.4868 18.0927C10.4184 17.8944 10.3703 17.6792 10.3458 17.447C10.331 17.3039 10.3255 17.1544 10.3302 16.9983C10.2782 13.153 15.9057 13.153 15.8626 16.9983C15.8723 17.3248 15.8382 17.624 15.7681 17.8959Z" fill="#1878F1"/>
<path d="M16.1218 22.0301C14.2979 23.104 11.8772 23.104 10.0621 22.0301C9.07651 22.6449 8.37624 23.563 8.14282 24.6195C8.76542 25.0872 9.53449 25.3902 10.2263 25.4075C10.3259 25.4152 14.6195 25.4094 15.663 25.408L15.8884 25.4075H16.0268C16.7009 25.3729 17.4442 25.0699 18.0495 24.6195C17.8077 23.5717 17.1074 22.6449 16.1218 22.0301Z" fill="#1878F1"/>
</svg>
