<svg width="37" height="37" viewBox="0 0 37 37" fill="none" xmlns="http://www.w3.org/2000/svg">
<path d="M35.5282 13.2658C35.5974 13.3694 35.6488 13.4908 35.7004 13.6115C36.6517 15.586 36.5993 18.4433 35.5282 20.3832L32.2084 26.1328C31.2236 24.6259 29.9616 23.2925 28.4406 22.1843C29.1149 20.6602 29.4781 18.8936 29.4257 16.833C29.6332 1.21216 6.74571 1.21216 6.95336 16.833C6.90186 18.8595 7.24709 20.6254 7.9046 22.1323C6.38277 23.2231 5.12088 24.5739 4.15275 26.098C2.96009 24.0716 0.540173 19.8809 0.540173 19.7253C-0.185725 17.9588 -0.185726 15.5514 0.574786 13.8023C0.660872 13.6119 0.747817 13.4214 0.85164 13.2658L6.4351 3.55023C6.4469 3.53803 6.45958 3.51723 6.4714 3.49983L6.48657 3.48084C7.62774 1.55844 10.3591 0 12.5891 0H23.773C26.3144 0 28.6652 1.35085 29.927 3.55023C29.9364 3.56842 31.4885 6.25997 32.9563 8.80474L35.5282 13.2658Z" fill="#5187F1"/>
<path d="M23.5323 18.6115C23.4233 19.0334 23.2705 19.4223 23.0815 19.7779C21.1283 23.5011 15.1989 23.4839 13.2802 19.7259C13.163 19.4997 13.059 19.2596 12.9714 19.005C12.8347 18.6085 12.7385 18.1782 12.6895 17.7138C12.6599 17.4277 12.6489 17.1287 12.6583 16.8166C12.5543 9.12727 23.8074 9.12727 23.7212 16.8166C23.7406 17.4695 23.6724 18.0678 23.5323 18.6115Z" fill="#1878F1"/>
<path d="M24.2395 26.8785C20.5923 29.0259 15.7518 29.0259 12.1222 26.8785C10.1513 28.1079 8.75102 29.9438 8.28425 32.0564C9.52925 32.9917 11.0671 33.5976 12.4505 33.6322C12.6497 33.6476 21.2354 33.636 23.3221 33.6332L23.7728 33.6322H24.0496C25.3975 33.563 26.8839 32.9571 28.0943 32.0564C27.6108 29.9612 26.2104 28.1079 24.2395 26.8785Z" fill="#1878F1"/>
</svg>
