<svg width="24" height="24" viewBox="0 0 24 24" fill="none" xmlns="http://www.w3.org/2000/svg">
<path fill-rule="evenodd" clip-rule="evenodd" d="M12 0C18.623 0 24 5.377 24 12C24 18.623 18.623 24 12 24C5.377 24 0 18.623 0 12C0 5.377 5.377 0 12 0ZM13.914 3.7896C14.0794 3.52813 14.3316 3.33328 14.6264 3.23929C14.9211 3.14529 15.2396 3.15815 15.5258 3.2756C16.3391 3.60566 17.1024 4.04773 17.7934 4.589C18.0372 4.77823 18.2068 5.04716 18.2724 5.34875C18.3379 5.65034 18.2954 5.9654 18.1522 6.2388C17.9732 6.57679 17.883 6.95468 17.89 7.33706C17.897 7.71944 18.001 8.09379 18.1922 8.425C18.3834 8.75635 18.6558 9.03366 18.9836 9.23087C19.3115 9.42807 19.6841 9.53872 20.0664 9.5524C20.3743 9.56497 20.6681 9.68521 20.8964 9.89215C21.1248 10.0991 21.2733 10.3796 21.316 10.6848C21.4385 11.5573 21.4387 12.4426 21.3166 13.3152C21.2739 13.6206 21.1254 13.9013 20.8969 14.1083C20.6684 14.3154 20.3745 14.4357 20.0664 14.4482C19.6841 14.4616 19.3115 14.5721 18.9836 14.7692C18.6557 14.9663 18.3834 15.2436 18.1922 15.575C18.001 15.9062 17.897 16.2805 17.89 16.6629C17.8831 17.0452 17.9733 17.4231 18.1524 17.761C18.2956 18.0345 18.3381 18.3496 18.2725 18.6513C18.2069 18.9529 18.0373 19.2219 17.7934 19.4112C17.1024 19.9525 16.3391 20.3944 15.5256 20.724C15.2395 20.8414 14.9211 20.8543 14.6265 20.7603C14.3318 20.6664 14.0797 20.4716 13.9144 20.2102C13.7113 19.8857 13.429 19.6182 13.0942 19.4328C12.7593 19.2473 12.3828 19.15 12 19.15C11.6172 19.15 11.2407 19.2473 10.9059 19.4328C10.5711 19.6183 10.289 19.8859 10.086 20.2104C9.92062 20.4719 9.6684 20.6667 9.37364 20.7607C9.07888 20.8547 8.76042 20.8419 8.4742 20.7244C7.66085 20.3943 6.89761 19.9523 6.2066 19.411C5.96277 19.2218 5.79323 18.9528 5.72764 18.6512C5.66205 18.3497 5.70458 18.0346 5.8478 17.7612C6.02677 17.4232 6.11699 17.0453 6.10999 16.6629C6.10299 16.2806 5.99902 15.9062 5.8078 15.575C5.61655 15.2436 5.34421 14.9663 5.01637 14.7691C4.68853 14.5719 4.31594 14.4613 3.9336 14.4476C3.62568 14.435 3.33194 14.3148 3.10359 14.1079C2.87523 13.9009 2.72674 13.6204 2.684 13.3152C2.56153 12.4427 2.56132 11.5574 2.6834 10.6848C2.7261 10.3794 2.87465 10.0987 3.10312 9.89168C3.3316 9.68462 3.62551 9.56433 3.9336 9.5518C4.31593 9.53836 4.68855 9.42789 5.01642 9.23077C5.34429 9.03365 5.61662 8.75637 5.8078 8.425C5.99904 8.09383 6.10302 7.7195 6.10998 7.33714C6.11694 6.95478 6.02666 6.57692 5.8476 6.239C5.70438 5.96551 5.66186 5.65038 5.72749 5.34872C5.79311 5.04706 5.96271 4.77807 6.2066 4.5888C6.89758 4.04753 7.66092 3.60564 8.4744 3.276C8.76051 3.15857 9.07885 3.1457 9.37351 3.23966C9.66817 3.33363 9.92029 3.52841 10.0856 3.7898C10.2887 4.11425 10.571 4.38176 10.9058 4.56721C11.2407 4.75267 11.6172 4.84997 12 4.85C12.8064 4.85 13.5146 4.4262 13.914 3.7896Z" fill="white"/>
<path fill-rule="evenodd" clip-rule="evenodd" d="M11.9999 7.10803C14.6999 7.10803 16.8921 9.30023 16.8921 12.0002C16.8921 14.7002 14.6999 16.8924 11.9999 16.8924C9.29987 16.8924 7.10767 14.7002 7.10767 12.0002C7.10767 9.30023 9.29987 7.10803 11.9999 7.10803ZM11.7741 10.3318V14.599C11.7741 14.7282 11.8255 14.852 11.9167 14.9434C12.0081 15.0348 12.1221 15.086 12.2513 15.086H12.4727C12.7417 15.086 12.9783 14.868 12.9783 14.599V9.55203C12.9783 9.42287 12.927 9.299 12.8356 9.20767C12.7443 9.11634 12.6204 9.06503 12.4913 9.06503H11.7803C11.6779 9.06503 11.5775 9.09463 11.4915 9.15023C11.2781 9.28843 10.7481 9.68123 10.4163 9.89603C10.3617 9.93131 10.3148 9.97715 10.2782 10.0309C10.2416 10.0846 10.2162 10.145 10.2034 10.2087C10.1906 10.2724 10.1906 10.338 10.2035 10.4017C10.2165 10.4654 10.242 10.5258 10.2787 10.5794L10.3795 10.7268C10.4518 10.8328 10.5631 10.9059 10.6891 10.9303C10.8151 10.9547 10.9456 10.9283 11.0523 10.857L11.7741 10.3318Z" fill="white"/>
</svg>
