<svg width="24" height="24" viewBox="0 0 24 24" fill="none" xmlns="http://www.w3.org/2000/svg">
<path d="M3.51638 20.4836C5.6885 22.6558 8.6885 24 12 24C18.623 24 24 18.623 24 12C24 8.6885 22.6558 5.6885 20.4836 3.51638L18.3005 5.69952C18.2903 5.88649 18.2403 6.07053 18.1522 6.2388C17.9732 6.57679 17.883 6.95468 17.89 7.33706C17.897 7.71944 18.001 8.09379 18.1922 8.425C18.3835 8.75635 18.6558 9.03366 18.9836 9.23087C19.3115 9.42807 19.6841 9.53872 20.0664 9.5524C20.3743 9.56497 20.6681 9.68521 20.8964 9.89215C21.1248 10.0991 21.2733 10.3796 21.316 10.6848C21.4385 11.5573 21.4387 12.4426 21.3166 13.3152C21.2739 13.6206 21.1254 13.9013 20.8969 14.1083C20.6684 14.3154 20.3745 14.4357 20.0664 14.4482C19.6841 14.4616 19.3115 14.5721 18.9836 14.7692C18.6557 14.9663 18.3834 15.2436 18.1922 15.575C18.001 15.9062 17.897 16.2805 17.89 16.6629C17.8831 17.0452 17.9733 17.4231 18.1524 17.761C18.2956 18.0345 18.3381 18.3496 18.2725 18.6513C18.2069 18.9529 18.0373 19.2219 17.7934 19.4112C17.1024 19.9525 16.3391 20.3944 15.5256 20.724C15.2395 20.8414 14.9211 20.8543 14.6265 20.7603C14.3318 20.6664 14.0797 20.4716 13.9144 20.2102C13.7113 19.8857 13.429 19.6182 13.0942 19.4328C12.7593 19.2473 12.3828 19.15 12 19.15C11.6172 19.15 11.2407 19.2473 10.9059 19.4328C10.5711 19.6183 10.289 19.8859 10.086 20.2104C9.92062 20.4719 9.6684 20.6667 9.37364 20.7607C9.07888 20.8547 8.76042 20.8419 8.4742 20.7244C7.66085 20.3943 6.89761 19.9523 6.2066 19.411C5.96277 19.2218 5.79323 18.9528 5.72764 18.6512C5.70242 18.5353 5.69318 18.4173 5.69952 18.3005L3.51638 20.4836Z" fill="white"/>
<path d="M8.54116 15.4588C9.4267 16.3443 10.6497 16.8923 11.9996 16.8923C14.6996 16.8923 16.8918 14.7001 16.8918 12.0001C16.8918 10.6502 16.3438 9.42718 15.4584 8.54165L12.978 11.022V14.5989C12.978 14.8679 12.7414 15.0859 12.4724 15.0859H12.251C12.1218 15.0859 12.0078 15.0347 11.9164 14.9433C11.8252 14.8519 11.7738 14.7281 11.7738 14.5989V12.2262L8.54116 15.4588Z" fill="white"/>
<path d="M12.6115 7.14588L7.14539 12.612C7.12033 12.4115 7.10742 12.2073 7.10742 12.0001C7.10742 9.30011 9.29962 7.10791 11.9996 7.10791C12.2068 7.10791 12.411 7.12082 12.6115 7.14588Z" fill="white"/>
<path d="M16.1845 3.57282C15.969 3.46547 15.7493 3.3663 15.5258 3.2756C15.2396 3.15815 14.9211 3.14529 14.6264 3.23929C14.3316 3.33328 14.0794 3.52813 13.914 3.7896C13.5146 4.4262 12.8064 4.85 12 4.85C11.6172 4.84997 11.2407 4.75267 10.9058 4.56721C10.571 4.38176 10.2887 4.11425 10.0856 3.7898C9.92029 3.52841 9.66817 3.33363 9.37351 3.23966C9.07885 3.1457 8.76051 3.15857 8.4744 3.276C7.66092 3.60564 6.89758 4.04753 6.2066 4.5888C5.96271 4.77807 5.79311 5.04706 5.72749 5.34872C5.66186 5.65038 5.70438 5.96552 5.8476 6.239C6.02666 6.57692 6.11694 6.95478 6.10998 7.33714C6.10302 7.7195 5.99904 8.09383 5.8078 8.425C5.61662 8.75637 5.34429 9.03365 5.01642 9.23077C4.68855 9.42789 4.31593 9.53836 3.9336 9.5518C3.62551 9.56433 3.3316 9.68462 3.10312 9.89168C2.87465 10.0987 2.7261 10.3794 2.6834 10.6848C2.56132 11.5574 2.56153 12.4427 2.684 13.3152C2.72674 13.6204 2.87523 13.9009 3.10359 14.1079C3.33194 14.3148 3.62568 14.435 3.9336 14.4476C4.3091 14.461 4.67519 14.568 4.99873 14.7586L1.66281 18.0946C0.606425 16.3079 0 14.2242 0 12C0 5.377 5.377 0 12 0C14.2242 0 16.3079 0.606425 18.0946 1.66281L16.1845 3.57282Z" fill="white"/>
<path fill-rule="evenodd" clip-rule="evenodd" d="M22.7315 1.26849C23.0895 1.62647 23.0895 2.20687 22.7315 2.56485L2.56485 22.7315C2.20687 23.0895 1.62647 23.0895 1.26849 22.7315C0.910505 22.3735 0.910505 21.7931 1.26849 21.4352L21.4352 1.26849C21.7931 0.910505 22.3735 0.910505 22.7315 1.26849Z" fill="white"/>
</svg>
