<svg width="24" height="24" viewBox="0 0 24 24" fill="none" xmlns="http://www.w3.org/2000/svg">
<path d="M17 9.82836L8.96373 17.8647C8.68452 18.144 8.32892 18.3343 7.94174 18.4117L7.71828 18.4564M17 9.82836L19.7928 7.03553C20.1834 6.64501 20.1834 6.01184 19.7928 5.62132L18.3786 4.2071C17.9881 3.81658 17.3549 3.81658 16.9644 4.2071L14.1716 6.99993M17 9.82836L14.1716 6.99993M17 9.82836L19 11.8284M14.1716 6.99993L6.13529 15.0363C5.85609 15.3155 5.66579 15.6711 5.58835 16.0583L5.53033 16.3484M14.1716 6.99993L12.1716 5M5.53033 16.3484L5.35355 17.2323L5 19.0001L7.71828 18.4564M5.53033 16.3484L7.71828 18.4564" stroke="white" stroke-width="2" stroke-linecap="round" stroke-linejoin="round"/>
</svg>
