<svg width="24" height="24" viewBox="0 0 24 24" fill="none" xmlns="http://www.w3.org/2000/svg">
<path fill-rule="evenodd" clip-rule="evenodd" d="M15 6C14.4477 6 14 5.55228 14 5C14 4.44772 14.4477 4 15 4H19C19.5523 4 20 4.44772 20 5V9C20 9.55228 19.5523 10 19 10C18.4477 10 18 9.55228 18 9V7.41421L9.70711 15.7071C9.31658 16.0976 8.68342 16.0976 8.29289 15.7071C7.90237 15.3166 7.90237 14.6834 8.29289 14.2929L16.5858 6H15ZM7 8C6.44772 8 6 8.44772 6 9V17C6 17.5523 6.44772 18 7 18H15C15.5523 18 16 17.5523 16 17V13.2143C16 12.662 16.4477 12.2143 17 12.2143C17.5523 12.2143 18 12.662 18 13.2143V17C18 18.6569 16.6569 20 15 20H7C5.34315 20 4 18.6569 4 17V9C4 7.34315 5.34315 6 7 6H10.1429C10.6951 6 11.1429 6.44772 11.1429 7C11.1429 7.55228 10.6951 8 10.1429 8H7Z" fill="white"/>
</svg>
