<svg width="24" height="24" viewBox="0 0 24 24" fill="none" xmlns="http://www.w3.org/2000/svg">
<path d="M16.9696 19.5047L17.5225 20.3379L16.9696 19.5047ZM7.03036 19.5047L6.47747 20.3379L7.03036 19.5047ZM11 17H13V15H11V17ZM4 12C4 7.58172 7.58172 4 12 4V2C6.47715 2 2 6.47715 2 12H4ZM12 4C16.4183 4 20 7.58172 20 12H22C22 6.47715 17.5228 2 12 2V4ZM14 10C14 11.1046 13.1046 12 12 12V14C14.2091 14 16 12.2091 16 10H14ZM12 12C10.8954 12 10 11.1046 10 10H8C8 12.2091 9.79086 14 12 14V12ZM10 10C10 8.89543 10.8954 8 12 8V6C9.79086 6 8 7.79086 8 10H10ZM12 8C13.1046 8 14 8.89543 14 10H16C16 7.79086 14.2091 6 12 6V8ZM13 17C14.5303 17 15.7943 18.1467 15.9772 19.6273L17.9621 19.3821C17.657 16.9118 15.5525 15 13 15V17ZM20 12C20 14.7844 18.5784 17.2371 16.4167 18.6714L17.5225 20.3379C20.2189 18.5488 22 15.4826 22 12H20ZM16.4167 18.6714C15.1515 19.511 13.6344 20 12 20V22C14.0398 22 15.9397 21.3882 17.5225 20.3379L16.4167 18.6714ZM8.02282 19.6273C8.20567 18.1467 9.46968 17 11 17V15C8.44747 15 6.34299 16.9118 6.0379 19.3821L8.02282 19.6273ZM12 20C10.3656 20 8.84849 19.511 7.58326 18.6714L6.47747 20.3379C8.06034 21.3882 9.96025 22 12 22V20ZM7.58326 18.6714C5.42161 17.2371 4 14.7844 4 12H2C2 15.4826 3.78112 18.5488 6.47747 20.3379L7.58326 18.6714Z" fill="white"/>
</svg>
