<svg width="24" height="24" viewBox="0 0 24 24" fill="none" xmlns="http://www.w3.org/2000/svg">
<path d="M16.3976 4.14755C16.8794 4.41741 17.0513 5.0268 16.7814 5.50867C16.5116 5.99054 15.9022 6.1624 15.4203 5.89254L16.3976 4.14755ZM4.01575 12.5023L4.72286 13.2094C4.33233 13.6 3.69917 13.6 3.30864 13.2094L4.01575 12.5023ZM1.80864 11.7094C1.41812 11.3189 1.41812 10.6858 1.80864 10.2952C2.19917 9.90471 2.83233 9.90471 3.22286 10.2952L1.80864 11.7094ZM4.80864 10.2952C5.19917 9.90471 5.83233 9.90471 6.22286 10.2952C6.61338 10.6858 6.61338 11.3189 6.22286 11.7094L4.80864 10.2952ZM15.4203 5.89254C13.9496 5.06891 12.2311 4.80363 10.5805 5.14546L10.1749 3.18701C12.2971 2.74752 14.5066 3.08859 16.3976 4.14755L15.4203 5.89254ZM10.5805 5.14546C8.92984 5.48728 7.458 6.41325 6.43536 7.75324L4.84547 6.53987C6.1603 4.81703 8.05266 3.6265 10.1749 3.18701L10.5805 5.14546ZM6.43536 7.75324C5.41271 9.09323 4.90794 10.7572 5.01378 12.4395L3.01772 12.5651C2.88164 10.4022 3.53063 8.26272 4.84547 6.53987L6.43536 7.75324ZM3.30864 13.2094L1.80864 11.7094L3.22286 10.2952L4.72286 11.7952L3.30864 13.2094ZM3.30864 11.7952L4.80864 10.2952L6.22286 11.7094L4.72286 13.2094L3.30864 11.7952Z" fill="white"/>
<path d="M7.60134 19.8524C7.11948 19.5826 6.94761 18.9732 7.21747 18.4913C7.48733 18.0095 8.09672 17.8376 8.57859 18.1075L7.60134 19.8524ZM19.9832 11.4977L19.276 10.7906C19.6666 10.4 20.2997 10.4 20.6903 10.7906L19.9832 11.4977ZM22.1903 12.2906C22.5808 12.6811 22.5808 13.3142 22.1903 13.7048C21.7997 14.0953 21.1666 14.0953 20.776 13.7048L22.1903 12.2906ZM19.1903 13.7048C18.7997 14.0953 18.1666 14.0953 17.776 13.7048C17.3855 13.3142 17.3855 12.6811 17.776 12.2906L19.1903 13.7048ZM8.57859 18.1075C10.0493 18.9311 11.7678 19.1964 13.4184 18.8545L13.824 20.813C11.7018 21.2525 9.49226 20.9114 7.60134 19.8524L8.57859 18.1075ZM13.4184 18.8545C15.0691 18.5127 16.5409 17.5868 17.5635 16.2468L19.1534 17.4601C17.8386 19.183 15.9462 20.3735 13.824 20.813L13.4184 18.8545ZM17.5635 16.2468C18.5862 14.9068 19.091 13.2428 18.9851 11.5605L20.9812 11.4349C21.1173 13.5978 20.4683 15.7373 19.1534 17.4601L17.5635 16.2468ZM20.6903 10.7906L22.1903 12.2906L20.776 13.7048L19.276 12.2048L20.6903 10.7906ZM20.6903 12.2048L19.1903 13.7048L17.776 12.2906L19.276 10.7906L20.6903 12.2048Z" fill="white"/>
</svg>
