<svg width="18" height="19" viewBox="0 0 18 19" fill="none" xmlns="http://www.w3.org/2000/svg">
<path d="M9.75 5.75H3.9C3.05992 5.75 2.63988 5.75 2.31901 5.91349C2.03677 6.0573 1.8073 6.28677 1.66349 6.56901C1.5 6.88988 1.5 7.30992 1.5 8.15V10.85C1.5 11.6901 1.5 12.1101 1.66349 12.431C1.8073 12.7132 2.03677 12.9427 2.31901 13.0865C2.63988 13.25 3.05992 13.25 3.9 13.25H9.75M12.75 5.75H14.1C14.9401 5.75 15.3601 5.75 15.681 5.91349C15.9632 6.0573 16.1927 6.28677 16.3365 6.56901C16.5 6.88988 16.5 7.30992 16.5 8.15V10.85C16.5 11.6901 16.5 12.1101 16.3365 12.431C16.1927 12.7132 15.9632 12.9427 15.681 13.0865C15.3601 13.25 14.9401 13.25 14.1 13.25H12.75M12.75 16.25L12.75 2.75M14.625 2.75001L10.875 2.75M14.625 16.25L10.875 16.25" stroke="#CFCFCF" stroke-width="1.5" stroke-linecap="round" stroke-linejoin="round"/>
</svg>
