<svg width="24" height="24" viewBox="0 0 24 24" fill="none" xmlns="http://www.w3.org/2000/svg">
<path d="M7.29289 12.7929C6.90237 13.1834 6.90237 13.8166 7.29289 14.2071C7.68342 14.5976 8.31658 14.5976 8.70711 14.2071L7.29289 12.7929ZM9.2929 15.7929C8.90238 16.1834 8.90238 16.8166 9.2929 17.2071C9.68343 17.5976 10.3166 17.5976 10.7071 17.2071L9.2929 15.7929ZM10.7817 10.7183L10.1335 9.95681C10.1132 9.97415 10.0935 9.99229 10.0746 10.0112L10.7817 10.7183ZM13.2817 13.2183L13.9888 13.9254C14.0077 13.9065 14.0259 13.8868 14.0432 13.8665L13.2817 13.2183ZM19.1216 6.19589L20.0501 6.56728L19.1216 6.19589ZM19.1334 6.16645L18.2049 5.79506L19.1334 6.16645ZM17.2506 5.2123L17.8987 5.9738L17.2506 5.2123ZM17.8041 4.87836L17.4327 3.94988L17.8041 4.87836ZM8.70711 14.2071L11.4888 11.4254L10.0746 10.0112L7.29289 12.7929L8.70711 14.2071ZM11.4298 11.4798L17.8987 5.9738L16.6024 4.45079L10.1335 9.95681L11.4298 11.4798ZM18.0262 6.10126L12.5202 12.5702L14.0432 13.8665L19.5492 7.39758L18.0262 6.10126ZM12.5746 12.5112L9.2929 15.7929L10.7071 17.2071L13.9888 13.9254L12.5746 12.5112ZM10.6947 11.7145C10.968 11.7384 11.4051 11.8587 11.747 12.1132C12.0497 12.3385 12.2817 12.6632 12.2817 13.2183H14.2817C14.2817 11.9481 13.6804 11.0592 12.9413 10.509C12.2416 9.98805 11.4287 9.77101 10.8687 9.72211L10.6947 11.7145ZM18.1755 5.80683L18.2049 5.79506L17.4622 3.9381L17.4327 3.94988L18.1755 5.80683ZM18.2049 5.79506L18.1932 5.8245L20.0501 6.56728L20.0619 6.53784L18.2049 5.79506ZM19.5492 7.39758C19.7601 7.14981 19.9293 6.86938 20.0501 6.56728L18.1932 5.8245C18.1529 5.9252 18.0965 6.01867 18.0262 6.10126L19.5492 7.39758ZM18.2049 5.79506V5.79506L20.0619 6.53784C20.7149 4.90521 19.0948 3.28505 17.4622 3.9381L18.2049 5.79506ZM17.8987 5.9738C17.9813 5.90351 18.0748 5.84711 18.1755 5.80683L17.4327 3.94988C17.1306 4.07072 16.8502 4.2399 16.6024 4.45079L17.8987 5.9738Z" fill="white"/>
<path d="M4.70662 18.4805L3.72341 18.663L4.70662 18.4805ZM4.55841 18.855L3.96634 18.0492L4.55841 18.855ZM9 16.7807V17H11V16.7807H9ZM7 19H3.92627V21H7V19ZM5.68982 18.2981L5.46851 17.1057L3.50209 17.4706L3.72341 18.663L5.68982 18.2981ZM4.33854 20.2575L5.15049 19.6609L3.96634 18.0492L3.15439 18.6457L4.33854 20.2575ZM3.72341 18.663C3.67992 18.4287 3.77431 18.1902 3.96634 18.0492L5.15049 19.6609C5.57682 19.3477 5.78636 18.8182 5.68982 18.2981L3.72341 18.663ZM3.92627 19C4.59892 19 4.88062 19.8592 4.33854 20.2575L3.15439 18.6457C2.13947 19.3913 2.66688 21 3.92627 21V19ZM9 17C9 18.1046 8.10457 19 7 19V21C9.20914 21 11 19.2091 11 17H9ZM7.2193 15C8.20275 15 9 15.7972 9 16.7807H11C11 14.6927 9.30732 13 7.2193 13V15ZM7.2193 13C4.85488 13 3.07061 15.1459 3.50209 17.4706L5.46851 17.1057C5.26528 16.0107 6.10567 15 7.2193 15V13Z" fill="white"/>
</svg>
