<svg width="24" height="24" viewBox="0 0 24 24" fill="none" xmlns="http://www.w3.org/2000/svg">
<path d="M3 10C3 9.44772 3.44772 9 4 9H7V21H4C3.44772 21 3 20.5523 3 20V10Z" stroke="white" stroke-width="2" stroke-linecap="round" stroke-linejoin="round"/>
<path d="M8 11C8 10.4477 7.55228 10 7 10C6.44772 10 6 10.4477 6 11H8ZM7 19H6C6 19.3344 6.1671 19.6466 6.4453 19.8321L7 19ZM14 8C13.4477 8 13 8.44772 13 9C13 9.55228 13.4477 10 14 10V8ZM8.9923 20.3282L8.4376 21.1603L8.9923 20.3282ZM20.6119 11.3288L19.6255 11.1644L20.6119 11.3288ZM19.6255 11.1644L18.4314 18.3288L20.4042 18.6576L21.5983 11.4932L19.6255 11.1644ZM8 19V11H6V19H8ZM14 10H18.6391V8H14V10ZM16.4586 20H11.2111V22H16.4586V20ZM9.547 19.4962L7.5547 18.1679L6.4453 19.8321L8.4376 21.1603L9.547 19.4962ZM11.2111 20C10.6188 20 10.0398 19.8247 9.547 19.4962L8.4376 21.1603C9.25894 21.7078 10.224 22 11.2111 22V20ZM18.4314 18.3288C18.2707 19.2932 17.4363 20 16.4586 20V22C18.414 22 20.0827 20.5863 20.4042 18.6576L18.4314 18.3288ZM21.5983 11.4932C21.903 9.6646 20.4929 8 18.6391 8V10C19.257 10 19.7271 10.5549 19.6255 11.1644L21.5983 11.4932Z" fill="white"/>
<path d="M13.0194 8.80388C12.9111 9.34544 13.2623 9.87227 13.8039 9.98058C14.3454 10.0889 14.8723 9.73768 14.9806 9.19612L13.0194 8.80388ZM8 11V12C8.37877 12 8.72504 11.786 8.89443 11.4472L8 11ZM7 10C6.44772 10 6 10.4477 6 11C6 11.5523 6.44772 12 7 12V10ZM13.7066 5.36804L13.0194 8.80388L14.9806 9.19612L15.6677 5.76027L13.7066 5.36804ZM8.89443 11.4472L12.1936 4.84891L10.4047 3.95448L7.10557 10.5528L8.89443 11.4472ZM8 10H7V12H8V10ZM13.1705 4.44426C13.5566 4.57295 13.7864 4.96898 13.7066 5.36804L15.6677 5.76027C15.9454 4.37216 15.1459 2.99455 13.803 2.54689L13.1705 4.44426ZM13.803 2.54689C12.4778 2.10516 11.0294 2.70508 10.4047 3.95448L12.1936 4.84891C12.3732 4.48974 12.7895 4.31727 13.1705 4.44426L13.803 2.54689Z" fill="white"/>
</svg>
