<svg width="20" height="20" viewBox="0 0 20 20" fill="none" xmlns="http://www.w3.org/2000/svg">
<path d="M13.3337 2.8898C14.5684 3.50343 15.417 4.77762 15.417 6.25C15.417 7.72238 14.5684 8.99657 13.3337 9.6102M15.0003 13.972C16.2599 14.5419 17.3941 15.4708 18.3337 16.6667M1.66699 16.6667C3.28907 14.6021 5.49131 13.3333 7.91699 13.3333C10.3427 13.3333 12.5449 14.6021 14.167 16.6667M11.667 6.25C11.667 8.32107 9.98806 10 7.91699 10C5.84592 10 4.16699 8.32107 4.16699 6.25C4.16699 4.17893 5.84592 2.5 7.91699 2.5C9.98806 2.5 11.667 4.17893 11.667 6.25Z" stroke="#ECEDEE" stroke-width="1.66667" stroke-linecap="round" stroke-linejoin="round"/>
</svg>
