<svg width="24" height="24" viewBox="0 0 24 24" fill="none" xmlns="http://www.w3.org/2000/svg">
<path d="M5 5L19 19" stroke="white" stroke-width="2" stroke-linecap="round" stroke-linejoin="round"/>
<path fill-rule="evenodd" clip-rule="evenodd" d="M8.00287 6.91712L6.64922 8.00003H4C2.89543 8.00003 2 8.89546 2 10V14C2 15.1046 2.89543 16 4 16H6.64922L9.75061 18.4811C11.0601 19.5288 13 18.5964 13 16.9194V11.9142L11 9.91425V16.9194L7.89861 14.4383C7.54398 14.1546 7.10336 14 6.64922 14H4V10H6.64922C7.10336 10 7.54398 9.84547 7.89861 9.56177L9.42578 8.34003L8.00287 6.91712ZM11 7.08582V7.08066L10.9971 7.08295L9.57422 5.66004L9.75061 5.51892C11.0601 4.4713 13 5.40365 13 7.08066V9.08582L11 7.08582ZM15.3187 14.233C15.2402 14.3497 15.1553 14.4626 15.0642 14.5712C14.7092 14.9943 14.7644 15.625 15.1874 15.98C15.6105 16.335 16.2413 16.2798 16.5963 15.8568C16.6491 15.7938 16.7006 15.7298 16.7507 15.6649L15.3187 14.233ZM17.7214 13.8072L15.9991 12.0849C16.0174 11.2215 15.7558 10.3747 15.2524 9.67154C14.9309 9.22248 15.0343 8.59782 15.4834 8.27632C15.9324 7.95482 16.5571 8.05823 16.8786 8.5073C17.6537 9.59 18.0467 10.8998 17.9956 12.2304C17.9749 12.7694 17.8818 13.2995 17.7214 13.8072ZM18.1736 17.0879C18.1586 17.1061 18.1435 17.1242 18.1284 17.1423C17.7734 17.5654 17.8285 18.1962 18.2516 18.5512C18.6479 18.8837 19.2263 18.8563 19.5897 18.504L18.1736 17.0879ZM20.752 16.8378L19.2646 15.3504C19.7379 14.3243 19.9918 13.202 19.9998 12.0559C20.0128 10.1943 19.3762 8.38646 18.1996 6.9438C17.8505 6.51581 17.9145 5.88589 18.3425 5.53683C18.7705 5.18777 19.4004 5.25175 19.7494 5.67974C21.2202 7.48307 22.016 9.74287 21.9998 12.0698C21.988 13.7485 21.5543 15.3863 20.752 16.8378Z" fill="white"/>
</svg>
