<svg width="24" height="24" viewBox="0 0 24 24" fill="none" xmlns="http://www.w3.org/2000/svg">
<path d="M3 14V10C3 9.44772 3.44772 9 4 9H6.64922C6.87629 9 7.0966 8.92272 7.27391 8.78087L10.3753 6.29976C11.0301 5.77595 12 6.24212 12 7.08062V16.9194C12 17.7579 11.0301 18.2241 10.3753 17.7002L7.27391 15.2191C7.0966 15.0773 6.87629 15 6.64922 15H4C3.44772 15 3 14.5523 3 14Z" stroke="white" stroke-width="2" stroke-linecap="round" stroke-linejoin="round"/>
<path d="M15.8302 15.2139C16.5435 14.3639 16.9537 13.3008 16.9963 12.1919C17.0389 11.0831 16.7114 9.99163 16.0655 9.08939" stroke="white" stroke-width="2" stroke-linecap="round" stroke-linejoin="round"/>
<path d="M18.8944 17.7851C20.2406 16.1807 20.9852 14.1571 20.9998 12.0628C21.0144 9.96855 20.2982 7.93473 18.9745 6.31174" stroke="white" stroke-width="2" stroke-linecap="round" stroke-linejoin="round"/>
</svg>
