<svg width="24" height="24" viewBox="0 0 24 24" fill="none" xmlns="http://www.w3.org/2000/svg">
<path d="M4 15L20 15" stroke="white" stroke-width="2" stroke-linecap="round" stroke-linejoin="round"/>
<path d="M4 9L20 9" stroke="white" stroke-width="2" stroke-linecap="round" stroke-linejoin="round"/>
<circle cx="12" cy="12" r="9" stroke="white" stroke-width="2" stroke-linecap="round" stroke-linejoin="round"/>
<path d="M12 20.8182L11.2858 21.5181C11.4739 21.7101 11.7313 21.8182 12 21.8182C12.2688 21.8182 12.5262 21.7101 12.7143 21.5181L12 20.8182ZM12 3.18188L12.7143 2.48198C12.5262 2.29005 12.2688 2.18188 12 2.18188C11.7313 2.18188 11.4739 2.29005 11.2858 2.48198L12 3.18188ZM14.6 12.0001C14.6 15.1611 13.337 18.0251 11.2858 20.1183L12.7143 21.5181C15.1169 19.0662 16.6 15.7053 16.6 12.0001H14.6ZM11.2858 3.88178C13.337 5.97501 14.6 8.83903 14.6 12.0001H16.6C16.6 8.29478 15.1169 4.93389 12.7143 2.48198L11.2858 3.88178ZM9.40002 12.0001C9.40002 8.83903 10.6631 5.97501 12.7143 3.88178L11.2858 2.48198C8.88311 4.93389 7.40002 8.29478 7.40002 12.0001H9.40002ZM12.7143 20.1183C10.6631 18.0251 9.40002 15.1611 9.40002 12.0001H7.40002C7.40002 15.7053 8.88311 19.0662 11.2858 21.5181L12.7143 20.1183Z" fill="white"/>
</svg>
