<svg width="125" height="125" fill="none" xmlns="http://www.w3.org/2000/svg">
    <rect width="125" height="125" rx="8" fill="#192126" fill-opacity="0.7"/>
    <rect x="0.5" y="0.5" width="124" height="124" rx="7.5" stroke="white" stroke-opacity="0.05"/>
    <rect x="60.75" y="50.8334" width="2.5" height="22.5" rx="1.25" fill="#2B4BFF"/>
    <rect x="73.332" y="60.8334" width="2.5" height="22.5" rx="1.25" transform="rotate(90 73.332 60.8334)" fill="#2B4BFF"/>
    <rect x="33.834" y="33.8333" width="57.3333" height="57.3333" rx="7.5" stroke="white" stroke-opacity="0.1"/>
    <path d="M63.334 32.1133L61.6673 32.1133L61.6673 19.6133C61.6673 19.153 62.0404 18.7799 62.5007 18.7799C62.9609 18.7799 63.334 19.153 63.334 19.6133L63.334 32.1133Z" fill="#777B7E"/>
    <path d="M68.3346 17.9466C68.7949 17.9466 69.168 18.3197 69.168 18.78C69.168 19.2402 68.7949 19.6133 68.3346 19.6133L56.668 19.6133C56.2077 19.6133 55.8346 19.2402 55.8346 18.78C55.8346 18.3197 56.2077 17.9466 56.668 17.9466L68.3346 17.9466Z" fill="#777B7E"/>
    <path d="M25.0016 17.9466C25.4619 17.9466 25.835 18.3197 25.835 18.78C25.835 19.2402 25.4619 19.6133 25.0016 19.6133L20.0016 19.6133C19.5414 19.6133 19.1683 19.2402 19.1683 18.78C19.1683 18.3197 19.5414 17.9466 20.0016 17.9466L25.0016 17.9466Z" fill="#343B3F"/>
    <path d="M20.835 23.7799C20.835 24.2402 20.4619 24.6133 20.0016 24.6133C19.5414 24.6133 19.1683 24.2402 19.1683 23.7799L19.1683 18.7799C19.1683 18.3197 19.5414 17.9466 20.0016 17.9466C20.4619 17.9466 20.835 18.3197 20.835 18.7799L20.835 23.7799Z" fill="#343B3F"/>
    <path d="M105.834 24.1667C105.834 24.6269 105.461 25 105.001 25C104.54 25 104.167 24.6269 104.167 24.1667L104.167 19.1667C104.167 18.7065 104.54 18.3334 105.001 18.3334C105.461 18.3334 105.834 18.7065 105.834 19.1667L105.834 24.1667Z" fill="#343B3F"/>
    <path d="M100 20C99.5401 20 99.167 19.6269 99.167 19.1667C99.167 18.7065 99.5401 18.3334 100 18.3334L105 18.3334C105.461 18.3334 105.834 18.7065 105.834 19.1667C105.834 19.6269 105.461 20 105 20L100 20Z" fill="#343B3F"/>
    <path d="M100.001 106.22C99.5411 106.22 99.168 105.847 99.168 105.387C99.168 104.927 99.5411 104.553 100.001 104.553L105.001 104.553C105.462 104.553 105.835 104.927 105.835 105.387C105.835 105.847 105.462 106.22 105.001 106.22L100.001 106.22Z" fill="#343B3F"/>
    <path d="M104.167 100.387C104.167 99.9266 104.54 99.5535 105 99.5535C105.461 99.5535 105.834 99.9266 105.834 100.387L105.834 105.387C105.834 105.847 105.461 106.22 105 106.22C104.54 106.22 104.167 105.847 104.167 105.387L104.167 100.387Z" fill="#343B3F"/>
    <path d="M19.168 100C19.168 99.5398 19.5411 99.1667 20.0013 99.1667C20.4615 99.1667 20.8346 99.5398 20.8346 100L20.8346 105C20.8346 105.46 20.4615 105.833 20.0013 105.833C19.5411 105.833 19.168 105.46 19.168 105L19.168 100Z" fill="#343B3F"/>
    <path d="M25.0016 104.167C25.4619 104.167 25.835 104.54 25.835 105C25.835 105.46 25.4619 105.833 25.0016 105.833L20.0016 105.833C19.5414 105.833 19.1683 105.46 19.1683 105C19.1683 104.54 19.5414 104.167 20.0016 104.167L25.0016 104.167Z" fill="#343B3F"/>
    <path d="M33.3345 61.6667L33.3345 63.3334L20.8345 63.3334C20.3742 63.3334 20.0011 62.9603 20.0011 62.5C20.0011 62.0398 20.3742 61.6667 20.8345 61.6667L33.3345 61.6667Z" fill="#777B7E"/>
    <path d="M19.1675 56.6667C19.1675 56.2065 19.5406 55.8334 20.0008 55.8334C20.4611 55.8334 20.8341 56.2065 20.8341 56.6667V68.3334C20.8341 68.7936 20.4611 69.1667 20.0008 69.1667C19.5406 69.1667 19.1675 68.7936 19.1675 68.3334V56.6667Z" fill="#777B7E"/>
    <path d="M61.667 91.6667H63.3337V104.167C63.3337 104.627 62.9606 105 62.5003 105C62.0401 105 61.667 104.627 61.667 104.167V91.6667Z" fill="#777B7E"/>
    <path d="M56.6668 105.833C56.2066 105.833 55.8335 105.46 55.8335 105C55.8335 104.54 56.2066 104.167 56.6668 104.167L68.3335 104.167C68.7937 104.167 69.1668 104.54 69.1668 105C69.1668 105.46 68.7937 105.833 68.3335 105.833L56.6668 105.833Z" fill="#777B7E"/>
    <path d="M91.666 63.3334L91.666 61.6667L104.166 61.6667C104.626 61.6667 104.999 62.0398 104.999 62.5001C104.999 62.9603 104.626 63.3334 104.166 63.3334L91.666 63.3334Z" fill="#777B7E"/>
    <path d="M105.833 68.3334C105.833 68.7937 105.46 69.1667 105 69.1667C104.539 69.1667 104.166 68.7937 104.166 68.3334L104.166 56.6667C104.166 56.2065 104.539 55.8334 105 55.8334C105.46 55.8334 105.833 56.2065 105.833 56.6667L105.833 68.3334Z" fill="#777B7E"/>
</svg>
