<svg width="24" height="24" viewBox="0 0 24 24" fill="none" xmlns="http://www.w3.org/2000/svg">
<path d="M5 5C4.44772 5 4 5.44772 4 6C4 6.55228 4.44772 7 5 7V5ZM19 7C19.5523 7 20 6.55228 20 6C20 5.44772 19.5523 5 19 5V7ZM9 9C8.44772 9 8 9.44772 8 10C8 10.5523 8.44772 11 9 11V9ZM19 11C19.5523 11 20 10.5523 20 10C20 9.44772 19.5523 9 19 9V11ZM5 13C4.44772 13 4 13.4477 4 14C4 14.5523 4.44772 15 5 15V13ZM19 15C19.5523 15 20 14.5523 20 14C20 13.4477 19.5523 13 19 13V15ZM9 17C8.44772 17 8 17.4477 8 18C8 18.5523 8.44772 19 9 19V17ZM19 19C19.5523 19 20 18.5523 20 18C20 17.4477 19.5523 17 19 17V19ZM5 7H19V5H5V7ZM9 11H19V9H9V11ZM5 15H19V13H5V15ZM9 19H19V17H9V19Z" fill="white"/>
</svg>
