<svg width="24" height="24" viewBox="0 0 24 24" fill="none" xmlns="http://www.w3.org/2000/svg">
<path d="M5 5C4.44772 5 4 5.44772 4 6C4 6.55228 4.44772 7 5 7V5ZM19 7C19.5523 7 20 6.55228 20 6C20 5.44772 19.5523 5 19 5V7ZM7 9C6.44772 9 6 9.44772 6 10C6 10.5523 6.44772 11 7 11V9ZM17 11C17.5523 11 18 10.5523 18 10C18 9.44772 17.5523 9 17 9V11ZM5 13C4.44772 13 4 13.4477 4 14C4 14.5523 4.44772 15 5 15V13ZM19 15C19.5523 15 20 14.5523 20 14C20 13.4477 19.5523 13 19 13V15ZM7 17C6.44772 17 6 17.4477 6 18C6 18.5523 6.44772 19 7 19V17ZM17 19C17.5523 19 18 18.5523 18 18C18 17.4477 17.5523 17 17 17V19ZM5 7H19V5H5V7ZM7 11H17V9H7V11ZM5 15H19V13H5V15ZM7 19H17V17H7V19Z" fill="white"/>
</svg>
