<svg width="24" height="24" viewBox="0 0 24 24" fill="none" xmlns="http://www.w3.org/2000/svg">
<path d="M19 5C19.5523 5 20 4.55228 20 4C20 3.44772 19.5523 3 19 3V5ZM5 3C4.44772 3 4 3.44772 4 4C4 4.55228 4.44772 5 5 5V3ZM11 20C11 20.5523 11.4477 21 12 21C12.5523 21 13 20.5523 13 20H11ZM12 8L12.7071 7.29289C12.3166 6.90237 11.6834 6.90237 11.2929 7.29289L12 8ZM8.29289 10.2929C7.90237 10.6834 7.90237 11.3166 8.29289 11.7071C8.68342 12.0976 9.31658 12.0976 9.70711 11.7071L8.29289 10.2929ZM14.2929 11.7071C14.6834 12.0976 15.3166 12.0976 15.7071 11.7071C16.0976 11.3166 16.0976 10.6834 15.7071 10.2929L14.2929 11.7071ZM19 3H5V5H19V3ZM13 20L13 8H11L11 20H13ZM11.2929 7.29289L8.29289 10.2929L9.70711 11.7071L12.7071 8.70711L11.2929 7.29289ZM11.2929 8.70711L14.2929 11.7071L15.7071 10.2929L12.7071 7.29289L11.2929 8.70711Z" fill="white"/>
</svg>
