<svg width="24" height="24" viewBox="0 0 24 24" fill="none" xmlns="http://www.w3.org/2000/svg">
<path d="M7.70015 17.6402L6.93193 18.2804L7.70015 17.6402ZM7.70015 6.35982L6.93193 5.71963L7.70015 6.35982ZM3.53349 11.3598L2.76527 10.7196L3.53349 11.3598ZM4.30171 12L8.46838 7L6.93193 5.71963L2.76527 10.7196L4.30171 12ZM8.46837 7H18V5H8.46837V7ZM20 9V15H22V9H20ZM18 17H8.46838V19H18V17ZM8.46837 17L4.30171 12L2.76527 13.2804L6.93193 18.2804L8.46837 17ZM8.46838 17H8.46837L6.93193 18.2804C7.31192 18.7364 7.87482 19 8.46838 19V17ZM20 15C20 16.1046 19.1046 17 18 17V19C20.2091 19 22 17.2091 22 15H20ZM18 7C19.1046 7 20 7.89543 20 9H22C22 6.79086 20.2091 5 18 5V7ZM8.46838 7L8.46837 7V5C7.87482 5 7.31192 5.26365 6.93193 5.71963L8.46838 7ZM2.76527 10.7196C2.14719 11.4613 2.14719 12.5387 2.76527 13.2804L4.30171 12L4.30171 12L2.76527 10.7196Z" fill="white"/>
<path d="M15.7071 10.7071C16.0976 10.3166 16.0976 9.68342 15.7071 9.29289C15.3166 8.90237 14.6834 8.90237 14.2929 9.29289L15.7071 10.7071ZM10.2929 13.2929C9.90237 13.6834 9.90237 14.3166 10.2929 14.7071C10.6834 15.0976 11.3166 15.0976 11.7071 14.7071L10.2929 13.2929ZM11.7071 9.29289C11.3166 8.90237 10.6834 8.90237 10.2929 9.29289C9.90237 9.68342 9.90237 10.3166 10.2929 10.7071L11.7071 9.29289ZM14.2929 14.7071C14.6834 15.0976 15.3166 15.0976 15.7071 14.7071C16.0976 14.3166 16.0976 13.6834 15.7071 13.2929L14.2929 14.7071ZM14.2929 9.29289L12.2929 11.2929L13.7071 12.7071L15.7071 10.7071L14.2929 9.29289ZM12.2929 11.2929L10.2929 13.2929L11.7071 14.7071L13.7071 12.7071L12.2929 11.2929ZM13.7071 11.2929L11.7071 9.29289L10.2929 10.7071L12.2929 12.7071L13.7071 11.2929ZM12.2929 12.7071L14.2929 14.7071L15.7071 13.2929L13.7071 11.2929L12.2929 12.7071Z" fill="white"/>
</svg>
