<svg width="24" height="24" viewBox="0 0 24 24" fill="none" xmlns="http://www.w3.org/2000/svg">
<path d="M3 9C3 7.89543 3.89543 7 5 7H6.5C7.12951 7 7.72229 6.70361 8.1 6.2L9.15 4.8C9.52771 4.29639 10.1205 4 10.75 4H13.25C13.8795 4 14.4723 4.29639 14.85 4.8L15.9 6.2C16.2777 6.70361 16.8705 7 17.5 7H19C20.1046 7 21 7.89543 21 9V18C21 19.1046 20.1046 20 19 20H5C3.89543 20 3 19.1046 3 18V9Z" stroke="white" stroke-width="2" stroke-linecap="round" stroke-linejoin="round"/>
<circle cx="12" cy="13" r="4" stroke="white" stroke-width="2" stroke-linecap="round" stroke-linejoin="round"/>
</svg>
