<svg width="24" height="24" viewBox="0 0 24 24" fill="none" xmlns="http://www.w3.org/2000/svg">
<g clip-path="url(#clip0_310_17578)">
<rect x="2" y="6" width="20" height="12" stroke="white" stroke-width="2" stroke-linecap="round" stroke-linejoin="round"/>
<path d="M22 10C21.4747 10 20.9546 9.89654 20.4693 9.69552C19.984 9.4945 19.543 9.19986 19.1716 8.82843C18.8001 8.45699 18.5055 8.01604 18.3045 7.53073C18.1035 7.04543 18 6.52529 18 6L22 6L22 10Z" stroke="white" stroke-width="2" stroke-linecap="round" stroke-linejoin="round"/>
<path d="M18 18C18 16.9391 18.4214 15.9217 19.1716 15.1716C19.9217 14.4214 20.9391 14 22 14L22 18L18 18Z" stroke="white" stroke-width="2" stroke-linecap="round" stroke-linejoin="round"/>
<path d="M2 14C3.06087 14 4.07828 14.4214 4.82843 15.1716C5.57857 15.9217 6 16.9391 6 18L2 18L2 14Z" stroke="white" stroke-width="2" stroke-linecap="round" stroke-linejoin="round"/>
<path d="M6 6C6 7.06087 5.57857 8.07828 4.82843 8.82843C4.07828 9.57857 3.06087 10 2 10L2 6H6Z" stroke="white" stroke-width="2" stroke-linecap="round" stroke-linejoin="round"/>
<path d="M14.0741 10.5C14.6264 10.5 15.0741 10.0523 15.0741 9.5C15.0741 8.94772 14.6264 8.5 14.0741 8.5V10.5ZM10 13.5C9.44772 13.5 9 13.9477 9 14.5C9 15.0523 9.44772 15.5 10 15.5V13.5ZM14.0741 8.5H11.3333V10.5H14.0741V8.5ZM11.3333 13H13.1111V11H11.3333V13ZM13.1111 13.5H10V15.5H13.1111V13.5ZM13.4444 13.25C13.4444 13.3283 13.357 13.5 13.1111 13.5V15.5C14.338 15.5 15.4444 14.5525 15.4444 13.25H13.4444ZM13.1111 13C13.357 13 13.4444 13.1717 13.4444 13.25H15.4444C15.4444 11.9475 14.338 11 13.1111 11V13ZM9 10.75C9 12.0525 10.1064 13 11.3333 13V11C11.0875 11 11 10.8283 11 10.75H9ZM11.3333 8.5C10.1064 8.5 9 9.44754 9 10.75H11C11 10.6717 11.0875 10.5 11.3333 10.5V8.5Z" fill="white"/>
<path d="M12 9.51733V8.5" stroke="white" stroke-width="2" stroke-linecap="round" stroke-linejoin="round"/>
<path d="M12 15.5173V14.5" stroke="white" stroke-width="2" stroke-linecap="round" stroke-linejoin="round"/>
</g>
<defs>
<clipPath id="clip0_310_17578">
<rect width="24" height="24" fill="white"/>
</clipPath>
</defs>
</svg>
