<svg width="24" height="24" viewBox="0 0 24 24" fill="none" xmlns="http://www.w3.org/2000/svg">
<path fill-rule="evenodd" clip-rule="evenodd" d="M12 6C12.5523 6 13 6.44772 13 7V11L17 11C17.5523 11 18 11.4477 18 12C18 12.5523 17.5523 13 17 13L13 13L13 17C13 17.5523 12.5523 18 12 18C11.4477 18 11 17.5523 11 17L11 13L7 13C6.44772 13 6 12.5523 6 12C6 11.4477 6.44772 11 7 11L11 11V7C11 6.44772 11.4477 6 12 6Z" fill="white"/>
<path fill-rule="evenodd" clip-rule="evenodd" d="M12 4C7.58172 4 4 7.58172 4 12C4 16.4183 7.58172 20 12 20C16.4183 20 20 16.4183 20 12C20 7.58172 16.4183 4 12 4ZM2 12C2 6.47715 6.47715 2 12 2C17.5228 2 22 6.47715 22 12C22 17.5228 17.5228 22 12 22C6.47715 22 2 17.5228 2 12Z" fill="white"/>
</svg>
