<svg width="24" height="24" viewBox="0 0 24 24" fill="none" xmlns="http://www.w3.org/2000/svg">
<path fill-rule="evenodd" clip-rule="evenodd" d="M9.70711 6.29289C10.0976 6.68342 10.0976 7.31658 9.70711 7.70711L5.41421 12L9.70711 16.2929C10.0976 16.6834 10.0976 17.3166 9.70711 17.7071C9.31658 18.0976 8.68342 18.0976 8.29289 17.7071L3.29289 12.7071C2.90237 12.3166 2.90237 11.6834 3.29289 11.2929L8.29289 6.29289C8.68342 5.90237 9.31658 5.90237 9.70711 6.29289Z" fill="white"/>
<path fill-rule="evenodd" clip-rule="evenodd" d="M14.2929 6.29289C13.9024 6.68342 13.9024 7.31658 14.2929 7.70711L18.5858 12L14.2929 16.2929C13.9024 16.6834 13.9024 17.3166 14.2929 17.7071C14.6834 18.0976 15.3166 18.0976 15.7071 17.7071L20.7071 12.7071C21.0976 12.3166 21.0976 11.6834 20.7071 11.2929L15.7071 6.29289C15.3166 5.90237 14.6834 5.90237 14.2929 6.29289Z" fill="white"/>
</svg>
