<svg width="24" height="24" viewBox="0 0 24 24" fill="none" xmlns="http://www.w3.org/2000/svg">
<path d="M21.711 7.46291L11.384 6.95691L24 6.94791V5.93091H9.776L9.775 8.05891V9.75091C9.775 9.78191 9.36 7.25591 9.265 6.54891H8.147V10.1039C8.147 10.1379 7.668 7.13291 7.617 6.75791H0C0.519 7.20691 3.384 9.64991 5.421 10.6549C6.442 11.1579 7.694 11.1619 8.809 11.1929C9.375 11.2099 9.968 11.2529 10.392 11.6719C11.008 12.2819 11.145 13.2289 10.614 13.9449C10.09 14.6529 8.613 14.8059 8.613 14.8059L7.382 16.3159V18.0689H10.18L10.267 16.3369L12.685 14.6209C12.427 14.8279 11.851 15.3809 10.986 16.7129C10.79 17.0139 10.638 17.3429 10.519 17.6659C11.129 17.1479 12.385 16.7939 13.835 16.7939C15.283 16.7939 16.538 17.1479 17.15 17.6639C17.0298 17.331 16.8731 17.0124 16.683 16.7139C15.818 15.3809 15.241 14.8279 14.983 14.6219L17.402 16.3369L17.489 18.0689H20.1V16.3159L18.87 14.8069C18.87 14.8069 17.048 14.6909 16.571 13.9449C15.198 11.7979 17.148 8.46491 21.711 7.46291Z" fill="white"/>
</svg>
