<svg width="24" height="24" viewBox="0 0 24 24" fill="none" xmlns="http://www.w3.org/2000/svg">
<path fill-rule="evenodd" clip-rule="evenodd" d="M11.0474 4.16624C12.9338 3.77558 14.8978 4.07875 16.5787 5.02005C18.2595 5.96135 19.5442 7.47756 20.1967 9.29011C20.8493 11.1027 20.8259 13.0898 20.1308 14.8865C19.4357 16.6832 18.1156 18.1687 16.4131 19.0701C14.7106 19.9716 12.74 20.2284 10.8633 19.7934C8.9866 19.3584 7.32991 18.2608 6.19757 16.7023C5.87295 16.2555 5.24758 16.1564 4.80077 16.481C4.35396 16.8057 4.25491 17.431 4.57954 17.8778C5.99496 19.826 8.06583 21.198 10.4117 21.7417C12.7575 22.2855 15.2208 21.9644 17.349 20.8376C19.4771 19.7108 21.1272 17.8539 21.9961 15.6081C22.8649 13.3623 22.8942 10.8783 22.0785 8.61263C21.2628 6.34694 19.6569 4.45168 17.5559 3.27506C15.4549 2.09843 12.9998 1.71947 10.6418 2.20779C8.28381 2.69611 6.18119 4.01892 4.72026 5.93319C3.73958 7.21819 3.09227 8.71178 2.81841 10.2818L2.70708 10.1705C2.31655 9.77999 1.68339 9.77999 1.29286 10.1705C0.90234 10.561 0.90234 11.1942 1.29287 11.5847L2.98036 13.2722C3.37089 13.6627 4.00405 13.6627 4.39458 13.2722L6.08207 11.5847C6.4726 11.1942 6.4726 10.561 6.08207 10.1705C5.76989 9.85833 5.30264 9.79571 4.92825 9.98265C5.19399 8.9629 5.66069 7.99755 6.31015 7.14655C7.47889 5.61514 9.16099 4.55689 11.0474 4.16624Z" fill="white"/>
<path fill-rule="evenodd" clip-rule="evenodd" d="M12.6697 5.5C13.222 5.5 13.6697 5.94772 13.6697 6.5V11.382L17.1169 13.1056C17.6109 13.3526 17.8111 13.9532 17.5641 14.4472C17.3171 14.9412 16.7164 15.1414 16.2225 14.8944L12.2225 12.8944C11.8837 12.725 11.6697 12.3788 11.6697 12V6.5C11.6697 5.94772 12.1174 5.5 12.6697 5.5Z" fill="white"/>
</svg>
