<svg width="24" height="24" viewBox="0 0 24 24" fill="none" xmlns="http://www.w3.org/2000/svg">
<path d="M17.4143 5.41415L18.1214 4.70705V4.70705L17.4143 5.41415ZM18.5858 6.58572L17.8787 7.29283L18.5858 6.58572ZM10.0809 9.91905L10.7881 10.6262L10.0809 9.91905ZM14.5858 5.41416L13.8787 4.70705V4.70705L14.5858 5.41416ZM9.95962 14.0404C10.3501 14.4309 10.9833 14.4309 11.3738 14.0404C11.7644 13.6498 11.7644 13.0167 11.3738 12.6262L9.95962 14.0404ZM10.0809 12.7475L10.7881 12.0404H10.7881L10.0809 12.7475ZM18.5858 9.41415L19.2929 10.1213V10.1213L18.5858 9.41415ZM16.293 10.2928C15.9024 10.6834 15.9024 11.3165 16.293 11.707C16.6835 12.0976 17.3166 12.0976 17.7072 11.707L16.293 10.2928ZM6.58585 18.5857L7.29295 17.8786L6.58585 18.5857ZM5.41428 17.4142L4.70717 18.1213H4.70717L5.41428 17.4142ZM14.0405 9.95951C13.65 9.56899 13.0168 9.56899 12.6263 9.95951C12.2358 10.35 12.2358 10.9832 12.6263 11.3737L14.0405 9.95951ZM13.9192 11.2524L14.6263 10.5453V10.5453L13.9192 11.2524ZM5.41428 14.5857L4.70717 13.8786H4.70717L5.41428 14.5857ZM7.70717 13.7071C8.09769 13.3165 8.09769 12.6834 7.70717 12.2928C7.31664 11.9023 6.68348 11.9023 6.29295 12.2928L7.70717 13.7071ZM16.7072 6.12126L17.8787 7.29283L19.2929 5.87862L18.1214 4.70705L16.7072 6.12126ZM10.7881 10.6262L15.293 6.12126L13.8787 4.70705L9.37384 9.21195L10.7881 10.6262ZM11.3738 12.6262L10.7881 12.0404L9.37384 13.4546L9.95962 14.0404L11.3738 12.6262ZM17.8787 8.70704L16.293 10.2928L17.7072 11.707L19.2929 10.1213L17.8787 8.70704ZM7.29295 17.8786L6.12138 16.7071L4.70717 18.1213L5.87874 19.2928L7.29295 17.8786ZM13.2121 13.3737L8.70717 17.8786L10.1214 19.2928L14.6263 14.7879L13.2121 13.3737ZM12.6263 11.3737L13.2121 11.9595L14.6263 10.5453L14.0405 9.95951L12.6263 11.3737ZM6.12138 15.2928L7.70717 13.7071L6.29295 12.2928L4.70717 13.8786L6.12138 15.2928ZM14.6263 14.7879C15.7979 13.6164 15.7979 11.7169 14.6263 10.5453L13.2121 11.9595C13.6026 12.35 13.6026 12.9832 13.2121 13.3737L14.6263 14.7879ZM6.12138 16.7071C5.73086 16.3165 5.73086 15.6834 6.12138 15.2928L4.70717 13.8786C3.5356 15.0502 3.5356 16.9497 4.70717 18.1213L6.12138 16.7071ZM5.87874 19.2928C7.05031 20.4644 8.94981 20.4644 10.1214 19.2928L8.70717 17.8786C8.31664 18.2691 7.68348 18.2691 7.29295 17.8786L5.87874 19.2928ZM9.37384 9.21195C8.20227 10.3835 8.20227 12.283 9.37384 13.4546L10.7881 12.0404C10.3975 11.6498 10.3975 11.0167 10.7881 10.6262L9.37384 9.21195ZM17.8787 7.29283C18.2693 7.68335 18.2693 8.31652 17.8787 8.70704L19.2929 10.1213C20.4645 8.94968 20.4645 7.05019 19.2929 5.87862L17.8787 7.29283ZM18.1214 4.70705C16.9498 3.53547 15.0503 3.53548 13.8787 4.70705L15.293 6.12126C15.6835 5.73074 16.3166 5.73074 16.7072 6.12126L18.1214 4.70705Z" fill="white"/>
</svg>
