<svg width="24" height="24" viewBox="0 0 24 24" fill="none" xmlns="http://www.w3.org/2000/svg">
<path d="M11.4216 5.34687L11.8885 4.46257C11.6388 4.33071 11.3449 4.31059 11.0796 4.40718L11.4216 5.34687ZM8.60251 6.37293L8.26049 5.43324C7.96713 5.54001 7.74047 5.77766 7.64769 6.07574C7.55491 6.37382 7.60666 6.69813 7.7876 6.95253L8.60251 6.37293ZM15.3736 7.43354L14.9067 8.31784C15.1757 8.45989 15.4948 8.47175 15.7736 8.35007L15.3736 7.43354ZM16.5296 6.92906L16.1296 6.01253L16.5296 6.92906ZM7.70772 14.1478L7.02019 14.874C7.29524 15.1344 7.69381 15.2171 8.04974 15.0875L7.70772 14.1478ZM6.89589 13.3792L7.58342 12.653C7.30837 12.3926 6.9098 12.31 6.55387 12.4395L6.89589 13.3792ZM6.89587 13.3792L6.20834 14.1054C6.48338 14.3658 6.88196 14.4484 7.23789 14.3189L6.89587 13.3792ZM5.27212 11.8418L5.95966 11.1157L5.95966 11.1156L5.27212 11.8418ZM3.6484 10.3044L3.30638 9.36474C2.9807 9.48328 2.73962 9.76199 2.66924 10.1013C2.59885 10.4407 2.70919 10.7923 2.96086 11.0306L3.6484 10.3044ZM6.46747 9.27837L7.15501 8.55222C6.87996 8.2918 6.48138 8.20913 6.12545 8.33868L6.46747 9.27837ZM7.94358 10.676L7.25605 11.4021C7.5475 11.6781 7.9757 11.753 8.34356 11.5925L7.94358 10.676ZM10.782 9.4373L11.182 10.3538C11.4581 10.2333 11.6651 9.99482 11.7456 9.70455C11.8262 9.41427 11.7715 9.10317 11.5969 8.8577L10.782 9.4373ZM11.0796 4.40718L8.26049 5.43324L8.94453 7.31262L11.7636 6.28656L11.0796 4.40718ZM15.8405 6.54924L11.8885 4.46257L10.9547 6.23117L14.9067 8.31784L15.8405 6.54924ZM16.1296 6.01253L14.9736 6.51701L15.7736 8.35007L16.9296 7.84559L16.1296 6.01253ZM22.1869 8.61017C21.2949 6.15936 18.52 4.96937 16.1296 6.01253L16.9296 7.84559C18.2626 7.26385 19.8101 7.92747 20.3075 9.29421L22.1869 8.61017ZM21.4389 10.2143C22.0884 9.97787 22.4233 9.25969 22.1869 8.61017L20.3075 9.29421C20.1662 8.90578 20.3664 8.47628 20.7549 8.3349L21.4389 10.2143ZM8.04974 15.0875L21.4389 10.2143L20.7549 8.3349L7.3657 13.2082L8.04974 15.0875ZM6.20836 14.1054L7.02019 14.874L8.39525 13.4217L7.58342 12.653L6.20836 14.1054ZM6.55387 12.4395L6.55385 12.4395L7.23789 14.3189L7.23791 14.3189L6.55387 12.4395ZM7.58341 12.6531L5.95966 11.1157L4.58459 12.568L6.20834 14.1054L7.58341 12.6531ZM5.95966 11.1156L4.33593 9.57828L2.96086 11.0306L4.58459 12.568L5.95966 11.1156ZM3.99042 11.2441L6.80949 10.2181L6.12545 8.33868L3.30638 9.36474L3.99042 11.2441ZM5.77994 10.0045L7.25605 11.4021L8.63112 9.94983L7.15501 8.55222L5.77994 10.0045ZM10.3821 8.52077L7.54361 9.75945L8.34356 11.5925L11.182 10.3538L10.3821 8.52077ZM7.7876 6.95253L9.96712 10.0169L11.5969 8.8577L9.41741 5.79333L7.7876 6.95253Z" fill="white"/>
<path d="M4 19L20 19" stroke="white" stroke-width="2" stroke-linecap="round" stroke-linejoin="round"/>
</svg>
