<svg width="24" height="24" viewBox="0 0 24 24" fill="none" xmlns="http://www.w3.org/2000/svg">
<path d="M6.34319 19.0711L5.63608 19.7782H5.63608L6.34319 19.0711ZM4.92897 17.6569L5.63608 16.9498H5.63608L4.92897 17.6569ZM4.92897 13.4142L4.22187 12.7071H4.22187L4.92897 13.4142ZM8.46451 11.2929C8.85503 10.9024 8.85503 10.2692 8.46451 9.8787C8.07398 9.48818 7.44082 9.48818 7.05029 9.8787L8.46451 11.2929ZM14.1214 16.9498C14.5119 16.5592 14.5119 15.9261 14.1214 15.5356C13.7308 15.145 13.0977 15.145 12.7071 15.5356L14.1214 16.9498ZM9.17162 13.4143C8.7811 13.8048 8.7811 14.438 9.17162 14.8285C9.56215 15.219 10.1953 15.219 10.5858 14.8285L9.17162 13.4143ZM14.8285 10.5858C15.219 10.1953 15.219 9.56215 14.8285 9.17163C14.438 8.7811 13.8048 8.7811 13.4143 9.17163L14.8285 10.5858ZM19.0711 6.34319L18.364 7.05029V7.05029L19.0711 6.34319ZM17.6569 4.92897L18.364 4.22187V4.22187L17.6569 4.92897ZM13.4142 4.92897L14.1213 5.63608L13.4142 4.92897ZM9.8787 7.05029C9.48818 7.44082 9.48818 8.07398 9.8787 8.46451C10.2692 8.85503 10.9024 8.85503 11.2929 8.46451L9.8787 7.05029ZM19.0711 10.5858L18.364 9.87872L19.0711 10.5858ZM15.5356 12.7071C15.145 13.0977 15.145 13.7308 15.5356 14.1214C15.9261 14.5119 16.5592 14.5119 16.9498 14.1214L15.5356 12.7071ZM7.05029 18.364L5.63608 16.9498L4.22187 18.364L5.63608 19.7782L7.05029 18.364ZM10.5858 14.8285L14.8285 10.5858L13.4143 9.17163L9.17162 13.4143L10.5858 14.8285ZM19.7782 5.63608L18.364 4.22187L16.9498 5.63608L18.364 7.05029L19.7782 5.63608ZM18.364 7.05029C19.145 7.83134 19.145 9.09767 18.364 9.87872L19.7782 11.2929C21.3403 9.73084 21.3403 7.19818 19.7782 5.63608L18.364 7.05029ZM18.364 4.22187C16.8019 2.65977 14.2692 2.65977 12.7071 4.22187L14.1213 5.63608C14.9024 4.85503 16.1687 4.85503 16.9498 5.63608L18.364 4.22187ZM5.63608 19.7782C7.19818 21.3403 9.73084 21.3403 11.2929 19.7782L9.87872 18.364C9.09767 19.145 7.83134 19.145 7.05029 18.364L5.63608 19.7782ZM5.63608 16.9498C4.85503 16.1687 4.85503 14.9024 5.63608 14.1213L4.22187 12.7071C2.65977 14.2692 2.65977 16.8019 4.22187 18.364L5.63608 16.9498ZM5.63608 14.1213L8.46451 11.2929L7.05029 9.8787L4.22187 12.7071L5.63608 14.1213ZM12.7071 15.5356L9.87872 18.364L11.2929 19.7782L14.1214 16.9498L12.7071 15.5356ZM12.7071 4.22187L9.8787 7.05029L11.2929 8.46451L14.1213 5.63608L12.7071 4.22187ZM16.9498 14.1214L19.7782 11.2929L18.364 9.87872L15.5356 12.7071L16.9498 14.1214Z" fill="white"/>
</svg>
