<svg width="24" height="24" viewBox="0 0 24 24" fill="none" xmlns="http://www.w3.org/2000/svg">
<path d="M10 9C10.5523 9 11 8.55228 11 8C11 7.44772 10.5523 7 10 7V9ZM10 17C10.5523 17 11 16.5523 11 16C11 15.4477 10.5523 15 10 15V17ZM9 11C8.44772 11 8 11.4477 8 12C8 12.5523 8.44772 13 9 13V11ZM15 13C15.5523 13 16 12.5523 16 12C16 11.4477 15.5523 11 15 11V13ZM14 7C13.4477 7 13 7.44772 13 8C13 8.55228 13.4477 9 14 9V7ZM14 15C13.4477 15 13 15.4477 13 16C13 16.5523 13.4477 17 14 17V15ZM4 13V11H2V13H4ZM9 13H15V11H9V13ZM22 13V11H20V13H22ZM20 13C20 14.1046 19.1046 15 18 15V17C20.2091 17 22 15.2091 22 13H20ZM22 11C22 8.79086 20.2091 7 18 7V9C19.1046 9 20 9.89543 20 11H22ZM2 13C2 15.2091 3.79086 17 6 17V15C4.89543 15 4 14.1046 4 13H2ZM4 11C4 9.89543 4.89543 9 6 9V7C3.79086 7 2 8.79086 2 11H4ZM6 9H10V7H6V9ZM10 15H6V17H10V15ZM18 7H14V9H18V7ZM14 17H18V15H14V17Z" fill="white"/>
</svg>
