<svg width="24" height="24" viewBox="0 0 24 24" fill="none" xmlns="http://www.w3.org/2000/svg">
<path fill-rule="evenodd" clip-rule="evenodd" d="M12 5C8.13401 5 5 8.13401 5 12C5 15.866 8.13401 19 12 19C15.866 19 19 15.866 19 12C19 8.13401 15.866 5 12 5ZM3 12C3 7.02944 7.02944 3 12 3C16.9706 3 21 7.02944 21 12C21 16.9706 16.9706 21 12 21C7.02944 21 3 16.9706 3 12Z" fill="white" fill-opacity="0.3"/>
<path fill-rule="evenodd" clip-rule="evenodd" d="M11 4.00001C11 3.44772 11.4477 3.00001 12 3.00001C13.78 3.00001 15.5201 3.52785 17.0001 4.51678C18.4802 5.50571 19.6337 6.91132 20.3149 8.55585C20.9961 10.2004 21.1743 12.01 20.8271 13.7558C20.4798 15.5016 19.6226 17.1053 18.364 18.364C17.9734 18.7545 17.3403 18.7545 16.9497 18.364C16.5592 17.9734 16.5592 17.3403 16.9497 16.9498C17.9287 15.9708 18.5954 14.7235 18.8655 13.3656C19.1356 12.0078 18.997 10.6003 18.4672 9.32122C17.9373 8.04214 17.0401 6.94889 15.889 6.17972C14.7378 5.41055 13.3845 5.00001 12 5.00001C11.4477 5.00001 11 4.55229 11 4.00001Z" fill="white"/>
</svg>
