<svg width="24" height="24" viewBox="0 0 24 24" fill="none" xmlns="http://www.w3.org/2000/svg">
<path fill-rule="evenodd" clip-rule="evenodd" d="M9.00004 7.91421V11C9.00004 12.6569 10.3432 14 12 14C12.8503 14 13.6179 13.6463 14.1638 13.078L12.7487 11.6629C12.5655 11.8697 12.298 12 12 12C11.4478 12 11 11.5523 11 11V9.91422L9.00004 7.91421ZM13 9.08579V5C13 4.44772 12.5523 4 12 4C11.4478 4 11 4.44772 11 5V7.08579L9.00004 5.08579V5C9.00004 3.34315 10.3432 2 12 2C13.6569 2 15 3.34315 15 5V11C15 11.0283 14.9997 11.0565 14.9989 11.0846L13 9.08579ZM15.5782 14.4924C15.4023 14.6727 15.2121 14.8402 15.0091 14.9932C14.1658 15.6286 13.143 15.9808 12.0873 15.9992C12.0594 15.9997 12.0315 16 12.0036 16C10.977 16.0007 9.97424 15.6854 9.13216 15.0958C8.26722 14.4901 7.61622 13.6262 7.27245 12.6278C7.09264 12.1056 6.52356 11.8281 6.00136 12.0079C5.47917 12.1877 5.20161 12.7568 5.38141 13.279C5.86269 14.6767 6.77409 15.8862 7.98501 16.7341C8.88694 17.3656 9.92054 17.7724 11 17.9282V20H9.00004C8.44776 20 8.00004 20.4477 8.00004 21C8.00004 21.5523 8.44776 22 9.00004 22H12H15C15.5523 22 16 21.5523 16 21C16 20.4477 15.5523 20 15 20H13V17.9282C14.1618 17.7605 15.2678 17.3025 16.2127 16.5904C16.4905 16.3812 16.7509 16.1525 16.9925 15.9067L15.5782 14.4924ZM18.1876 14.2733L16.6785 12.7642C16.716 12.6648 16.7504 12.5639 16.7816 12.4619C16.943 11.9337 17.5021 11.6365 18.0302 11.7979C18.5584 11.9594 18.8556 12.5184 18.6942 13.0466C18.5639 13.4729 18.3938 13.8834 18.1876 14.2733Z" fill="white"/>
<path d="M5 5L19 19" stroke="white" stroke-width="2" stroke-linecap="round" stroke-linejoin="round"/>
</svg>
