<svg width="24" height="24" viewBox="0 0 24 24" fill="none" xmlns="http://www.w3.org/2000/svg">
<path fill-rule="evenodd" clip-rule="evenodd" d="M19.7071 4.29289C19.3166 3.90237 18.6834 3.90237 18.2929 4.29289L15 7.58579V5C15 4.44772 14.5523 4 14 4C13.4477 4 13 4.44772 13 5V10C13 10.5523 13.4477 11 14 11H19C19.5523 11 20 10.5523 20 10C20 9.44772 19.5523 9 19 9H16.4142L19.7071 5.70711C20.0976 5.31658 20.0976 4.68342 19.7071 4.29289Z" fill="white"/>
<path fill-rule="evenodd" clip-rule="evenodd" d="M4.29289 19.7071C4.68342 20.0976 5.31658 20.0976 5.70711 19.7071L9 16.4142L9 19C9 19.5523 9.44772 20 10 20C10.5523 20 11 19.5523 11 19L11 14C11 13.4477 10.5523 13 10 13L5 13C4.44771 13 4 13.4477 4 14C4 14.5523 4.44771 15 5 15L7.58579 15L4.29289 18.2929C3.90237 18.6834 3.90237 19.3166 4.29289 19.7071Z" fill="white"/>
</svg>
