<svg width="24" height="24" viewBox="0 0 24 24" fill="none" xmlns="http://www.w3.org/2000/svg">
<path d="M21 7.5V6C21 4.34315 19.6569 3 18 3H6C4.34315 3 3 4.34315 3 6V7.5M21 16.5V18C21 19.6569 19.6569 21 18 21H6C4.34315 21 3 19.6569 3 18V16.5" stroke="white" stroke-width="2" stroke-linecap="round" stroke-linejoin="round"/>
<path d="M3 11C2.44772 11 2 11.4477 2 12C2 12.5523 2.44772 13 3 13V11ZM7 12V13C7.31476 13 7.61115 12.8518 7.8 12.6L7 12ZM10 8L10.9363 7.64888C10.8081 7.30683 10.5035 7.06195 10.1419 7.01012C9.78028 6.95829 9.41918 7.10776 9.2 7.4L10 8ZM13 16L12.0637 16.3511C12.1919 16.6932 12.4965 16.9381 12.8581 16.9899C13.2197 17.0417 13.5808 16.8922 13.8 16.6L13 16ZM16 12V11C15.6852 11 15.3889 11.1482 15.2 11.4L16 12ZM21 13C21.5523 13 22 12.5523 22 12C22 11.4477 21.5523 11 21 11V13ZM3 13H7V11H3V13ZM7.8 12.6L10.8 8.6L9.2 7.4L6.2 11.4L7.8 12.6ZM9.06367 8.35112L12.0637 16.3511L13.9363 15.6489L10.9363 7.64888L9.06367 8.35112ZM13.8 16.6L16.8 12.6L15.2 11.4L12.2 15.4L13.8 16.6ZM16 13H21V11H16V13Z" fill="white"/>
</svg>
