<svg width="24" height="24" viewBox="0 0 24 24" fill="none" xmlns="http://www.w3.org/2000/svg">
<path d="M4 4L4.44721 3.10557C4.09791 2.93092 3.6789 2.97559 3.37427 3.21996C3.06964 3.46432 2.93514 3.86367 3.02986 4.24254L4 4ZM20 12L20.4472 12.8944C20.786 12.725 21 12.3788 21 12C21 11.6212 20.786 11.275 20.4472 11.1056L20 12ZM4 20L3.02986 19.7575C2.93514 20.1363 3.06964 20.5357 3.37427 20.78C3.6789 21.0244 4.09791 21.0691 4.44721 20.8944L4 20ZM3.55279 4.89443L19.5528 12.8944L20.4472 11.1056L4.44721 3.10557L3.55279 4.89443ZM19.5528 11.1056L3.55279 19.1056L4.44721 20.8944L20.4472 12.8944L19.5528 11.1056ZM4.97014 20.2425L6.97014 12.2425L5.02986 11.7575L3.02986 19.7575L4.97014 20.2425ZM6.97014 11.7575L4.97014 3.75746L3.02986 4.24254L5.02986 12.2425L6.97014 11.7575ZM6 13H20V11H6V13Z" fill="white"/>
</svg>
