<svg width="24" height="24" viewBox="0 0 24 24" fill="none" xmlns="http://www.w3.org/2000/svg">
<path d="M6.0717 6.26794L6.5717 5.40192L6.0717 6.26794ZM4.70567 6.63397L3.83965 6.13397L3.83965 6.13397L4.70567 6.63397ZM3.70567 8.36602L2.83965 7.86602H2.83965L3.70567 8.36602ZM4.0717 9.73205L3.5717 10.5981H3.5717L4.0717 9.73205ZM4.0717 14.2679L3.5717 13.4019H3.5717L4.0717 14.2679ZM3.70567 15.634L4.5717 15.134H4.5717L3.70567 15.634ZM4.70567 17.366L3.83965 17.866H3.83965L4.70567 17.366ZM6.0717 17.732L6.5717 18.5981L6.0717 17.732ZM17.9281 17.732L17.4281 18.5981L17.4281 18.5981L17.9281 17.732ZM19.2941 17.366L18.4281 16.866L19.2941 17.366ZM20.2941 15.634L21.1602 16.134L20.2941 15.634ZM19.9281 14.2679L19.4281 15.134V15.134L19.9281 14.2679ZM19.9281 9.73205L20.4281 10.5981V10.5981L19.9281 9.73205ZM20.2941 8.36602L19.4281 8.86602L19.4281 8.86602L20.2941 8.36602ZM19.2941 6.63397L18.4281 7.13397L19.2941 6.63397ZM17.9281 6.26794L18.4281 7.13397L17.9281 6.26794ZM14.6511 6.61604L14.2087 7.51283L14.6511 6.61604ZM16.5117 7.08573L17.0117 7.95175L16.5117 7.08573ZM15.3357 7.01204L14.7791 7.84277L15.3357 7.01204ZM17.987 11.6035L16.9891 11.6686L17.987 11.6035ZM18.5115 10.5499L18.0115 9.68388L18.5115 10.5499ZM15.3357 16.988L14.7791 16.1572L15.3357 16.988ZM16.5117 16.9143L16.0117 17.7803L16.5117 16.9143ZM18.5115 13.4501L18.0115 14.3161L18.5115 13.4501ZM9.34867 17.384L9.79112 16.4872L9.34867 17.384ZM7.48814 16.9143L6.98814 16.0482L7.48814 16.9143ZM8.66406 16.988L8.10738 17.8187L8.66406 16.988ZM14.6511 17.384L15.0936 18.2808L14.6511 17.384ZM5.48827 10.5499L4.98827 11.4159L5.48827 10.5499ZM6.01279 11.6035L5.01492 11.5385L6.01279 11.6035ZM7.48815 7.08573L6.98815 7.95176L7.48815 7.08573ZM10.9999 4V4V2C9.89533 2 8.9999 2.89543 8.9999 4H10.9999ZM10.9999 5.63424V4H8.9999V5.63424H10.9999ZM9.22074 7.84277C9.40288 7.72073 9.59336 7.6104 9.79112 7.51283L8.90622 5.71924C8.62898 5.85603 8.36221 6.01056 8.10739 6.18131L9.22074 7.84277ZM5.5717 7.13397L6.98815 7.95176L7.98815 6.2197L6.5717 5.40192L5.5717 7.13397ZM5.5717 7.13397L6.5717 5.40192C5.61512 4.84963 4.39193 5.17738 3.83965 6.13397L5.5717 7.13397ZM4.5717 8.86602L5.5717 7.13397L3.83965 6.13397L2.83965 7.86602L4.5717 8.86602ZM4.5717 8.86602L4.5717 8.86602L2.83965 7.86602C2.28736 8.82261 2.61512 10.0458 3.5717 10.5981L4.5717 8.86602ZM5.98827 9.68388L4.5717 8.86602L3.5717 10.5981L4.98827 11.4159L5.98827 9.68388ZM6.99991 12C6.99991 11.8885 7.00354 11.778 7.01067 11.6686L5.01492 11.5385C5.00495 11.6912 4.9999 11.8451 4.9999 12H6.99991ZM7.01067 12.3314C7.00354 12.222 6.99991 12.1115 6.99991 12H4.9999C4.9999 12.1549 5.00495 12.3088 5.01491 12.4615L7.01067 12.3314ZM4.5717 15.134L5.98827 14.3161L4.98827 12.5841L3.5717 13.4019L4.5717 15.134ZM4.5717 15.134L4.5717 15.134L3.5717 13.4019C2.61512 13.9542 2.28736 15.1774 2.83965 16.134L4.5717 15.134ZM5.5717 16.866L4.5717 15.134L2.83965 16.134L3.83965 17.866L5.5717 16.866ZM5.5717 16.866L5.5717 16.866L3.83965 17.866C4.39193 18.8226 5.61512 19.1504 6.5717 18.5981L5.5717 16.866ZM6.98814 16.0482L5.5717 16.866L6.5717 18.5981L7.98814 17.7803L6.98814 16.0482ZM9.79112 16.4872C9.59336 16.3896 9.40287 16.2793 9.22074 16.1572L8.10738 17.8187C8.36221 17.9894 8.62898 18.144 8.90622 18.2808L9.79112 16.4872ZM10.9999 20V18.3658H8.9999V20H10.9999ZM10.9999 20H8.9999C8.9999 21.1046 9.89534 22 10.9999 22V20ZM12.9999 20H10.9999V22H12.9999V20ZM12.9999 20V22C14.1045 22 14.9999 21.1046 14.9999 20H12.9999ZM12.9999 18.3658V20H14.9999V18.3658H12.9999ZM14.7791 16.1572C14.5969 16.2793 14.4064 16.3896 14.2087 16.4872L15.0936 18.2808C15.3708 18.144 15.6376 17.9894 15.8924 17.8187L14.7791 16.1572ZM18.4281 16.866L17.0117 16.0482L16.0117 17.7803L17.4281 18.5981L18.4281 16.866ZM18.4281 16.866H18.4281L17.4281 18.5981C18.3847 19.1504 19.6079 18.8226 20.1602 17.866L18.4281 16.866ZM19.4281 15.134L18.4281 16.866L20.1602 17.866L21.1602 16.134L19.4281 15.134ZM19.4281 15.134V15.134L21.1602 16.134C21.7124 15.1774 21.3847 13.9542 20.4281 13.4019L19.4281 15.134ZM18.0115 14.3161L19.4281 15.134L20.4281 13.4019L19.0115 12.5841L18.0115 14.3161ZM16.9999 12C16.9999 12.1115 16.9963 12.222 16.9891 12.3314L18.9849 12.4615C18.9949 12.3088 18.9999 12.1549 18.9999 12H16.9999ZM16.9891 11.6686C16.9963 11.778 16.9999 11.8885 16.9999 12H18.9999C18.9999 11.8451 18.9949 11.6912 18.9849 11.5385L16.9891 11.6686ZM19.4281 8.86602L18.0115 9.68388L19.0115 11.4159L20.4281 10.5981L19.4281 8.86602ZM19.4281 8.86602L19.4281 8.86602L20.4281 10.5981C21.3847 10.0458 21.7124 8.82261 21.1602 7.86602L19.4281 8.86602ZM18.4281 7.13397L19.4281 8.86602L21.1602 7.86602L20.1602 6.13397L18.4281 7.13397ZM18.4281 7.13397V7.13397L20.1602 6.13397C19.6079 5.17738 18.3847 4.84963 17.4281 5.40192L18.4281 7.13397ZM17.0117 7.95175L18.4281 7.13397L17.4281 5.40192L16.0117 6.2197L17.0117 7.95175ZM14.2087 7.51283C14.4064 7.6104 14.5969 7.72072 14.7791 7.84277L15.8924 6.18131C15.6376 6.01056 15.3708 5.85603 15.0936 5.71924L14.2087 7.51283ZM12.9999 4V5.63423H14.9999V4H12.9999ZM12.9999 4H14.9999C14.9999 2.89543 14.1045 2 12.9999 2V4ZM10.9999 4H12.9999V2H10.9999V4ZM15.0936 5.71924C15.0508 5.69815 15.0229 5.67053 15.0091 5.65025C14.997 5.63248 14.9999 5.62788 14.9999 5.63423H12.9999C12.9999 6.50299 13.5489 7.18731 14.2087 7.51283L15.0936 5.71924ZM16.0117 6.2197C16.0171 6.21655 16.0147 6.22132 15.9934 6.21972C15.9692 6.21789 15.9317 6.20762 15.8924 6.18131L14.7791 7.84277C15.3913 8.25303 16.2591 8.38623 17.0117 7.95175L16.0117 6.2197ZM18.9849 11.5385C18.9818 11.4913 18.9917 11.4537 19.0023 11.4318C19.0115 11.4126 19.017 11.4128 19.0115 11.4159L18.0115 9.68388C17.2601 10.1177 16.9412 10.9342 16.9891 11.6686L18.9849 11.5385ZM15.8924 17.8187C15.9317 17.7924 15.9692 17.7821 15.9934 17.7803C16.0147 17.7787 16.0171 17.7834 16.0117 17.7803L17.0117 16.0482C16.2591 15.6138 15.3913 15.747 14.7791 16.1572L15.8924 17.8187ZM19.0115 12.5841C19.017 12.5872 19.0115 12.5874 19.0023 12.5682C18.9917 12.5462 18.9818 12.5087 18.9849 12.4615L16.9891 12.3314C16.9412 13.0658 17.2601 13.8823 18.0115 14.3161L19.0115 12.5841ZM8.90622 18.2808C8.94898 18.3019 8.97687 18.3295 8.9907 18.3497C9.00282 18.3675 8.9999 18.3721 8.9999 18.3658H10.9999C10.9999 17.497 10.4509 16.8127 9.79112 16.4872L8.90622 18.2808ZM7.98814 17.7803C7.98268 17.7834 7.98515 17.7787 8.00637 17.7803C8.0306 17.7821 8.06812 17.7924 8.10738 17.8187L9.22074 16.1572C8.60851 15.747 7.74067 15.6138 6.98814 16.0482L7.98814 17.7803ZM14.9999 18.3658C14.9999 18.3721 14.997 18.3675 15.0091 18.3497C15.0229 18.3295 15.0508 18.3019 15.0936 18.2808L14.2087 16.4872C13.5489 16.8127 12.9999 17.497 12.9999 18.3658H14.9999ZM5.01491 12.4615C5.01799 12.5086 5.00809 12.5462 4.99753 12.5682C4.98827 12.5874 4.98285 12.5872 4.98827 12.5841L5.98827 14.3161C6.73966 13.8823 7.05858 13.0658 7.01067 12.3314L5.01491 12.4615ZM4.98827 11.4159C4.98286 11.4128 4.98827 11.4126 4.99753 11.4318C5.00809 11.4537 5.01799 11.4913 5.01492 11.5385L7.01067 11.6686C7.05858 10.9342 6.73967 10.1177 5.98827 9.68388L4.98827 11.4159ZM8.10739 6.18131C8.06813 6.20763 8.03061 6.21789 8.00638 6.21972C7.98516 6.22133 7.98269 6.21655 7.98815 6.2197L6.98815 7.95176C7.74068 8.38623 8.60852 8.25303 9.22074 7.84277L8.10739 6.18131ZM8.9999 5.63424C8.9999 5.62788 9.00282 5.63248 8.9907 5.65025C8.97687 5.67053 8.94898 5.69815 8.90622 5.71924L9.79112 7.51283C10.4509 7.18731 10.9999 6.50299 10.9999 5.63424H8.9999Z" fill="white"/>
<circle cx="12" cy="12" r="3" stroke="white" stroke-width="2" stroke-linecap="round" stroke-linejoin="round"/>
</svg>
