<svg width="24" height="24" viewBox="0 0 24 24" fill="none" xmlns="http://www.w3.org/2000/svg">
<path d="M5 9C5 7.89543 5.89543 7 7 7H17C18.1046 7 19 7.89543 19 9V18C19 19.6569 17.6569 21 16 21H8C6.34315 21 5 19.6569 5 18V9Z" stroke="white" stroke-width="2" stroke-linecap="round" stroke-linejoin="round"/>
<path d="M14 7C14 7.55228 14.4477 8 15 8C15.5523 8 16 7.55228 16 7H14ZM8 7C8 7.55228 8.44772 8 9 8C9.55228 8 10 7.55228 10 7H8ZM14 6V7H16V6H14ZM10 7V6H8V7H10ZM12 4C13.1046 4 14 4.89543 14 6H16C16 3.79086 14.2091 2 12 2V4ZM12 2C9.79086 2 8 3.79086 8 6H10C10 4.89543 10.8954 4 12 4V2Z" fill="white"/>
<path d="M10 11C10 10.4477 9.55229 10 9 10C8.44772 10 8 10.4477 8 11L10 11ZM16 11C16 10.4477 15.5523 10 15 10C14.4477 10 14 10.4477 14 11L16 11ZM10 12L10 11L8 11L8 12L10 12ZM14 11L14 12L16 12L16 11L14 11ZM12 14C10.8954 14 10 13.1046 10 12L8 12C8 14.2091 9.79086 16 12 16L12 14ZM12 16C14.2091 16 16 14.2091 16 12L14 12C14 13.1046 13.1046 14 12 14L12 16Z" fill="white"/>
</svg>
