<svg width="24" height="24" viewBox="0 0 24 24" fill="none" xmlns="http://www.w3.org/2000/svg">
<path d="M21 14C21 14.5523 20.5523 15 20 15H17V3H20C20.5523 3 21 3.44772 21 4V14Z" stroke="white" stroke-width="2" stroke-linecap="round" stroke-linejoin="round"/>
<path d="M16 13C16 13.5523 16.4477 14 17 14C17.5523 14 18 13.5523 18 13H16ZM17 5H18C18 4.66565 17.8329 4.35342 17.5547 4.16795L17 5ZM10 16C10.5523 16 11 15.5523 11 15C11 14.4477 10.5523 14 10 14V16ZM15.0077 3.6718L15.5624 2.83975L15.0077 3.6718ZM3.38813 12.6712L4.37453 12.8356L3.38813 12.6712ZM4.37453 12.8356L5.56859 5.6712L3.59581 5.3424L2.40174 12.5068L4.37453 12.8356ZM16 5V13H18V5H16ZM10 14H5.36092V16H10V14ZM7.54138 4H12.7889V2H7.54138V4ZM14.453 4.50385L16.4453 5.83205L17.5547 4.16795L15.5624 2.83975L14.453 4.50385ZM12.7889 4C13.3812 4 13.9602 4.17531 14.453 4.50385L15.5624 2.83975C14.7411 2.29219 13.776 2 12.7889 2V4ZM5.56859 5.6712C5.72932 4.70683 6.5637 4 7.54138 4V2C5.58603 2 3.91726 3.41365 3.59581 5.3424L5.56859 5.6712ZM2.40174 12.5068C2.09697 14.3354 3.5071 16 5.36092 16V14C4.74298 14 4.27294 13.4451 4.37453 12.8356L2.40174 12.5068Z" fill="white"/>
<path d="M10.9806 15.1961C11.0889 14.6546 10.7377 14.1277 10.1961 14.0194C9.65456 13.9111 9.12773 14.2623 9.01942 14.8039L10.9806 15.1961ZM16 13V12C15.6212 12 15.275 12.214 15.1056 12.5528L16 13ZM17 14C17.5523 14 18 13.5523 18 13C18 12.4477 17.5523 12 17 12V14ZM10.2934 18.632L10.9806 15.1961L9.01942 14.8039L8.33225 18.2397L10.2934 18.632ZM15.1056 12.5528L11.8064 19.1511L13.5953 20.0455L16.8944 13.4472L15.1056 12.5528ZM16 14H17V12H16V14ZM10.8295 19.5557C10.4434 19.4271 10.2136 19.031 10.2934 18.632L8.33225 18.2397C8.05463 19.6278 8.85409 21.0055 10.197 21.4531L10.8295 19.5557ZM10.197 21.4531C11.5222 21.8948 12.9706 21.2949 13.5953 20.0455L11.8064 19.1511C11.6268 19.5103 11.2105 19.6827 10.8295 19.5557L10.197 21.4531Z" fill="white"/>
</svg>
