<svg width="24" height="24" viewBox="0 0 24 24" fill="none" xmlns="http://www.w3.org/2000/svg">
<path fill-rule="evenodd" clip-rule="evenodd" d="M13.4185 5.14546C11.7679 4.80363 10.0494 5.06891 8.57864 5.89255C8.09678 6.1624 7.48738 5.99054 7.21753 5.50867C6.94767 5.02681 7.11954 4.41741 7.6014 4.14755C9.49232 3.08859 11.7019 2.74752 13.8241 3.18701C15.9463 3.6265 17.8387 4.81703 19.1535 6.53988C19.9932 7.6401 20.5613 8.91023 20.8268 10.2479C21.2196 9.90541 21.8163 9.92119 22.1903 10.2952C22.5808 10.6858 22.5808 11.3189 22.1903 11.7094L20.6903 13.2094C20.2998 13.6 19.6666 13.6 19.2761 13.2094L17.7761 11.7094C17.3856 11.3189 17.3856 10.6858 17.7761 10.2952C18.031 10.0403 18.3893 9.95181 18.716 10.0297C18.4764 9.21311 18.0881 8.44055 17.5636 7.75324C16.541 6.41325 15.0691 5.48728 13.4185 5.14546Z" fill="white"/>
<path fill-rule="evenodd" clip-rule="evenodd" d="M10.5804 18.8545C12.231 19.1964 13.9495 18.9311 15.4203 18.1075C15.9021 17.8376 16.5115 18.0095 16.7814 18.4913C17.0512 18.9732 16.8794 19.5826 16.3975 19.8524C14.5066 20.9114 12.297 21.2525 10.1748 20.813C8.0526 20.3735 6.16024 19.183 4.84541 17.4601C4.00574 16.3599 3.43762 15.0898 3.1721 13.7521C2.77927 14.0946 2.18263 14.0788 1.80859 13.7048C1.41806 13.3142 1.41806 12.6811 1.80859 12.2906L3.30859 10.7906C3.69911 10.4 4.33228 10.4 4.7228 10.7906L6.2228 12.2906C6.61333 12.6811 6.61333 13.3142 6.2228 13.7048C5.9679 13.9597 5.60963 14.0482 5.28294 13.9703C5.52247 14.7869 5.91076 15.5594 6.4353 16.2468C7.45795 17.5867 8.92978 18.5127 10.5804 18.8545Z" fill="white"/>
</svg>
