<svg width="24" height="24" viewBox="0 0 24 24" fill="none" xmlns="http://www.w3.org/2000/svg">
<path d="M5 14V10C5 9.44772 5.44772 9 6 9H8.64922C8.87629 9 9.0966 8.92272 9.27391 8.78087L12.3753 6.29976C13.0301 5.77595 14 6.24212 14 7.08062V16.9194C14 17.7579 13.0301 18.2241 12.3753 17.7002L9.27391 15.2191C9.0966 15.0773 8.87629 15 8.64922 15H6C5.44772 15 5 14.5523 5 14Z" stroke="white" stroke-width="2" stroke-linecap="round" stroke-linejoin="round"/>
<path d="M17.8302 15.2139C18.5435 14.3639 18.9537 13.3008 18.9963 12.1919C19.0389 11.0831 18.7114 9.99163 18.0655 9.08939" stroke="white" stroke-width="2" stroke-linecap="round" stroke-linejoin="round"/>
</svg>
