<svg width="163" height="19" viewBox="0 0 163 19" fill="none" xmlns="http://www.w3.org/2000/svg">
<path d="M8.78945e-05 18.2262V18.1482V0.0261937H15.3401V18.2262H8.78945e-05ZM6.29209 3.5362V14.7162H9.02209V3.5362H6.29209ZM30.1642 0.0261937H36.4562V18.2262H30.1642V13.0262H27.7722V9.20419H25.2762V18.2262H18.9842V0.0261937H25.2762V3.5362H27.8502V7.35819H30.1642V0.0261937ZM46.4184 10.8682V14.7162H55.4664V18.2262H40.1264V0.0261937H55.4664V3.5362H46.4184V7.35819H55.4664V10.8682H46.4184Z" fill="#2B4BFF"/>
<path d="M59.1359 18.2262V0.0261937H74.4759V3.5362H65.4279V14.7162H74.4759V18.2262H59.1359ZM78.1453 18.2262V18.1482V0.0261937H93.4853V18.2262H78.1453ZM84.4373 3.5362V14.7162H87.1673V3.5362H84.4373ZM108.309 0.0261937H114.601V18.2262H108.309V13.0262H105.917V9.20419H103.421V18.2262H97.1294V0.0261937H103.421V3.5362H105.995V7.35819H108.309V0.0261937ZM124.564 10.8682V18.2262H118.272V0.000194073H133.612V3.5362H124.564V7.35819H133.612V10.8682H124.564ZM137.281 18.2262V0.000194073H143.573V18.2262H137.281ZM147.251 18.2262V0.0261937H162.591V3.5362H153.543V14.7162H156.273V7.35819H162.591V18.2262H147.251Z" fill="#1731C7"/>
</svg>
