<svg width="56" height="48" viewBox="0 0 56 48" fill="none" xmlns="http://www.w3.org/2000/svg">
    <g clip-path="url(#clip0_670_286)">
        <path d="M21.27 44.0968H7.33362C3.68322 44.0968 0.000732422 41.3196 0.000732422 35.1169V22.7685C0.0502579 17.1396 2.15323 11.7233 5.91345 7.54122C9.67181 3.35698 14.8284 0.695542 20.4104 0.0586037C20.9336 0.0205946 21.4699 0.00238037 22.0037 0.00238037H22.0893C20.3475 1.42966 19.0243 3.30353 18.2608 5.42439C14.4418 6.44577 11.0643 8.69714 8.6481 11.8317C6.2319 14.9662 4.91122 18.81 4.88987 22.7707V35.1191C4.88987 36.0765 5.06554 39.1993 7.33198 39.1993H21.2683C25.6587 39.176 29.8896 37.5481 33.1673 34.6212C36.4451 31.6943 38.5445 27.6699 39.0713 23.3023C39.1003 22.9066 39.1149 22.4955 39.1155 22.0801H44.0051C44.0051 22.6017 43.9853 23.1281 43.9496 23.6457C43.3137 29.2424 40.6545 34.4122 36.4745 38.1786C32.2976 41.9456 26.8894 44.0507 21.27 44.0968Z" fill="#DFE3EC"/>
        <path d="M46.9896 18.6636H29.9481C28.1663 18.6637 26.4244 18.1343 24.9429 17.1424C23.4614 16.1505 22.3066 14.7406 21.6247 13.0911C20.9429 11.4415 20.7645 9.62642 21.1121 7.87528C21.4597 6.12415 22.3178 4.51564 23.5777 3.25316C24.4124 2.41228 25.4051 1.74564 26.4986 1.29181C27.5921 0.837992 28.7645 0.606007 29.9481 0.609287H46.9896C48.7714 0.609127 50.5133 1.13841 51.9949 2.13022C53.4765 3.12202 54.6313 4.53179 55.3133 6.18126C55.9953 7.83072 56.1738 9.64579 55.8263 11.3969C55.4788 13.1481 54.6209 14.7566 53.3611 16.0192C52.5264 16.8603 51.5334 17.5272 50.4398 17.9811C49.3461 18.435 48.1734 18.667 46.9896 18.6636ZM29.2804 5.48844C27.3659 5.48844 25.809 7.34921 25.809 9.63591C25.809 11.9226 27.3665 13.7834 29.2804 13.7834H47.659C49.5735 13.7834 51.1309 11.9232 51.1309 9.63591C51.1309 7.34865 49.5735 5.48844 47.659 5.48844H29.2804Z" fill="#E0E9FB"/>
        <path opacity="0.7" d="M33.629 48.0006H37.7072C40.4104 47.9973 43.0018 46.9199 44.9132 45.0046C46.8246 43.0893 47.8999 40.4926 47.9031 37.7839V33.6974C47.9031 33.1555 47.6883 32.6358 47.3059 32.2526C46.9235 31.8694 46.4048 31.6541 45.864 31.6541C45.3232 31.6541 44.8045 31.8694 44.4221 32.2526C44.0397 32.6358 43.8249 33.1555 43.8249 33.6974V37.7839C43.825 38.589 43.6668 39.3861 43.3594 40.1299C43.0519 40.8737 42.6013 41.5495 42.0332 42.1187C41.4651 42.688 40.7907 43.1395 40.0484 43.4476C39.3062 43.7556 38.5106 43.9141 37.7072 43.914H33.629C33.0882 43.914 32.5695 44.1293 32.1871 44.5125C31.8047 44.8957 31.5898 45.4154 31.5898 45.9573C31.5898 46.4992 31.8047 47.0189 32.1871 47.4021C32.5695 47.7853 33.0882 48.0006 33.629 48.0006Z" fill="#E0E9FB"/>
    </g>
    <defs>
        <clipPath id="clip0_670_286">
            <rect width="56" height="48" fill="white"/>
        </clipPath>
    </defs>
</svg>
