<svg width="18" height="18" viewBox="0 0 18 18" fill="none" xmlns="http://www.w3.org/2000/svg">
    <path d="M7.04634 14.5283L7.48468 15.5142C7.61498 15.8076 7.82763 16.057 8.09685 16.232C8.36606 16.4069 8.68026 16.5001 9.00134 16.5C9.32243 16.5001 9.63663 16.4069 9.90584 16.232C10.1751 16.057 10.3877 15.8076 10.518 15.5142L10.9563 14.5283C11.1124 14.1785 11.3748 13.8869 11.7063 13.695C12.0399 13.5026 12.4258 13.4206 12.8088 13.4608L13.8813 13.575C14.2006 13.6088 14.5228 13.5492 14.8089 13.4035C15.0949 13.2578 15.3326 13.0322 15.493 12.7542C15.6536 12.4763 15.7302 12.1577 15.7133 11.8372C15.6964 11.5166 15.5869 11.2079 15.398 10.9483L14.763 10.0758C14.5369 9.76285 14.4161 9.38611 14.418 9C14.4179 8.61494 14.5399 8.23976 14.7663 7.92833L15.4013 7.05583C15.5902 6.79632 15.6998 6.48755 15.7166 6.16701C15.7335 5.84646 15.657 5.52791 15.4963 5.25C15.3359 4.97193 15.0983 4.74637 14.8122 4.60067C14.5261 4.45497 14.2039 4.3954 13.8847 4.42917L12.8122 4.54333C12.4292 4.58356 12.0433 4.50159 11.7097 4.30917C11.3775 4.11619 11.115 3.82302 10.9597 3.47167L10.518 2.48583C10.3877 2.19238 10.1751 1.94304 9.90584 1.76805C9.63663 1.59306 9.32243 1.49995 9.00134 1.5C8.68026 1.49995 8.36606 1.59306 8.09685 1.76805C7.82763 1.94304 7.61498 2.19238 7.48468 2.48583L7.04634 3.47167C6.89104 3.82302 6.6285 4.11619 6.29634 4.30917C5.96275 4.50159 5.57684 4.58356 5.19384 4.54333L4.11801 4.42917C3.79876 4.3954 3.47656 4.45497 3.1905 4.60067C2.90443 4.74637 2.66677 4.97193 2.50634 5.25C2.34571 5.52791 2.26918 5.84646 2.28604 6.16701C2.30291 6.48755 2.41244 6.79632 2.60134 7.05583L3.23634 7.92833C3.4628 8.23976 3.58475 8.61494 3.58468 9C3.58475 9.38506 3.4628 9.76024 3.23634 10.0717L2.60134 10.9442C2.41244 11.2037 2.30291 11.5124 2.28604 11.833C2.26918 12.1535 2.34571 12.4721 2.50634 12.75C2.66693 13.0279 2.90461 13.2534 3.19064 13.399C3.47667 13.5447 3.79878 13.6044 4.11801 13.5708L5.19051 13.4567C5.57351 13.4164 5.95942 13.4984 6.29301 13.6908C6.62641 13.8833 6.89017 14.1765 7.04634 14.5283Z" stroke="#DFEAFF" stroke-width="1.5" stroke-linecap="round" stroke-linejoin="round"/>
    <path d="M9 11.25C10.2426 11.25 11.25 10.2426 11.25 9C11.25 7.75736 10.2426 6.75 9 6.75C7.75736 6.75 6.75 7.75736 6.75 9C6.75 10.2426 7.75736 11.25 9 11.25Z" stroke="#DFEAFF" stroke-width="1.5" stroke-linecap="round" stroke-linejoin="round"/>
</svg>
