<svg width="18" height="18" viewBox="0 0 18 18" fill="none" xmlns="http://www.w3.org/2000/svg">
    <path d="M9 9L15.75 9M9 2.25L9 15.75M5.85 2.25H12.15C13.4101 2.25 14.0402 2.25 14.5215 2.49524C14.9448 2.71095 15.289 3.05516 15.5048 3.47852C15.75 3.95982 15.75 4.58988 15.75 5.85V12.15C15.75 13.4101 15.75 14.0402 15.5048 14.5215C15.289 14.9448 14.9448 15.289 14.5215 15.5048C14.0402 15.75 13.4101 15.75 12.15 15.75H5.85C4.58988 15.75 3.95982 15.75 3.47852 15.5048C3.05516 15.289 2.71095 14.9448 2.49524 14.5215C2.25 14.0402 2.25 13.4101 2.25 12.15V5.85C2.25 4.58988 2.25 3.95982 2.49524 3.47852C2.71095 3.05516 3.05516 2.71095 3.47852 2.49524C3.95982 2.25 4.58988 2.25 5.85 2.25Z" stroke="#DFEAFF" stroke-width="1.5" stroke-linecap="round" stroke-linejoin="round"/>
</svg>
