<svg width="32" height="32" viewBox="0 0 18 18" fill="none" xmlns="http://www.w3.org/2000/svg">
    <path d="M5.25 10.875H12.75M4.5 7.5H4.5075M7.5 7.5H7.5075M10.5 7.5H10.5075M13.5 7.5H13.5075M3.9 13.5H14.1C14.9401 13.5 15.3601 13.5 15.681 13.3365C15.9632 13.1927 16.1927 12.9632 16.3365 12.681C16.5 12.3601 16.5 11.9401 16.5 11.1V6.9C16.5 6.05992 16.5 5.63988 16.3365 5.31901C16.1927 5.03677 15.9632 4.8073 15.681 4.66349C15.3601 4.5 14.9401 4.5 14.1 4.5H3.9C3.05992 4.5 2.63988 4.5 2.31901 4.66349C2.03677 4.8073 1.8073 5.03677 1.66349 5.31901C1.5 5.63988 1.5 6.05992 1.5 6.9V11.1C1.5 11.9401 1.5 12.3601 1.66349 12.681C1.8073 12.9632 2.03677 13.1927 2.31901 13.3365C2.63988 13.5 3.05992 13.5 3.9 13.5Z" stroke="#DFEAFF" stroke-width="1.5" stroke-linecap="round" stroke-linejoin="round"/>
</svg>
