<svg width="18" height="18" viewBox="0 0 18 18" fill="none" xmlns="http://www.w3.org/2000/svg">
    <path d="M6.74998 8.41667L9.58331 11.25M5.98114 15.7312C4.95601 16.7563 3 16.5 1.5 16.5C2.26883 15 1.2437 13.044 2.26883 12.0189C3.29395 10.9937 4.95601 10.9937 5.98114 12.0189C7.00626 13.044 7.00626 14.706 5.98114 15.7312ZM8.9412 11.9435L15.794 4.54241C16.3976 3.89054 16.3782 2.8782 15.75 2.25001C15.1218 1.62181 14.1094 1.60235 13.4576 2.20594L6.0565 9.05876C5.67405 9.41289 5.48282 9.58995 5.3713 9.77879C5.10386 10.2316 5.0931 10.7914 5.34293 11.2542C5.44712 11.4472 5.6314 11.6314 5.99996 12C6.36852 12.3686 6.5528 12.5528 6.74578 12.657C7.20855 12.9069 7.76836 12.8961 8.22118 12.6287C8.41002 12.5171 8.58708 12.3259 8.9412 11.9435Z" stroke="#DFEAFF" stroke-width="1.5" stroke-linecap="round" stroke-linejoin="round"/>
</svg>
