<svg width="18" height="18" viewBox="0 0 18 18" fill="none" xmlns="http://www.w3.org/2000/svg">
    <path d="M2.25 6L11.25 6M11.25 6C11.25 7.24264 12.2574 8.25 13.5 8.25C14.7426 8.25 15.75 7.24264 15.75 6C15.75 4.75736 14.7426 3.75 13.5 3.75C12.2574 3.75 11.25 4.75736 11.25 6ZM6.75 12L15.75 12M6.75 12C6.75 13.2426 5.74264 14.25 4.5 14.25C3.25736 14.25 2.25 13.2426 2.25 12C2.25 10.7574 3.25736 9.75 4.5 9.75C5.74264 9.75 6.75 10.7574 6.75 12Z" stroke="#DFEAFF" stroke-width="1.5" stroke-linecap="round" stroke-linejoin="round"/>
</svg>
