<svg width="17" height="17" viewBox="0 0 17 17" fill="none" xmlns="http://www.w3.org/2000/svg">
    <path d="M11.0722 5.40554C10.7917 5.12503 10.6515 4.98478 10.5989 4.82304C10.5527 4.68078 10.5527 4.52753 10.5989 4.38527C10.6515 4.22354 10.7917 4.08328 11.0722 3.80277L13.0827 1.79226C12.5492 1.55097 11.957 1.41666 11.3333 1.41666C8.98612 1.41666 7.08333 3.31945 7.08333 5.66666C7.08333 6.01448 7.12511 6.35254 7.20393 6.67609C7.28834 7.02258 7.33054 7.19582 7.32305 7.30526C7.3152 7.41985 7.29812 7.48081 7.24528 7.58278C7.19481 7.68018 7.09811 7.77688 6.9047 7.97029L2.47916 12.3958C1.89236 12.9826 1.89236 13.934 2.47916 14.5208C3.06597 15.1076 4.01736 15.1076 4.60416 14.5208L9.0297 10.0953C9.22311 9.90188 9.31981 9.80518 9.41721 9.75471C9.51918 9.70187 9.58014 9.68478 9.69472 9.67694C9.80417 9.66945 9.97741 9.71165 10.3239 9.79605C10.6475 9.87487 10.9855 9.91666 11.3333 9.91666C13.6805 9.91666 15.5833 8.01387 15.5833 5.66666C15.5833 5.04303 15.449 4.45078 15.2077 3.91726L13.1972 5.92777C12.9167 6.20828 12.7765 6.34854 12.6147 6.40109C12.4725 6.44731 12.3192 6.44731 12.1769 6.40109C12.0152 6.34854 11.875 6.20828 11.5944 5.92777L11.0722 5.40554Z" stroke="#DFEAFF" stroke-width="1.5" stroke-linecap="round" stroke-linejoin="round"/>
</svg>
