<?xml version="1.0" ?><!DOCTYPE svg  PUBLIC '-//W3C//DTD SVG 1.1//EN'  'http://www.w3.org/Graphics/SVG/1.1/DTD/svg11.dtd'><svg width="32px" height="32px" viewBox="0 0 32 32" style="fill-rule:evenodd;clip-rule:evenodd;stroke-linejoin:round;stroke-miterlimit:1.41421;" version="1.1" xml:space="preserve" xmlns="http://www.w3.org/2000/svg" xmlns:serif="http://www.serif.com/" xmlns:xlink="http://www.w3.org/1999/xlink"><rect height="32" id="Computer" style="fill:none;" width="32" x="0" y="0"/><path d="M21,29l-10,0c-0.087,-0.004 -0.109,-0.002 -0.195,-0.019c-0.289,-0.058 -0.548,-0.25 -0.687,-0.51c-0.138,-0.259 -0.155,-0.58 -0.042,-0.854c0.137,-0.33 0.462,-0.576 0.826,-0.612c0.033,-0.003 0.065,-0.003 0.098,-0.005l1.153,0l0.861,-5.164c0.019,-0.092 0.044,-0.183 0.084,-0.268c0.148,-0.309 0.463,-0.531 0.808,-0.564c0.032,-0.003 0.063,-0.003 0.094,-0.004l4,0c0.031,0.001 0.062,0.003 0.094,0.004c0.093,0.014 0.185,0.031 0.272,0.065c0.291,0.115 0.52,0.371 0.601,0.675c0.008,0.03 0.013,0.061 0.019,0.092l0.861,5.164l1.153,0c0.033,0.002 0.065,0.003 0.098,0.005c0.032,0.005 0.065,0.008 0.097,0.014c0.385,0.077 0.708,0.394 0.786,0.786c0.064,0.321 -0.042,0.671 -0.274,0.902c-0.139,0.139 -0.319,0.235 -0.512,0.274c-0.086,0.017 -0.108,0.015 -0.195,0.019Z" style="fill:#bdbdbd;"/><path d="M16,21l2,0c0.031,0.001 0.062,0.003 0.094,0.004c0.093,0.014 0.185,0.031 0.272,0.065c0.291,0.115 0.52,0.371 0.601,0.675c0.008,0.03 0.013,0.061 0.019,0.092l0.861,5.164l1.153,0l0.098,0.005c0.032,0.005 0.065,0.008 0.097,0.014c0.385,0.077 0.708,0.394 0.786,0.786c0.064,0.321 -0.042,0.671 -0.274,0.902c-0.139,0.139 -0.319,0.235 -0.512,0.274c-0.086,0.017 -0.108,0.015 -0.195,0.019l-5,0l0,-8Z" style="fill:#9e9e9e;"/><path d="M28.006,3c0.616,0.003 1.228,0.307 1.6,0.808c0.253,0.34 0.392,0.761 0.394,1.186c0.008,5.337 0.008,10.675 0,16.012c-0.003,0.612 -0.3,1.213 -0.788,1.585c-0.344,0.262 -0.771,0.407 -1.206,0.409c-8.004,0.012 -16.008,0.012 -24.012,0c-0.624,-0.003 -1.241,-0.312 -1.614,-0.827c-0.244,-0.337 -0.378,-0.748 -0.38,-1.167c-0.009,-5.337 -0.009,-10.675 0,-16.012c0.002,-0.506 0.204,-1.008 0.552,-1.374c0.37,-0.388 0.899,-0.617 1.442,-0.62c8.004,-0.012 16.008,-0.012 24.012,0Z" style="fill:#e0e0e0;"/><path d="M16,2.991c4.002,0 8.004,0.003 12.006,0.009c0.616,0.003 1.228,0.307 1.6,0.808c0.253,0.34 0.392,0.761 0.394,1.186c0.008,5.337 0.008,10.675 0,16.012c-0.003,0.612 -0.3,1.213 -0.788,1.585c-0.344,0.262 -0.771,0.407 -1.206,0.409c-4.002,0.006 -8.004,0.009 -12.006,0.009l0,-20.018Z" style="fill:#bdbdbd;"/><rect height="14" style="fill:#29b6f6;" width="12" x="4" y="5"/><rect height="14" style="fill:#03a9f4;" width="12" x="16" y="5"/></svg>