<svg width="17" height="17" viewBox="0 0 17 17" fill="none" xmlns="http://www.w3.org/2000/svg">
    <path d="M4.24989 7.79169H7.08323M5.66656 6.37502V9.20835M10.6249 8.50002H10.632M12.7499 7.08335H12.757M7.40124 3.54169H9.59855C11.4578 3.54169 12.3875 3.54169 13.1172 3.89403C13.7597 4.20426 14.2935 4.70129 14.6487 5.32002C15.0521 6.02277 15.1183 6.95005 15.2508 8.80462L15.4251 11.2445C15.5105 12.4408 14.5631 13.4584 13.3637 13.4584C12.7504 13.4584 12.1687 13.1859 11.776 12.7147L11.5103 12.3959C11.2673 12.1042 11.1457 11.9583 11.0073 11.8405C10.7172 11.5934 10.366 11.4289 9.99048 11.3642C9.81136 11.3334 9.62152 11.3334 9.24183 11.3334H7.75796C7.37827 11.3334 7.18843 11.3334 7.0093 11.3642C6.63379 11.4289 6.28258 11.5934 5.99247 11.8405C5.85408 11.9583 5.73255 12.1042 5.48948 12.3959L5.22374 12.7147C4.83109 13.1859 4.24943 13.4584 3.63609 13.4584C2.43673 13.4584 1.48924 12.4408 1.57469 11.2445L1.74897 8.80462C1.88144 6.95005 1.94767 6.02277 2.35111 5.32002C2.70633 4.70129 3.24012 4.20426 3.88259 3.89403C4.61229 3.54169 5.54194 3.54169 7.40124 3.54169Z" stroke="#DFEAFF" stroke-width="1.5" stroke-linecap="round" stroke-linejoin="round"/>
</svg>
