<svg width="18" height="18" viewBox="0 0 18 18" fill="none" xmlns="http://www.w3.org/2000/svg">
<g id="face-wink" clip-path="url(#clip0_1067_630)">
<path id="Icon" d="M6 10.5C6 10.5 7.125 12 9 12C10.875 12 12 10.5 12 10.5M11.25 6.75H11.2575M6 6.75H7.5M16.5 9C16.5 13.1421 13.1421 16.5 9 16.5C4.85786 16.5 1.5 13.1421 1.5 9C1.5 4.85786 4.85786 1.5 9 1.5C13.1421 1.5 16.5 4.85786 16.5 9ZM11.625 6.75C11.625 6.95711 11.4571 7.125 11.25 7.125C11.0429 7.125 10.875 6.95711 10.875 6.75C10.875 6.54289 11.0429 6.375 11.25 6.375C11.4571 6.375 11.625 6.54289 11.625 6.75Z" stroke="white" stroke-width="1.5" stroke-linecap="round" stroke-linejoin="round"/>
</g>
<defs>
<clipPath id="clip0_1067_630">
<rect width="18" height="18" fill="white"/>
</clipPath>
</defs>
</svg>
