<svg width="167" height="19" viewBox="0 0 167 19" fill="none" xmlns="http://www.w3.org/2000/svg">
    <g clip-path="url(#clip0_1_368)">
        <path d="M71.1647 18.9999C69.3888 19.0251 67.6351 18.6055 66.0646 17.7796C64.5805 16.9999 63.3403 15.8287 62.48 14.3942C61.6001 12.9138 61.1486 11.2199 61.1753 9.49986C61.1486 7.77983 61.6001 6.08595 62.48 4.6055C63.3403 3.17101 64.5805 1.99981 66.0646 1.22009C67.6438 0.392167 69.4065 -0.0274478 71.191 -0.000217623C72.6791 -0.0220367 74.1556 0.263941 75.5269 0.839615C76.788 1.37716 77.9033 2.20455 78.7814 3.25399L76.0408 5.77333C74.7933 4.33836 73.247 3.62088 71.402 3.62088C70.3352 3.60254 69.2818 3.86045 68.3452 4.36934C67.4629 4.85407 66.7364 5.57744 66.2495 6.45588C65.7385 7.38872 65.4796 8.43775 65.4983 9.50018C65.4797 10.5625 65.7385 11.6114 66.2495 12.5442C66.7364 13.4226 67.4629 14.146 68.3452 14.6307C69.282 15.1395 70.3356 15.3973 71.4027 15.3787C73.2477 15.3787 74.794 14.6526 76.0416 13.2005L78.7827 15.7198C77.9075 16.7845 76.786 17.622 75.5143 18.1604C74.1379 18.7352 72.6571 19.021 71.1647 18.9999ZM90.1947 18.9999C88.3916 19.0271 86.6104 18.603 85.0147 17.7665C83.5206 16.9851 82.2714 15.8093 81.4038 14.368C80.5261 12.896 80.0746 11.211 80.0991 9.49939C80.0746 7.78776 80.5261 6.10274 81.4038 4.63079C82.2716 3.19009 83.5209 2.01493 85.0147 1.234C86.6103 0.397811 88.3911 -0.0261336 90.1939 0.00104746C91.9927 -0.0272092 93.7695 0.396863 95.3599 1.234C96.8504 2.02035 98.0985 3.195 98.9708 4.63253C99.8565 6.10169 100.313 7.78779 100.289 9.50113C100.313 11.2145 99.8565 12.9006 98.9708 14.3697C98.0985 15.8073 96.8504 16.9819 95.3599 17.7683C93.7696 18.6048 91.9931 19.0285 90.1947 18.9999ZM90.1947 15.3784C91.2277 15.3927 92.2462 15.1347 93.1467 14.6304C94.0175 14.1396 94.7339 13.4171 95.2157 12.5438C95.7268 11.611 95.9857 10.562 95.967 9.49955C95.9857 8.43712 95.7268 7.38809 95.2157 6.45525C94.7339 5.58201 94.0175 4.85953 93.1467 4.36871C92.2462 3.86448 91.2277 3.60647 90.1947 3.62088C89.1617 3.60651 88.1432 3.86458 87.2428 4.36887C86.3719 4.85969 85.6555 5.58216 85.1737 6.45541C84.6626 7.38825 84.4037 8.43728 84.4224 9.4997C84.4037 10.5622 84.6625 11.6113 85.1735 12.5442C85.6553 13.4174 86.3718 14.1399 87.2426 14.6307C88.1431 15.1349 89.1616 15.3929 90.1947 15.3784ZM120.427 0.314186V18.6851H116.921L107.722 7.53156V18.6851H103.505V0.31466H107.037L116.209 11.468V0.31466L120.427 0.314186ZM129.072 3.72584V8.58084H137.611V11.9925H129.072V18.6851H124.801V0.31466H138.744V3.72631L129.072 3.72584ZM141.644 0.31466H145.914V18.6851H141.644V0.31466ZM162.756 9.21107H166.657V16.6641C165.608 17.4401 164.43 18.0263 163.178 18.3961C161.889 18.7942 160.547 18.9976 159.198 18.9998C157.401 19.028 155.625 18.6085 154.032 17.7795C152.542 17.0027 151.297 15.8311 150.434 14.3941C149.554 12.9136 149.103 11.2197 149.129 9.4997C149.103 7.77967 149.554 6.08579 150.434 4.60535C151.303 3.16326 152.558 1.99092 154.059 1.22009C155.67 0.390925 157.463 -0.0283009 159.277 -0.000217623C160.784 -0.0208236 162.28 0.255686 163.679 0.813375C164.958 1.32808 166.096 2.13753 167 3.17527L164.259 5.69461C162.941 4.31212 161.351 3.62088 159.488 3.62088C158.397 3.60032 157.319 3.85301 156.352 4.35575C155.455 4.82908 154.715 5.54882 154.217 6.42933C153.696 7.36813 153.432 8.42724 153.453 9.49986C153.434 10.5639 153.698 11.614 154.217 12.5442C154.714 13.424 155.449 14.147 156.339 14.6307C157.29 15.1407 158.357 15.3983 159.436 15.3787C160.592 15.3965 161.734 15.1258 162.757 14.5913L162.756 9.21107Z" fill="#1878F1"/>
        <path d="M10.0946 18.9997C8.29172 19.0269 6.51089 18.6029 4.91539 17.7668C3.42128 16.9854 2.17201 15.8096 1.30443 14.3682C0.426771 12.8963 -0.0248268 11.2113 -0.000397977 9.49963C-0.0248748 7.78801 0.426668 6.10301 1.30428 4.63104C2.17185 3.18969 3.42112 2.01391 4.91523 1.23251C6.51073 0.396314 8.29156 -0.0276328 10.0944 -0.000444941C11.8931 -0.0287016 13.67 0.395372 15.2604 1.23251C16.7509 2.01885 17.999 3.1935 18.8713 4.63104C19.757 6.1002 20.2134 7.7863 20.189 9.49963C20.2134 11.213 19.757 12.8991 18.8713 14.3682C17.999 15.8058 16.7509 16.9804 15.2604 17.7668C13.67 18.6039 11.8932 19.0279 10.0946 18.9997ZM10.0946 15.3781C11.1276 15.3925 12.146 15.1344 13.0465 14.6302C13.9173 14.1393 14.6338 13.4169 15.1156 12.5436C15.6266 11.6108 15.8855 10.5617 15.8668 9.49932C15.8855 8.43689 15.6266 7.38786 15.1156 6.45502C14.6338 5.58178 13.9173 4.8593 13.0465 4.36848C12.146 3.86425 11.1276 3.60624 10.0946 3.62065C9.06152 3.60629 8.04307 3.86435 7.1426 4.36864C6.27177 4.85946 5.55533 5.58194 5.07351 6.45518C4.56246 7.38802 4.30359 8.43705 4.32227 9.49948C4.30356 10.562 4.56243 11.611 5.07351 12.5439C5.55533 13.4172 6.27177 14.1396 7.1426 14.6305C8.0431 15.1346 9.06155 15.3926 10.0946 15.3781ZM40.3264 0.313958V18.6848H36.821L27.6222 7.53133V18.6848H23.4051V0.314432H26.937L36.1094 11.4678V0.314432L40.3264 0.313958ZM58.9874 15.2732V18.6848H44.7017V0.314432H58.6448V3.72608H48.9447V7.71469H57.5108V11.0214H48.9447V15.2735L58.9874 15.2732Z" fill="#5187F1"/>
    </g>
    <defs>
        <clipPath id="clip0_1_368">
            <rect width="167" height="19" fill="white"/>
        </clipPath>
    </defs>
</svg>
