<svg fill="#ffffff" height="256px" width="256px" version="1.1" id="Layer_1" xmlns="http://www.w3.org/2000/svg"
     viewBox="-29.99 -29.99 359.84 359.84" xml:space="preserve"
     stroke="#ffffff">

<g id="bgCarrier" stroke-width="0"/>
    <g id="tracerCarrier" stroke-linecap="round" stroke-linejoin="round" stroke="#CCCCCC"
       stroke-width="2.9986000000000006"/>
    <g id="iconCarrier"> <g> <g> <path
            d="M194.59,0c-14.074,0-25.52,11.446-25.52,25.52h-38.28C130.79,11.446,119.344,0,105.27,0c-3.528,0-6.38,2.852-6.38,6.38 s2.852,6.38,6.38,6.38c6.916,0,12.76,5.844,12.76,12.76l0.006,242.44c0,17.59,14.31,31.9,31.9,31.9s31.9-14.31,31.9-31.9 L181.83,25.52c0-6.916,5.844-12.76,12.76-12.76c3.528,0,6.38-2.852,6.38-6.38S198.118,0,194.59,0z M149.936,287.1 c-10.552,0-19.14-8.587-19.14-19.14l-0.004-153.12h12.758c3.528,0,6.38-2.852,6.38-6.38s-2.852-6.38-6.38-6.38h-12.758l0-12.76 h12.758c3.528,0,6.38-2.852,6.38-6.38s-2.852-6.38-6.38-6.38h-12.759l0-12.76h12.759c3.528,0,6.38-2.852,6.38-6.38 s-2.852-6.38-6.38-6.38h-12.759l0-12.76h38.28c0,0,0,0,0,0l0.006,229.68C169.076,278.513,160.489,287.1,149.936,287.1z"/> </g> </g> </g>
</svg>