<svg width="244" height="88" viewBox="0 0 244 88" fill="none" xmlns="http://www.w3.org/2000/svg">
<path d="M122 31.75C119.577 31.75 117.209 32.4685 115.194 33.8145C113.18 35.1605 111.609 37.0737 110.682 39.3121C109.755 41.5505 109.512 44.0136 109.985 46.3899C110.458 48.7661 111.625 50.9489 113.338 52.6621C115.051 54.3753 117.234 55.542 119.61 56.0146C121.986 56.4873 124.449 56.2447 126.688 55.3175C128.926 54.3904 130.839 52.8202 132.185 50.8057C133.531 48.7912 134.25 46.4228 134.25 44C134.25 40.7511 132.959 37.6353 130.662 35.3379C128.364 33.0406 125.249 31.75 122 31.75V31.75ZM122 52.75C120.269 52.75 118.577 52.2368 117.139 51.2754C115.7 50.3139 114.578 48.9473 113.916 47.3485C113.254 45.7496 113.08 43.9903 113.418 42.293C113.756 40.5956 114.589 39.0365 115.813 37.8128C117.036 36.5891 118.595 35.7558 120.293 35.4181C121.99 35.0805 123.749 35.2538 125.348 35.9161C126.947 36.5783 128.314 37.6998 129.275 39.1388C130.237 40.5777 130.75 42.2694 130.75 44C130.75 46.3206 129.828 48.5462 128.187 50.1872C126.546 51.8281 124.32 52.75 122 52.75ZM145.362 48.9L142.103 44.5688C142.125 44.175 142.103 43.7594 142.103 43.4531L145.362 39.1C145.524 38.8882 145.634 38.6413 145.684 38.3791C145.733 38.117 145.721 37.8469 145.647 37.5906C145.095 35.5739 144.294 33.6339 143.262 31.8156C143.129 31.5847 142.946 31.3863 142.727 31.2349C142.507 31.0836 142.257 30.983 141.994 30.9406L136.634 30.175L135.825 29.3656L135.059 24.0063C135.017 23.743 134.916 23.4926 134.765 23.2731C134.613 23.0536 134.415 22.8707 134.184 22.7375C132.366 21.7054 130.426 20.9044 128.409 20.3531C128.153 20.2792 127.883 20.2665 127.621 20.3159C127.359 20.3653 127.112 20.4754 126.9 20.6375L122.569 23.875H121.431L117.1 20.6375C116.888 20.4754 116.641 20.3653 116.379 20.3159C116.117 20.2665 115.847 20.2792 115.59 20.3531C113.574 20.9044 111.634 21.7054 109.815 22.7375C109.584 22.8707 109.386 23.0536 109.235 23.2731C109.083 23.4926 108.983 23.743 108.94 24.0063L108.175 29.3656L107.365 30.175L102.006 30.9406C101.743 30.983 101.492 31.0836 101.273 31.2349C101.053 31.3863 100.87 31.5847 100.737 31.8156C99.7052 33.6339 98.9042 35.5739 98.3529 37.5906C98.279 37.8469 98.2662 38.117 98.3156 38.3791C98.365 38.6413 98.4752 38.8882 98.6373 39.1L101.897 43.4313V44.5469L98.6373 48.9C98.4752 49.1119 98.365 49.3588 98.3156 49.6209C98.2662 49.883 98.279 50.1531 98.3529 50.4094C98.9042 52.4261 99.7052 54.3661 100.737 56.1844C100.87 56.4153 101.053 56.6137 101.273 56.7651C101.492 56.9165 101.743 57.017 102.006 57.0594L107.365 57.825L108.175 58.6344L108.94 63.9938C108.983 64.257 109.083 64.5074 109.235 64.7269C109.386 64.9464 109.584 65.1293 109.815 65.2625C111.634 66.2946 113.574 67.0956 115.59 67.6469C115.74 67.6901 115.894 67.7122 116.05 67.7125C116.429 67.7174 116.799 67.5941 117.1 67.3625L121.431 64.125H122.569L126.9 67.3625C127.112 67.5246 127.359 67.6347 127.621 67.6841C127.883 67.7335 128.153 67.7208 128.409 67.6469C130.426 67.0956 132.366 66.2946 134.184 65.2625C134.415 65.1293 134.613 64.9464 134.765 64.7269C134.916 64.5074 135.017 64.257 135.059 63.9938L135.825 58.6125C136.087 58.35 136.394 58.0656 136.612 57.825L141.994 57.0594C142.257 57.017 142.507 56.9165 142.727 56.7651C142.946 56.6137 143.129 56.4153 143.262 56.1844C144.294 54.3661 145.095 52.4261 145.647 50.4094C145.721 50.1531 145.733 49.883 145.684 49.6209C145.634 49.3588 145.524 49.1119 145.362 48.9V48.9ZM140.615 53.7125L135.519 54.4344C135.125 54.4988 134.764 54.691 134.49 54.9813C134.228 55.2656 133.419 56.0969 133.025 56.4469C132.705 56.7214 132.496 57.102 132.434 57.5188L131.712 62.6156C130.623 63.1972 129.48 63.6734 128.3 64.0375L124.165 60.9313C123.833 60.6827 123.42 60.5658 123.006 60.6031H120.994C120.58 60.5658 120.167 60.6827 119.834 60.9313L115.7 64.0375C114.52 63.6734 113.377 63.1972 112.287 62.6156L111.565 57.5188C111.504 57.102 111.294 56.7214 110.975 56.4469C110.469 56.0063 109.993 55.5312 109.553 55.025C109.278 54.7055 108.898 54.4958 108.481 54.4344L103.384 53.7125C102.812 52.6186 102.336 51.4767 101.962 50.3L105.069 46.1656C105.294 45.8451 105.416 45.4636 105.419 45.0719C105.397 44.6781 105.375 43.5406 105.397 42.9938C105.434 42.5801 105.317 42.1672 105.069 41.8344L101.962 37.7C102.336 36.5233 102.812 35.3814 103.384 34.2875L108.481 33.5656C108.898 33.5042 109.278 33.2945 109.553 32.975C109.993 32.4688 110.469 31.9937 110.975 31.5531C111.294 31.2786 111.504 30.898 111.565 30.4813L112.287 25.3844C113.381 24.8119 114.523 24.3362 115.7 23.9625L119.834 27.0688C120.167 27.3173 120.58 27.4342 120.994 27.3969C121.65 27.375 122.35 27.375 123.006 27.3969C123.42 27.4342 123.833 27.3173 124.165 27.0688L128.3 23.9625C129.48 24.3266 130.623 24.8028 131.712 25.3844L132.434 30.4813C132.496 30.898 132.705 31.2786 133.025 31.5531C133.531 31.9937 134.006 32.4688 134.447 32.975C134.721 33.2945 135.102 33.5042 135.519 33.5656L140.615 34.2875C141.197 35.3771 141.673 36.5198 142.037 37.7L138.931 41.8344C138.706 42.1549 138.584 42.5364 138.581 42.9281C138.603 43.3219 138.625 44.4594 138.603 45.0063C138.566 45.42 138.682 45.8328 138.931 46.1656L142.037 50.3C141.673 51.4802 141.197 52.6229 140.615 53.7125V53.7125Z" fill="white"/>
</svg>
