<svg width="32" height="32" viewBox="0 0 32 32" fill="none" xmlns="http://www.w3.org/2000/svg">
<path fill-rule="evenodd" clip-rule="evenodd" d="M16.3536 8.89645C16.1583 8.70118 15.8417 8.70118 15.6464 8.89645L11.0607 13.4822C10.4749 14.068 9.52513 14.068 8.93934 13.4822C8.35355 12.8964 8.35355 11.9467 8.93934 11.3609L13.5251 6.77513C14.892 5.40829 17.108 5.40829 18.4749 6.77513L23.0607 11.3609C23.6464 11.9467 23.6464 12.8964 23.0607 13.4822C22.4749 14.068 21.5251 14.068 20.9393 13.4822L16.3536 8.89645Z" fill="white"/>
<path fill-rule="evenodd" clip-rule="evenodd" d="M16.3536 23.1036C16.1583 23.2988 15.8417 23.2988 15.6464 23.1036L11.0607 18.5178C10.4749 17.932 9.52513 17.932 8.93934 18.5178C8.35355 19.1036 8.35355 20.0533 8.93934 20.6391L13.5251 25.2249C14.892 26.5917 17.108 26.5917 18.4749 25.2249L23.0607 20.6391C23.6464 20.0533 23.6464 19.1036 23.0607 18.5178C22.4749 17.932 21.5251 17.932 20.9393 18.5178L16.3536 23.1036Z" fill="white"/>
</svg>
