<svg width="18" height="18" viewBox="0 0 18 18" fill="none" xmlns="http://www.w3.org/2000/svg">
    <path d="M7.01546 15.75C7.54431 16.2168 8.239 16.5 8.99983 16.5C9.76067 16.5 10.4553 16.2168 10.9842 15.75M13.4998 6C13.4998 4.80653 13.0257 3.66193 12.1818 2.81802C11.3379 1.97411 10.1933 1.5 8.99983 1.5C7.80636 1.5 6.66176 1.97411 5.81785 2.81802C4.97394 3.66193 4.49983 4.80653 4.49983 6C4.49983 8.31764 3.91518 9.90447 3.26208 10.9541C2.71118 11.8394 2.43572 12.2821 2.44582 12.4056C2.45701 12.5423 2.48598 12.5944 2.59616 12.6762C2.69568 12.75 3.14427 12.75 4.04147 12.75H13.9582C14.8554 12.75 15.304 12.75 15.4035 12.6762C15.5137 12.5944 15.5427 12.5423 15.5538 12.4056C15.5639 12.2821 15.2885 11.8394 14.7376 10.9541C14.0845 9.90447 13.4998 8.31764 13.4998 6Z" stroke="white" stroke-width="1.5" stroke-linecap="round" stroke-linejoin="round"/>
</svg>
