<svg xmlns="http://www.w3.org/2000/svg" width="167" height="40" fill="none">
    <g transform="translate(0,5)">
        <path d="M39.8991 0.405762V18.5985H36.7796L28.0009 7.71006V18.6H23.7832V0.405762H26.7474L35.6559 11.4317V0.405762H39.8991Z" fill="#0048C5"/>
        <path d="M56.1586 15.0945V18.6H42.5771V0.405762H55.9986V3.91119H46.7949V7.59588H55.1986V11.0238H46.7949V15.0945H56.1586Z" fill="#0048C5"/>
        <path fill-rule="evenodd" clip-rule="evenodd" d="M97.0671 5.77386C96.5857 4.64088 95.8711 3.62146 94.9697 2.78168C94.0525 1.92412 92.9793 1.24974 91.8081 0.794976C90.5625 0.313201 89.2365 0.0722657 87.9007 0.0850157C86.5513 0.0714459 85.2114 0.31232 83.9516 0.794976C82.7815 1.24389 81.7118 1.91905 80.8039 2.78168C79.8975 3.64384 79.1788 4.68313 78.6926 5.83473C78.2064 6.98634 77.9632 8.22557 77.9782 9.47512C77.9641 10.7295 78.2105 11.9731 78.7017 13.1277C79.193 14.2824 79.9186 15.3229 80.8327 16.1839C81.751 17.0525 82.829 17.7355 84.0073 18.1955C85.265 18.6872 86.6057 18.9329 87.9564 18.9194C89.2894 18.9326 90.6123 18.6867 91.8511 18.1952C93.0094 17.7345 94.0682 17.0558 94.9697 16.1961C95.8747 15.3327 96.5927 14.2932 97.0793 13.142C97.5659 11.9907 97.8107 10.7521 97.7987 9.50263C97.8119 8.22295 97.5629 6.95407 97.0671 5.77386ZM92.7987 12.4703C92.344 13.3091 91.6649 14.0055 90.837 14.4818C89.9402 14.9775 88.9274 15.2264 87.9025 15.203C87.1234 15.2131 86.3493 15.0777 85.6201 14.8037C84.9522 14.5489 84.3474 14.153 83.8472 13.6432C83.341 13.1234 82.9496 12.5036 82.698 11.8236C82.4237 11.0712 82.2881 10.2754 82.2979 9.47482C82.2746 8.43902 82.5137 7.41411 82.993 6.49506C83.4413 5.65795 84.1225 4.96802 84.9546 4.50836C85.8593 4.02174 86.8747 3.77715 87.9022 3.7984C88.6767 3.79049 89.4459 3.92579 90.171 4.19746C90.8428 4.45334 91.4518 4.85008 91.9569 5.3609C92.4606 5.8767 92.8517 6.49112 93.1055 7.16538C93.379 7.90365 93.5146 8.68569 93.5057 9.47275C93.5279 10.5156 93.2845 11.547 92.7981 12.4703H92.7987Z" fill="#0A5BE8"/>
        <path d="M76.1359 16.2852C75.2371 17.1178 74.1866 17.7706 73.0413 18.208C71.7357 18.6874 70.352 18.9193 68.9611 18.8916C67.6242 18.9046 66.2971 18.6637 65.0505 18.1817C63.8798 17.7275 62.8098 17.0484 61.9014 16.1828C61.0109 15.33 60.2994 14.3087 59.8087 13.1785C59.3053 12.0089 59.0513 10.7475 59.0629 9.47459C59.0514 8.20275 59.3053 6.94244 59.8087 5.77393C60.2944 4.64815 61.0067 3.63394 61.9014 2.79417C62.8127 1.94479 63.8768 1.27503 65.0374 0.820185C66.2883 0.33737 67.6197 0.0964342 68.9608 0.110225C70.3222 0.0868259 71.6756 0.323075 72.9482 0.806282C74.0759 1.24768 75.1113 1.89504 76.0013 2.71519L73.1755 5.47545C72.6782 4.94788 72.0723 4.5341 71.3994 4.2626C70.6233 3.95887 69.7946 3.81129 68.9611 3.82834C68.1948 3.81867 67.4336 3.95408 66.7178 4.2274C66.0574 4.4836 65.4579 4.87463 64.9577 5.37546C64.4498 5.88742 64.059 6.503 63.8121 7.17994C63.5384 7.91425 63.4017 8.69236 63.4089 9.47578C63.3976 10.2729 63.5343 11.0652 63.8121 11.8127C64.0628 12.4878 64.4531 13.1026 64.9577 13.6172C65.4547 14.1256 66.0548 14.5223 66.7178 14.7807C67.4336 15.0539 68.1948 15.1893 68.9611 15.1797C69.8159 15.1982 70.6664 15.0533 71.4667 14.7528C72.1565 14.4863 72.7769 14.0674 73.2814 13.5276L76.1359 16.2852Z" fill="#0A5BE8"/>
        <path d="M117.484 18.5999V0.406006H113.246V11.4349L104.332 0.406006H101.372V18.5987H105.587V7.71001L114.364 18.5999H117.484Z" fill="#0A5BE8"/>
        <path d="M126.623 3.91114V7.95732H135.081V11.4876H126.623V18.5999H122.409V0.406006H135.507V3.91114H126.623Z" fill="#0A5BE8"/>
        <path d="M139.065 0.406006H143.28V18.5987H139.065V0.406006Z" fill="#0A5BE8"/>
        <path d="M167 8.28983V8.88412C167 11.0503 166.594 12.8812 165.783 14.3768C165.029 15.8189 163.859 17.0017 162.423 17.7716C160.895 18.5592 159.193 18.9538 157.473 18.9197C156.143 18.9296 154.824 18.6794 153.59 18.1831C152.425 17.7164 151.361 17.0293 150.457 16.1594C149.573 15.3048 148.862 14.2891 148.361 13.1673C147.85 12.0039 147.592 10.7456 147.603 9.47546C147.589 8.2007 147.852 6.93799 148.374 5.7745C148.888 4.65022 149.624 3.6409 150.538 2.80687C151.476 1.94802 152.565 1.27019 153.751 0.807742C155.005 0.321076 156.341 0.076446 157.687 0.0868372C159.207 0.0674553 160.714 0.361419 162.115 0.950326C163.382 1.479 164.513 2.2861 165.424 3.31153L162.542 6.09576C161.984 5.36231 161.257 4.7738 160.423 4.38002C159.557 3.9849 158.614 3.78628 157.661 3.79845C156.629 3.78216 155.61 4.02637 154.697 4.50841C153.843 4.96547 153.135 5.65416 152.656 6.49511C152.152 7.40642 151.899 8.43466 151.923 9.47517C151.902 10.5098 152.15 11.5323 152.643 12.4428C153.105 13.2842 153.788 13.9847 154.617 14.4697C155.495 14.9694 156.491 15.2229 157.501 15.2034C158.465 15.2305 159.422 15.0222 160.287 14.5966C161.05 14.2049 161.673 13.5879 162.072 12.8297C162.249 12.5049 162.385 12.1599 162.479 11.8024L157.1 11.7219V8.29042L167 8.28983Z" fill="#0A5BE8"/>
        <path d="M20.7883 8.16903C20.8226 8.23168 20.8535 8.29616 20.8807 8.36219C21.1566 9.02394 21.29 9.73616 21.2723 10.4527C21.2546 11.1692 21.0863 11.874 20.7782 12.5214L18.4839 16.701C17.7834 15.5887 16.835 14.6528 15.7127 13.9661C15.7408 13.9204 15.7664 13.8732 15.7895 13.8247C17.8149 9.51055 15.7127 3.81224 10.6369 3.89655C5.47214 3.80573 3.43013 9.60817 5.54565 13.9795C4.42921 14.6657 3.48598 15.5991 2.78898 16.7075C2.77327 16.672 2.54858 16.2658 2.24031 15.7082C1.49127 14.3528 0.248395 12.1049 0.312125 12.1238C-0.115245 10.9469 -0.106202 9.65611 0.337617 8.48525C0.364703 8.41065 0.396279 8.33774 0.432173 8.26694C0.45144 8.22789 0.471597 8.18944 0.491456 8.15216L3.763 2.18554C3.76783 2.17844 3.77219 2.17103 3.77604 2.16336C3.77986 2.15592 3.78412 2.14871 3.78879 2.14176C4.46403 0.958497 6.06082 -0.000244141 7.36327 -0.000244141H13.9046C14.6457 0.00753355 15.371 0.214678 16.0041 0.599361C16.6371 0.984044 17.1545 1.53202 17.5016 2.18554C17.509 2.1956 18.6464 4.2675 19.5792 5.96638C20.2254 7.14373 20.7731 8.14181 20.7785 8.15009L20.7883 8.16903Z" fill="#0048C5"/>
        <path d="M7.62849 14.7514C9.34771 15.7223 11.9517 15.719 13.6318 14.7449C14.317 15.0588 14.9237 15.5207 15.408 16.0974C15.8923 16.674 16.2421 17.3509 16.4321 18.079C15.7462 18.6007 14.926 18.9175 14.0669 18.9925C14.0138 18.9979 13.9603 19 13.9069 18.999C13.8621 18.999 12.9723 18.999 11.8581 18.999H11.7988C9.88985 18.999 7.3635 19.0017 7.28139 18.9958C6.39537 18.9382 5.54651 18.619 4.84277 18.0787C5.03032 17.3524 5.37765 16.677 5.85951 16.1014C6.34138 15.5259 6.94568 15.0647 7.62849 14.7514Z" fill="#0A5BE8"/>
        <path d="M13.8694 9.50291C13.9815 13.9582 7.29316 13.9549 7.4052 9.50291C7.34414 5.02247 13.9269 5.02247 13.8694 9.50291Z" fill="#0A5BE8"/>
    </g>
</svg>
