<svg width="18" height="18" viewBox="0 0 18 18" fill="none" xmlns="http://www.w3.org/2000/svg">
    <path d="M5.25 6.375H9M5.25 9H11.25M7.26281 13.5H12.15C13.4101 13.5 14.0402 13.5 14.5215 13.2548C14.9448 13.039 15.289 12.6948 15.5048 12.2715C15.75 11.7902 15.75 11.1601 15.75 9.9V5.85C15.75 4.58988 15.75 3.95982 15.5048 3.47852C15.289 3.05516 14.9448 2.71095 14.5215 2.49524C14.0402 2.25 13.4101 2.25 12.15 2.25H5.85C4.58988 2.25 3.95982 2.25 3.47852 2.49524C3.05516 2.71095 2.71095 3.05516 2.49524 3.47852C2.25 3.95982 2.25 4.58988 2.25 5.85V15.2516C2.25 15.6513 2.25 15.8511 2.33192 15.9537C2.40317 16.043 2.5112 16.0949 2.6254 16.0948C2.75672 16.0946 2.91275 15.9698 3.22482 15.7201L5.01391 14.2889C5.37939 13.9965 5.56213 13.8503 5.76561 13.7463C5.94615 13.6541 6.13832 13.5867 6.33691 13.5459C6.56075 13.5 6.79477 13.5 7.26281 13.5Z" stroke="#DFEAFF" stroke-width="1.5" stroke-linecap="round" stroke-linejoin="round"/>
</svg>
